Nepomuk-BoldSC.ufo
<glyph name="exclam" format="2">
  <advance width="302"/>
  <unicode hex="0021"/>
  <outline>
    <contour>
      <point x="180" y="216" type="line"/>
      <point x="180" y="344"/>
      <point x="200" y="455"/>
      <point x="226" y="580" type="curve" smooth="yes"/>
      <point x="229" y="595"/>
      <point x="231" y="608"/>
      <point x="231" y="620" type="curve" smooth="yes"/>
      <point x="231" y="665"/>
      <point x="202" y="692"/>
      <point x="150" y="692" type="curve" smooth="yes"/>
      <point x="98" y="692"/>
      <point x="69" y="665"/>
      <point x="69" y="620" type="curve" smooth="yes"/>
      <point x="69" y="608"/>
      <point x="71" y="595"/>
      <point x="74" y="580" type="curve" smooth="yes"/>
      <point x="100" y="455"/>
      <point x="120" y="344"/>
      <point x="120" y="216" type="curve"/>
    </contour>
    <contour>
      <point x="88" y="55" type="curve" smooth="yes"/>
      <point x="88" y="21"/>
      <point x="116" y="-7"/>
      <point x="150" y="-7" type="curve" smooth="yes"/>
      <point x="184" y="-7"/>
      <point x="212" y="21"/>
      <point x="212" y="55" type="curve" smooth="yes"/>
      <point x="212" y="89"/>
      <point x="184" y="117"/>
      <point x="150" y="117" type="curve" smooth="yes"/>
      <point x="116" y="117"/>
      <point x="88" y="89"/>
    </contour>
  </outline>
</glyph>
<glyph name="quotedbl" format="2">
  <advance width="380"/>
  <unicode hex="0022"/>
  <outline>
    <contour>
      <point x="302" y="387" type="line"/>
      <point x="318" y="496" type="line" smooth="yes"/>
      <point x="326" y="549"/>
      <point x="335" y="611"/>
      <point x="335" y="633" type="curve" smooth="yes"/>
      <point x="335" y="667"/>
      <point x="315" y="692"/>
      <point x="275" y="692" type="curve" smooth="yes"/>
      <point x="235" y="692"/>
      <point x="215" y="667"/>
      <point x="215" y="633" type="curve" smooth="yes"/>
      <point x="215" y="611"/>
      <point x="224" y="549"/>
      <point x="232" y="496" type="curve" smooth="yes"/>
      <point x="248" y="387" type="line"/>
    </contour>
    <contour>
      <point x="132" y="387" type="line"/>
      <point x="148" y="496" type="line" smooth="yes"/>
      <point x="156" y="549"/>
      <point x="165" y="611"/>
      <point x="165" y="633" type="curve" smooth="yes"/>
      <point x="165" y="667"/>
      <point x="145" y="692"/>
      <point x="105" y="692" type="curve" smooth="yes"/>
      <point x="65" y="692"/>
      <point x="45" y="667"/>
      <point x="45" y="633" type="curve" smooth="yes"/>
      <point x="45" y="611"/>
      <point x="54" y="549"/>
      <point x="62" y="496" type="curve" smooth="yes"/>
      <point x="78" y="387" type="line"/>
    </contour>
  </outline>
</glyph>
<glyph name="numbersign" format="2">
  <advance width="443"/>
  <unicode hex="0023"/>
  <outline>
    <contour>
      <point x="45" y="377" type="line"/>
      <point x="93" y="391" type="line" smooth="yes"/>
      <point x="96.9582" y="392.154"/>
      <point x="101" y="393"/>
      <point x="103" y="393" type="curve"/>
      <point x="104" y="393"/>
      <point x="105" y="387"/>
      <point x="105" y="368" type="curve" smooth="yes"/>
      <point x="105" y="225" type="line"/>
      <point x="116" y="225" type="line"/>
      <point x="45" y="205" type="line"/>
      <point x="45" y="101" type="line"/>
      <point x="94" y="116" type="line" smooth="yes"/>
      <point x="98" y="117"/>
      <point x="101" y="117"/>
      <point x="102" y="117" type="curve"/>
      <point x="104" y="117"/>
      <point x="105" y="110"/>
      <point x="105" y="93" type="curve" smooth="yes"/>
      <point x="105" y="-45" type="line"/>
      <point x="175" y="-45" type="line"/>
      <point x="175" y="135" type="line"/>
      <point x="164" y="135" type="line"/>
      <point x="252" y="159" type="line" smooth="yes"/>
      <point x="262" y="161" type="line"/>
      <point x="265" y="161"/>
      <point x="268" y="154"/>
      <point x="268" y="133" type="curve" smooth="yes"/>
      <point x="268" y="-12" type="line"/>
      <point x="338" y="-12" type="line"/>
      <point x="338" y="179" type="line"/>
      <point x="327" y="179" type="line"/>
      <point x="398" y="199" type="line"/>
      <point x="398" y="303" type="line"/>
      <point x="352" y="290" type="line"/>
      <point x="355" y="290" type="line"/>
      <point x="351" y="289" type="line"/>
      <point x="348" y="289"/>
      <point x="345" y="288"/>
      <point x="345" y="288" type="curve"/>
      <point x="340" y="288"/>
      <point x="338" y="298"/>
      <point x="338" y="322" type="curve" smooth="yes"/>
      <point x="338" y="455" type="line"/>
      <point x="327" y="455" type="line"/>
      <point x="398" y="475" type="line"/>
      <point x="398" y="578" type="line"/>
      <point x="352" y="566" type="line" smooth="yes"/>
      <point x="348" y="565"/>
      <point x="344" y="564"/>
      <point x="343" y="564" type="curve"/>
      <point x="340" y="564"/>
      <point x="338" y="572"/>
      <point x="338" y="592" type="curve" smooth="yes"/>
      <point x="338" y="725" type="line"/>
      <point x="268" y="725" type="line"/>
      <point x="268" y="545" type="line"/>
      <point x="279" y="545" type="line"/>
      <point x="186" y="520" type="line" smooth="yes"/>
      <point x="183" y="519"/>
      <point x="182" y="519"/>
      <point x="181" y="519" type="curve"/>
      <point x="177" y="519"/>
      <point x="175" y="531"/>
      <point x="175" y="546" type="curve" smooth="yes"/>
      <point x="175" y="692" type="line"/>
      <point x="105" y="692" type="line"/>
      <point x="105" y="501" type="line"/>
      <point x="116" y="501" type="line"/>
      <point x="45" y="481" type="line"/>
    </contour>
    <contour>
      <point x="175" y="411" type="line"/>
      <point x="164" y="411" type="line"/>
      <point x="258" y="436" type="line"/>
      <point x="254" y="436" type="line"/>
      <point x="257" y="436"/>
      <point x="258" y="436"/>
      <point x="259" y="437" type="curve"/>
      <point x="258" y="437" type="line"/>
      <point x="263" y="435"/>
      <point x="268" y="430"/>
      <point x="268" y="411" type="curve" smooth="yes"/>
      <point x="268" y="269" type="line"/>
      <point x="279" y="269" type="line"/>
      <point x="190" y="245" type="line" smooth="yes"/>
      <point x="187" y="244"/>
      <point x="186" y="244"/>
      <point x="185" y="244" type="curve"/>
      <point x="178" y="244"/>
      <point x="175" y="260"/>
      <point x="175" y="275" type="curve" smooth="yes"/>
    </contour>
  </outline>
</glyph>
<glyph name="percent" format="2">
  <advance width="796"/>
  <unicode hex="0025"/>
  <outline>
    <contour>
      <point x="552" y="166" type="curve" smooth="yes"/>
      <point x="552" y="278"/>
      <point x="568" y="317"/>
      <point x="593" y="317" type="curve" smooth="yes"/>
      <point x="618" y="317"/>
      <point x="634" y="278"/>
      <point x="634" y="166" type="curve" smooth="yes"/>
      <point x="634" y="54"/>
      <point x="618" y="14"/>
      <point x="593" y="14" type="curve" smooth="yes"/>
      <point x="568" y="14"/>
      <point x="552" y="54"/>
    </contour>
    <contour>
      <point x="435" y="166" type="curve" smooth="yes"/>
      <point x="435" y="71"/>
      <point x="503" y="-12"/>
      <point x="593" y="-12" type="curve" smooth="yes"/>
      <point x="683" y="-12"/>
      <point x="751" y="71"/>
      <point x="751" y="166" type="curve" smooth="yes"/>
      <point x="751" y="261"/>
      <point x="683" y="343"/>
      <point x="593" y="343" type="curve" smooth="yes"/>
      <point x="503" y="343"/>
      <point x="435" y="261"/>
    </contour>
    <contour>
      <point x="162" y="516" type="curve" smooth="yes"/>
      <point x="162" y="628"/>
      <point x="178" y="667"/>
      <point x="203" y="667" type="curve" smooth="yes"/>
      <point x="228" y="667"/>
      <point x="244" y="628"/>
      <point x="244" y="516" type="curve" smooth="yes"/>
      <point x="244" y="404"/>
      <point x="228" y="364"/>
      <point x="203" y="364" type="curve" smooth="yes"/>
      <point x="178" y="364"/>
      <point x="162" y="404"/>
    </contour>
    <contour>
      <point x="45" y="516" type="curve" smooth="yes"/>
      <point x="45" y="421"/>
      <point x="113" y="338"/>
      <point x="203" y="338" type="curve" smooth="yes"/>
      <point x="293" y="338"/>
      <point x="361" y="421"/>
      <point x="361" y="516" type="curve" smooth="yes"/>
      <point x="361" y="611"/>
      <point x="293" y="693"/>
      <point x="203" y="693" type="curve" smooth="yes"/>
      <point x="113" y="693"/>
      <point x="45" y="611"/>
    </contour>
    <contour>
      <point x="671" y="680" type="line"/>
      <point x="594" y="680" type="line"/>
      <point x="125" y="0" type="line"/>
      <point x="202" y="0" type="line"/>
    </contour>
  </outline>
</glyph>
<glyph name="ampersand" format="2">
  <advance width="805"/>
  <unicode hex="0026"/>
  <outline>
    <contour>
      <point x="251" y="-19" type="qcurve" smooth="yes"/>
      <point x="162" y="-19"/>
      <point x="45" y="66"/>
      <point x="45" y="142" type="qcurve" smooth="yes"/>
      <point x="45" y="209"/>
      <point x="141" y="325"/>
      <point x="236" y="391" type="qcurve" smooth="yes"/>
      <point x="259" y="408" type="line"/>
      <point x="248" y="425" type="line" smooth="yes"/>
      <point x="220" y="468"/>
      <point x="197" y="531"/>
      <point x="197" y="573" type="qcurve" smooth="yes"/>
      <point x="197" y="632"/>
      <point x="245" y="709"/>
      <point x="324" y="749"/>
      <point x="370" y="749" type="qcurve" smooth="yes"/>
      <point x="413" y="749"/>
      <point x="467" y="709"/>
      <point x="492" y="651"/>
      <point x="492" y="619" type="qcurve" smooth="yes"/>
      <point x="492" y="567"/>
      <point x="431" y="487"/>
      <point x="372" y="443" type="qcurve"/>
      <point x="552" y="172" type="line"/>
      <point x="583" y="209"/>
      <point x="622" y="296"/>
      <point x="622" y="324" type="qcurve" smooth="yes"/>
      <point x="622" y="344"/>
      <point x="599" y="366"/>
      <point x="583" y="366" type="qcurve" smooth="yes"/>
      <point x="544" y="366" type="line"/>
      <point x="544" y="399" type="line"/>
      <point x="760" y="399" type="line"/>
      <point x="760" y="366" type="line"/>
      <point x="752" y="366" type="line" smooth="yes"/>
      <point x="696" y="366"/>
      <point x="662" y="292" type="qcurve" smooth="yes"/>
      <point x="615" y="196"/>
      <point x="571" y="144" type="qcurve"/>
      <point x="602" y="93"/>
      <point x="646" y="42"/>
      <point x="671" y="42" type="qcurve" smooth="yes"/>
      <point x="691" y="42"/>
      <point x="723" y="77"/>
      <point x="737" y="107" type="qcurve"/>
      <point x="758" y="96" type="line"/>
      <point x="743" y="55"/>
      <point x="670" y="-19"/>
      <point x="620" y="-19" type="qcurve" smooth="yes"/>
      <point x="584" y="-19"/>
      <point x="513" y="25"/>
      <point x="488" y="61" type="qcurve"/>
      <point x="451" y="31"/>
      <point x="317" y="-19"/>
    </contour>
    <contour>
      <point x="352" y="474" type="qcurve"/>
      <point x="398" y="509"/>
      <point x="446" y="578"/>
      <point x="446" y="625" type="qcurve" smooth="yes"/>
      <point x="446" y="667"/>
      <point x="404" y="716"/>
      <point x="371" y="716" type="qcurve" smooth="yes"/>
      <point x="339" y="716"/>
      <point x="291" y="673"/>
      <point x="291" y="627" type="qcurve" smooth="yes"/>
      <point x="291" y="594"/>
      <point x="313" y="538"/>
    </contour>
    <contour>
      <point x="349" y="42" type="qcurve" smooth="yes"/>
      <point x="383" y="42"/>
      <point x="445" y="68"/>
      <point x="470" y="89" type="qcurve"/>
      <point x="280" y="377" type="line"/>
      <point x="245" y="345"/>
      <point x="207" y="298"/>
      <point x="188" y="239"/>
      <point x="188" y="204" type="qcurve" smooth="yes"/>
      <point x="188" y="150"/>
      <point x="237" y="79"/>
      <point x="311" y="42"/>
    </contour>
  </outline>
</glyph>
<glyph name="quotesingle" format="2">
  <advance width="210"/>
  <unicode hex="0027"/>
  <outline>
    <contour>
      <point x="132" y="387" type="line"/>
      <point x="148" y="496" type="line" smooth="yes"/>
      <point x="156" y="549"/>
      <point x="165" y="611"/>
      <point x="165" y="633" type="curve" smooth="yes"/>
      <point x="165" y="667"/>
      <point x="145" y="692"/>
      <point x="105" y="692" type="curve" smooth="yes"/>
      <point x="65" y="692"/>
      <point x="45" y="667"/>
      <point x="45" y="633" type="curve" smooth="yes"/>
      <point x="45" y="611"/>
      <point x="54" y="549"/>
      <point x="62" y="496" type="curve" smooth="yes"/>
      <point x="78" y="387" type="line"/>
    </contour>
  </outline>
</glyph>
<glyph name="parenright" format="2">
  <advance width="317"/>
  <unicode hex="0029"/>
  <outline>
    <contour>
      <point x="272" y="265" type="curve" smooth="yes"/>
      <point x="272" y="501"/>
      <point x="114" y="680"/>
      <point x="0" y="769" type="curve"/>
      <point x="-31" y="736" type="line"/>
      <point x="64" y="646"/>
      <point x="146" y="508"/>
      <point x="146" y="265" type="curve" smooth="yes"/>
      <point x="146" y="22"/>
      <point x="64" y="-116"/>
      <point x="-31" y="-206" type="curve"/>
      <point x="0" y="-239" type="line"/>
      <point x="114" y="-150"/>
      <point x="272" y="29"/>
    </contour>
  </outline>
</glyph>
<glyph name="asterisk" format="2">
  <advance width="514"/>
  <unicode hex="002A"/>
  <outline>
    <contour>
      <point x="261" y="297" type="curve" smooth="yes"/>
      <point x="234" y="297"/>
      <point x="214" y="318"/>
      <point x="214" y="346" type="curve" smooth="yes"/>
      <point x="214" y="360"/>
      <point x="219" y="377"/>
      <point x="229" y="393" type="curve"/>
      <point x="242" y="417"/>
      <point x="249" y="441"/>
      <point x="249" y="466" type="curve" smooth="yes"/>
      <point x="249" y="476"/>
      <point x="248" y="479"/>
      <point x="242" y="479" type="curve" smooth="yes"/>
      <point x="238" y="479"/>
      <point x="233" y="477"/>
      <point x="226" y="473" type="curve"/>
      <point x="209" y="460"/>
      <point x="193" y="443"/>
      <point x="179" y="422" type="curve" smooth="yes"/>
      <point x="159" y="392"/>
      <point x="140" y="378"/>
      <point x="119" y="378" type="curve" smooth="yes"/>
      <point x="92" y="378"/>
      <point x="72" y="400"/>
      <point x="72" y="427" type="curve" smooth="yes"/>
      <point x="72" y="458"/>
      <point x="99" y="478"/>
      <point x="147" y="478" type="curve" smooth="yes"/>
      <point x="174" y="478"/>
      <point x="199" y="484"/>
      <point x="218" y="496" type="curve"/>
      <point x="221" y="497"/>
      <point x="228" y="502"/>
      <point x="228" y="507" type="curve" smooth="yes"/>
      <point x="228" y="512"/>
      <point x="221" y="517"/>
      <point x="218" y="518" type="curve"/>
      <point x="199" y="530"/>
      <point x="174" y="536"/>
      <point x="147" y="536" type="curve" smooth="yes"/>
      <point x="99" y="536"/>
      <point x="72" y="556"/>
      <point x="72" y="587" type="curve" smooth="yes"/>
      <point x="72" y="614"/>
      <point x="92" y="636"/>
      <point x="119" y="636" type="curve" smooth="yes"/>
      <point x="140" y="636"/>
      <point x="159" y="622"/>
      <point x="179" y="592" type="curve" smooth="yes"/>
      <point x="193" y="571"/>
      <point x="209" y="554"/>
      <point x="226" y="541" type="curve"/>
      <point x="233" y="537"/>
      <point x="238" y="535"/>
      <point x="242" y="535" type="curve" smooth="yes"/>
      <point x="248" y="535"/>
      <point x="249" y="538"/>
      <point x="249" y="548" type="curve" smooth="yes"/>
      <point x="249" y="573"/>
      <point x="242" y="597"/>
      <point x="229" y="621" type="curve"/>
      <point x="219" y="637"/>
      <point x="214" y="654"/>
      <point x="214" y="668" type="curve" smooth="yes"/>
      <point x="214" y="696"/>
      <point x="234" y="717"/>
      <point x="261" y="717" type="curve" smooth="yes"/>
      <point x="289" y="717"/>
      <point x="308" y="696"/>
      <point x="308" y="668" type="curve" smooth="yes"/>
      <point x="308" y="654"/>
      <point x="303" y="637"/>
      <point x="293" y="621" type="curve"/>
      <point x="280" y="597"/>
      <point x="273" y="573"/>
      <point x="273" y="548" type="curve" smooth="yes"/>
      <point x="273" y="538"/>
      <point x="274" y="535"/>
      <point x="280" y="535" type="curve" smooth="yes"/>
      <point x="300" y="535"/>
      <point x="333" y="577"/>
      <point x="345" y="596" type="curve" smooth="yes"/>
      <point x="363" y="622"/>
      <point x="383" y="636"/>
      <point x="403" y="636" type="curve" smooth="yes"/>
      <point x="430" y="636"/>
      <point x="451" y="614"/>
      <point x="451" y="587" type="curve" smooth="yes"/>
      <point x="451" y="556"/>
      <point x="424" y="536"/>
      <point x="375" y="536" type="curve" smooth="yes"/>
      <point x="348" y="536"/>
      <point x="323" y="530"/>
      <point x="304" y="518" type="curve"/>
      <point x="301" y="517"/>
      <point x="294" y="512"/>
      <point x="294" y="507" type="curve" smooth="yes"/>
      <point x="294" y="502"/>
      <point x="301" y="497"/>
      <point x="304" y="496" type="curve"/>
      <point x="323" y="484"/>
      <point x="348" y="478"/>
      <point x="375" y="478" type="curve" smooth="yes"/>
      <point x="424" y="478"/>
      <point x="451" y="458"/>
      <point x="451" y="427" type="curve" smooth="yes"/>
      <point x="451" y="400"/>
      <point x="430" y="378"/>
      <point x="403" y="378" type="curve" smooth="yes"/>
      <point x="383" y="378"/>
      <point x="363" y="392"/>
      <point x="346" y="418" type="curve" smooth="yes"/>
      <point x="333" y="437"/>
      <point x="299" y="479"/>
      <point x="280" y="479" type="curve" smooth="yes"/>
      <point x="274" y="479"/>
      <point x="273" y="476"/>
      <point x="273" y="466" type="curve" smooth="yes"/>
      <point x="273" y="441"/>
      <point x="280" y="417"/>
      <point x="293" y="393" type="curve"/>
      <point x="303" y="377"/>
      <point x="308" y="360"/>
      <point x="308" y="346" type="curve" smooth="yes"/>
      <point x="308" y="318"/>
      <point x="289" y="297"/>
    </contour>
  </outline>
</glyph>
<glyph name="plus" format="2">
  <advance width="576"/>
  <unicode hex="002B"/>
  <outline>
    <contour>
      <point x="328" y="275" type="line"/>
      <point x="328" y="498" type="line"/>
      <point x="248" y="498" type="line"/>
      <point x="248" y="275" type="line"/>
      <point x="263" y="275" type="line"/>
      <point x="25" y="275" type="line"/>
      <point x="25" y="225" type="line"/>
      <point x="248" y="225" type="line"/>
      <point x="248" y="2" type="line"/>
      <point x="328" y="2" type="line"/>
      <point x="328" y="225" type="line"/>
      <point x="313" y="225" type="line"/>
      <point x="551" y="225" type="line"/>
      <point x="551" y="275" type="line"/>
    </contour>
  </outline>
</glyph>
<glyph name="period" format="2">
  <advance width="280"/>
  <unicode hex="002E"/>
  <outline>
    <contour>
      <point x="65" y="59" type="curve" smooth="yes"/>
      <point x="65" y="20"/>
      <point x="98" y="-12"/>
      <point x="140" y="-12" type="curve" smooth="yes"/>
      <point x="182" y="-12"/>
      <point x="215" y="20"/>
      <point x="215" y="59" type="curve" smooth="yes"/>
      <point x="215" y="98"/>
      <point x="182" y="130"/>
      <point x="140" y="130" type="curve" smooth="yes"/>
      <point x="98" y="130"/>
      <point x="65" y="98"/>
    </contour>
  </outline>
</glyph>
<glyph name="slash" format="2">
  <advance width="354"/>
  <unicode hex="002F"/>
  <outline>
    <contour>
      <point x="287" y="692" type="line"/>
      <point x="14" y="0" type="line"/>
      <point x="91" y="0" type="line"/>
      <point x="364" y="692" type="line"/>
    </contour>
  </outline>
</glyph>
<glyph name="zero" format="2">
  <advance width="587"/>
  <unicode hex="0030"/>
  <outline>
    <contour>
      <point x="35" y="342" type="curve" smooth="yes"/>
      <point x="35" y="147"/>
      <point x="141" y="-12"/>
      <point x="294" y="-12" type="curve" smooth="yes"/>
      <point x="447" y="-12"/>
      <point x="552" y="147"/>
      <point x="552" y="342" type="curve" smooth="yes"/>
      <point x="552" y="537"/>
      <point x="447" y="692"/>
      <point x="294" y="692" type="curve" smooth="yes"/>
      <point x="141" y="692"/>
      <point x="35" y="537"/>
    </contour>
    <contour>
      <point x="294" y="663" type="curve" smooth="yes"/>
      <point x="372" y="663"/>
      <point x="406" y="557"/>
      <point x="406" y="367" type="curve" smooth="yes"/>
      <point x="406" y="312" type="line" smooth="yes"/>
      <point x="406" y="122"/>
      <point x="372" y="17"/>
      <point x="294" y="17" type="curve" smooth="yes"/>
      <point x="216" y="17"/>
      <point x="181" y="122"/>
      <point x="181" y="312" type="curve" smooth="yes"/>
      <point x="181" y="367" type="line" smooth="yes"/>
      <point x="181" y="557"/>
      <point x="216" y="663"/>
    </contour>
  </outline>
</glyph>
<glyph name="one" format="2">
  <advance width="450"/>
  <unicode hex="0031"/>
  <outline>
    <contour>
      <point x="259" y="680" type="line"/>
      <point x="215" y="610"/>
      <point x="169" y="584"/>
      <point x="61" y="560" type="curve"/>
      <point x="61" y="538" type="line"/>
      <point x="75" y="540"/>
      <point x="86" y="540"/>
      <point x="91" y="540" type="curve" smooth="yes"/>
      <point x="123" y="540"/>
      <point x="189" y="533"/>
      <point x="189" y="494" type="curve" smooth="yes"/>
      <point x="189" y="85" type="line" smooth="yes"/>
      <point x="189" y="50"/>
      <point x="179" y="35"/>
      <point x="155" y="35" type="curve" smooth="yes"/>
      <point x="89" y="35" type="line"/>
      <point x="89" y="0" type="line"/>
      <point x="416" y="0" type="line"/>
      <point x="416" y="35" type="line"/>
      <point x="350" y="35" type="line" smooth="yes"/>
      <point x="326" y="35"/>
      <point x="316" y="50"/>
      <point x="316" y="85" type="curve" smooth="yes"/>
      <point x="316" y="680" type="line"/>
    </contour>
  </outline>
</glyph>
<glyph name="two" format="2">
  <advance width="573"/>
  <unicode hex="0032"/>
  <outline>
    <contour>
      <point x="155" y="560" type="curve" smooth="yes"/>
      <point x="149" y="560"/>
      <point x="146" y="565"/>
      <point x="146" y="573" type="curve" smooth="yes"/>
      <point x="146" y="620"/>
      <point x="237" y="658"/>
      <point x="283" y="658" type="curve" smooth="yes"/>
      <point x="328" y="658"/>
      <point x="375" y="623"/>
      <point x="375" y="522" type="curve" smooth="yes"/>
      <point x="375" y="420"/>
      <point x="350" y="359"/>
      <point x="225" y="265" type="curve" smooth="yes"/>
      <point x="146" y="206"/>
      <point x="52" y="101"/>
      <point x="45" y="0" type="curve"/>
      <point x="108" y="0" type="line"/>
      <point x="126" y="56"/>
      <point x="154" y="77"/>
      <point x="181" y="77" type="curve" smooth="yes"/>
      <point x="205" y="77"/>
      <point x="228" y="58"/>
      <point x="252" y="37" type="curve" smooth="yes"/>
      <point x="290" y="6"/>
      <point x="318" y="-12" name="hr01"/>
      <point x="367" y="-12" type="curve" smooth="yes"/>
      <point x="504" y="-12"/>
      <point x="528" y="126"/>
      <point x="528" y="197" type="curve"/>
      <point x="465" y="197" type="line"/>
      <point x="460" y="123"/>
      <point x="434" y="86" name="hr03"/>
      <point x="401" y="86" type="curve" smooth="yes"/>
      <point x="377" y="86"/>
      <point x="348" y="104"/>
      <point x="319" y="122" type="curve" smooth="yes"/>
      <point x="295" y="138"/>
      <point x="271" y="153"/>
      <point x="240" y="158" type="curve" smooth="yes"/>
      <point x="219" y="162"/>
      <point x="209" y="169"/>
      <point x="209" y="182" type="curve" smooth="yes"/>
      <point x="209" y="188"/>
      <point x="211" y="195"/>
      <point x="216" y="199" type="curve" smooth="yes"/>
      <point x="257" y="237"/>
      <point x="296" y="262"/>
      <point x="337" y="283" type="curve" smooth="yes"/>
      <point x="345" y="287" type="line" smooth="yes"/>
      <point x="435" y="332"/>
      <point x="519" y="411"/>
      <point x="519" y="508" type="curve" smooth="yes"/>
      <point x="519" y="618"/>
      <point x="409" y="692"/>
      <point x="289" y="692" type="curve" smooth="yes"/>
      <point x="153" y="692"/>
      <point x="56" y="596"/>
      <point x="56" y="507" type="curve" smooth="yes"/>
      <point x="56" y="444"/>
      <point x="105" y="409"/>
      <point x="158" y="409" type="curve" smooth="yes"/>
      <point x="208" y="409"/>
      <point x="246" y="440"/>
      <point x="246" y="484" type="curve" smooth="yes"/>
      <point x="246" y="526"/>
      <point x="208" y="560"/>
    </contour>
  </outline>
</glyph>
<glyph name="three" format="2">
  <advance width="583"/>
  <unicode hex="0033"/>
  <outline>
    <contour>
      <point x="337" y="369" type="curve"/>
      <point x="426" y="384"/>
      <point x="509" y="452"/>
      <point x="509" y="527" type="curve"/>
      <point x="509" y="624"/>
      <point x="407" y="692"/>
      <point x="295" y="692" type="curve" smooth="yes"/>
      <point x="174" y="692"/>
      <point x="72" y="613"/>
      <point x="72" y="528" type="curve" smooth="yes"/>
      <point x="72" y="476"/>
      <point x="111" y="447"/>
      <point x="161" y="447" type="curve" smooth="yes"/>
      <point x="210" y="447"/>
      <point x="247" y="476" name=".hr01"/>
      <point x="247" y="515" type="curve" smooth="yes"/>
      <point x="247" y="549"/>
      <point x="218" y="579"/>
      <point x="187" y="585" type="curve" smooth="yes"/>
      <point x="175" y="588"/>
      <point x="173" y="592" name=".hr02"/>
      <point x="173" y="598" type="curve" smooth="yes"/>
      <point x="173" y="637"/>
      <point x="246" y="659"/>
      <point x="272" y="659" type="curve" smooth="yes"/>
      <point x="356" y="659"/>
      <point x="376" y="598"/>
      <point x="376" y="520" type="curve" smooth="yes"/>
      <point x="376" y="446"/>
      <point x="345" y="382"/>
      <point x="200" y="382" type="curve"/>
      <point x="200" y="353" type="line"/>
      <point x="353" y="353"/>
      <point x="391" y="278" name=".hr03"/>
      <point x="391" y="186" type="curve" smooth="yes"/>
      <point x="391" y="91"/>
      <point x="350" y="24"/>
      <point x="263" y="24" type="curve" smooth="yes"/>
      <point x="215" y="24"/>
      <point x="176" y="45"/>
      <point x="148" y="68" type="curve"/>
      <point x="149" y="68" type="line"/>
      <point x="146" y="70"/>
      <point x="145" y="76"/>
      <point x="145" y="82" type="curve" smooth="yes"/>
      <point x="145" y="95"/>
      <point x="149" y="105"/>
      <point x="158" y="107" type="curve" smooth="yes"/>
      <point x="200" y="115"/>
      <point x="230" y="145"/>
      <point x="230" y="182" type="curve" smooth="yes"/>
      <point x="230" y="225"/>
      <point x="190" y="260"/>
      <point x="137" y="260" type="curve" smooth="yes"/>
      <point x="89" y="260"/>
      <point x="35" y="229"/>
      <point x="35" y="164" type="curve" smooth="yes"/>
      <point x="35" y="71"/>
      <point x="143" y="-12"/>
      <point x="275" y="-12" type="curve" smooth="yes"/>
      <point x="460" y="-12"/>
      <point x="538" y="87"/>
      <point x="538" y="175" type="curve" smooth="yes"/>
      <point x="538" y="270"/>
      <point x="448" y="350"/>
    </contour>
  </outline>
</glyph>
<glyph name="four" format="2">
  <advance width="546"/>
  <unicode hex="0034"/>
  <outline>
    <contour>
      <point x="395" y="171" type="line"/>
      <point x="531" y="171" type="line"/>
      <point x="531" y="206" type="line"/>
      <point x="395" y="206" type="line"/>
      <point x="395" y="498" type="line" smooth="yes"/>
      <point x="395" y="503"/>
      <point x="388" y="506"/>
      <point x="376" y="506" type="curve" smooth="yes"/>
      <point x="368" y="506"/>
      <point x="360" y="504"/>
      <point x="358" y="501" type="curve" smooth="yes"/>
      <point x="270" y="372" type="line"/>
      <point x="270" y="206" type="line"/>
      <point x="285" y="206" type="line"/>
      <point x="84" y="206" type="line"/>
      <point x="124" y="271"/>
      <point x="165" y="329"/>
      <point x="205" y="385" type="curve" smooth="yes"/>
      <point x="275" y="484"/>
      <point x="340" y="577"/>
      <point x="386" y="678" type="curve"/>
      <point x="200" y="678" type="line"/>
      <point x="173" y="514"/>
      <point x="113" y="372"/>
      <point x="15" y="203" type="curve"/>
      <point x="15" y="171" type="line"/>
      <point x="270" y="171" type="line"/>
      <point x="270" y="85" type="line" smooth="yes"/>
      <point x="270" y="50"/>
      <point x="259" y="35"/>
      <point x="235" y="35" type="curve" smooth="yes"/>
      <point x="170" y="35" type="line"/>
      <point x="170" y="0" type="line"/>
      <point x="495" y="0" type="line"/>
      <point x="495" y="35" type="line"/>
      <point x="430" y="35" type="line" smooth="yes"/>
      <point x="406" y="35"/>
      <point x="395" y="50"/>
      <point x="395" y="85" type="curve" smooth="yes"/>
    </contour>
  </outline>
</glyph>
<glyph name="five" format="2">
  <advance width="565"/>
  <unicode hex="0035"/>
  <outline>
    <contour>
      <point x="150" y="73" type="curve" smooth="yes"/>
      <point x="150" y="81"/>
      <point x="153" y="89"/>
      <point x="160" y="90" type="curve" smooth="yes"/>
      <point x="203" y="97"/>
      <point x="234" y="126"/>
      <point x="234" y="164" type="curve" smooth="yes"/>
      <point x="234" y="207"/>
      <point x="196" y="239"/>
      <point x="146" y="239" type="curve" smooth="yes"/>
      <point x="93" y="239"/>
      <point x="45" y="204"/>
      <point x="45" y="142" type="curve" smooth="yes"/>
      <point x="45" y="60"/>
      <point x="128" y="-12"/>
      <point x="261" y="-12" type="curve" smooth="yes"/>
      <point x="421" y="-12"/>
      <point x="520" y="93"/>
      <point x="520" y="215" type="curve" smooth="yes"/>
      <point x="520" y="353"/>
      <point x="392" y="426"/>
      <point x="277" y="426" type="curve" smooth="yes"/>
      <point x="233" y="426"/>
      <point x="190" y="415"/>
      <point x="158" y="401" type="curve"/>
      <point x="158" y="575" type="line"/>
      <point x="194" y="571"/>
      <point x="231" y="567"/>
      <point x="269" y="567" type="curve" smooth="yes"/>
      <point x="361" y="567"/>
      <point x="440" y="590"/>
      <point x="470" y="664" type="curve"/>
      <point x="473" y="676" type="line"/>
      <point x="473" y="679"/>
      <point x="466" y="681"/>
      <point x="454" y="681" type="curve" smooth="yes"/>
      <point x="446" y="681"/>
      <point x="441" y="680"/>
      <point x="431" y="678" type="curve" smooth="yes"/>
      <point x="395" y="669"/>
      <point x="356" y="662"/>
      <point x="306" y="662" type="curve" smooth="yes"/>
      <point x="258" y="662"/>
      <point x="191" y="669"/>
      <point x="93" y="688" type="curve"/>
      <point x="93" y="354" type="line" smooth="yes"/>
      <point x="93" y="342"/>
      <point x="96" y="338"/>
      <point x="112" y="338" type="curve" smooth="yes"/>
      <point x="123" y="338"/>
      <point x="127" y="340"/>
      <point x="138" y="348" type="curve" smooth="yes"/>
      <point x="175" y="373"/>
      <point x="214" y="392"/>
      <point x="252" y="392" type="curve" smooth="yes"/>
      <point x="353" y="392"/>
      <point x="374" y="327"/>
      <point x="374" y="212" type="curve" smooth="yes"/>
      <point x="374" y="82"/>
      <point x="332" y="22"/>
      <point x="258" y="22" type="curve" smooth="yes"/>
      <point x="225" y="22"/>
      <point x="150" y="34"/>
    </contour>
  </outline>
</glyph>
<glyph name="seven" format="2">
  <advance width="519"/>
  <unicode hex="0037"/>
  <outline>
    <contour>
      <point x="411" y="528" type="curve"/>
      <point x="408" y="528"/>
      <point x="406" y="524"/>
      <point x="405" y="513" type="curve"/>
      <point x="405" y="510"/>
      <point x="405" y="507"/>
      <point x="404" y="505" type="curve" smooth="yes"/>
      <point x="375" y="425"/>
      <point x="327" y="355"/>
      <point x="278" y="286" type="curve" smooth="yes"/>
      <point x="211" y="193"/>
      <point x="149" y="105"/>
      <point x="126" y="-1" type="curve"/>
      <point x="310" y="-1" type="line"/>
      <point x="310" y="126"/>
      <point x="356" y="226"/>
      <point x="404" y="330" type="curve" smooth="yes"/>
      <point x="453" y="435"/>
      <point x="504" y="544"/>
      <point x="504" y="692" type="curve"/>
      <point x="438" y="692" type="line"/>
      <point x="431" y="657"/>
      <point x="422" y="618"/>
      <point x="375" y="618" type="curve" smooth="yes"/>
      <point x="348" y="618"/>
      <point x="324" y="631"/>
      <point x="298" y="645" type="curve" smooth="yes"/>
      <point x="267" y="662"/>
      <point x="233" y="680"/>
      <point x="186" y="680" type="curve" smooth="yes"/>
      <point x="147" y="680"/>
      <point x="115" y="667"/>
      <point x="90" y="633" type="curve"/>
      <point x="99" y="632"/>
      <point x="101" y="648"/>
      <point x="101" y="661" type="curve" smooth="yes"/>
      <point x="100" y="684" type="line" smooth="yes"/>
      <point x="100" y="692" type="line"/>
      <point x="35" y="692" type="line"/>
      <point x="35" y="462" type="line"/>
      <point x="100" y="462" type="line"/>
      <point x="107" y="543"/>
      <point x="129" y="584"/>
      <point x="166" y="584" type="curve" smooth="yes"/>
      <point x="188" y="584"/>
      <point x="210" y="570"/>
      <point x="239" y="553" type="curve" smooth="yes"/>
      <point x="267" y="537"/>
      <point x="300" y="514"/>
      <point x="342" y="514" type="curve" smooth="yes"/>
      <point x="360" y="514"/>
      <point x="378" y="518"/>
      <point x="392" y="523" type="curve" smooth="yes"/>
      <point x="400" y="526"/>
      <point x="405" y="527"/>
    </contour>
  </outline>
</glyph>
<glyph name="eight" format="2">
  <advance width="584"/>
  <unicode hex="0038"/>
  <outline>
    <contour>
      <point x="185" y="568" type="curve" smooth="yes"/>
      <point x="185" y="620"/>
      <point x="231" y="655"/>
      <point x="297" y="655" type="curve" smooth="yes"/>
      <point x="372" y="655"/>
      <point x="411" y="611"/>
      <point x="411" y="530" type="curve" smooth="yes"/>
      <point x="411" y="471"/>
      <point x="391" y="430"/>
      <point x="349" y="402" type="curve"/>
      <point x="238" y="458"/>
      <point x="185" y="511"/>
    </contour>
    <contour>
      <point x="428" y="137" type="curve" smooth="yes"/>
      <point x="428" y="67"/>
      <point x="376" y="25"/>
      <point x="292" y="25" type="curve" smooth="yes"/>
      <point x="200" y="25"/>
      <point x="145" y="76"/>
      <point x="145" y="168" type="curve" smooth="yes"/>
      <point x="145" y="239"/>
      <point x="177" y="286"/>
      <point x="245" y="319" type="curve"/>
      <point x="291" y="294" type="line" smooth="yes"/>
      <point x="355" y="260"/>
      <point x="428" y="221"/>
    </contour>
    <contour>
      <point x="205" y="340" type="curve"/>
      <point x="91" y="290"/>
      <point x="35" y="230"/>
      <point x="35" y="163" type="curve" smooth="yes"/>
      <point x="35" y="68"/>
      <point x="150" y="-12"/>
      <point x="284" y="-12" type="curve" smooth="yes"/>
      <point x="426" y="-12"/>
      <point x="549" y="78"/>
      <point x="549" y="186" type="curve" smooth="yes"/>
      <point x="549" y="254"/>
      <point x="500" y="314"/>
      <point x="391" y="380" type="curve"/>
      <point x="475" y="424"/>
      <point x="517" y="477"/>
      <point x="517" y="535" type="curve" smooth="yes"/>
      <point x="517" y="622"/>
      <point x="418" y="692"/>
      <point x="301" y="692" type="curve" smooth="yes"/>
      <point x="173" y="692"/>
      <point x="64" y="609"/>
      <point x="64" y="512" type="curve" smooth="yes"/>
      <point x="64" y="451"/>
      <point x="108" y="396"/>
    </contour>
  </outline>
</glyph>
<glyph name="colon" format="2">
  <advance width="280"/>
  <unicode hex="003A"/>
  <outline>
    <contour>
      <point x="65" y="390" type="curve" smooth="yes"/>
      <point x="65" y="351"/>
      <point x="98" y="319"/>
      <point x="140" y="319" type="curve" smooth="yes"/>
      <point x="182" y="319"/>
      <point x="215" y="351"/>
      <point x="215" y="390" type="curve" smooth="yes"/>
      <point x="215" y="429"/>
      <point x="182" y="461"/>
      <point x="140" y="461" type="curve" smooth="yes"/>
      <point x="98" y="461"/>
      <point x="65" y="429"/>
    </contour>
    <contour>
      <point x="65" y="59" type="curve" smooth="yes"/>
      <point x="65" y="20"/>
      <point x="98" y="-12"/>
      <point x="140" y="-12" type="curve" smooth="yes"/>
      <point x="182" y="-12"/>
      <point x="215" y="20"/>
      <point x="215" y="59" type="curve" smooth="yes"/>
      <point x="215" y="98"/>
      <point x="182" y="130"/>
      <point x="140" y="130" type="curve" smooth="yes"/>
      <point x="98" y="130"/>
      <point x="65" y="98"/>
    </contour>
  </outline>
</glyph>
<glyph name="semicolon" format="2">
  <advance width="330"/>
  <unicode hex="003B"/>
  <outline>
    <component base="period" xOffset="25" yOffset="302"/>
    <contour>
      <point x="157" y="127" type="curve" smooth="yes"/>
      <point x="124" y="127"/>
      <point x="94" y="96"/>
      <point x="94" y="63" type="curve" smooth="yes"/>
      <point x="94" y="27"/>
      <point x="124" y="0"/>
      <point x="168" y="0" type="curve" smooth="yes"/>
      <point x="175" y="0"/>
      <point x="179" y="-6"/>
      <point x="179" y="-18" type="curve" smooth="yes"/>
      <point x="179" y="-50"/>
      <point x="147" y="-80"/>
      <point x="101" y="-89" type="curve"/>
      <point x="106" y="-119" type="line"/>
      <point x="185" y="-110"/>
      <point x="240" y="-41"/>
      <point x="240" y="38" type="curve" smooth="yes"/>
      <point x="240" y="90"/>
      <point x="205" y="127"/>
    </contour>
  </outline>
</glyph>
<glyph name="equal" format="2">
  <advance width="576"/>
  <unicode hex="003D"/>
  <outline>
    <contour>
      <point x="25" y="190" type="line"/>
      <point x="25" y="140" type="line"/>
      <point x="551" y="140" type="line"/>
      <point x="551" y="190" type="line"/>
    </contour>
    <contour>
      <point x="25" y="360" type="line"/>
      <point x="25" y="310" type="line"/>
      <point x="551" y="310" type="line"/>
      <point x="551" y="360" type="line"/>
    </contour>
  </outline>
</glyph>
<glyph name="question" format="2">
  <advance width="453"/>
  <unicode hex="003F"/>
  <outline>
    <contour>
      <point x="289" y="552" type="curve" smooth="yes"/>
      <point x="289" y="641"/>
      <point x="250" y="664"/>
      <point x="207" y="664" type="curve" smooth="yes"/>
      <point x="158" y="664"/>
      <point x="130" y="634"/>
      <point x="130" y="609" type="curve" smooth="yes"/>
      <point x="130" y="598"/>
      <point x="134" y="594"/>
      <point x="142" y="588" type="curve"/>
      <point x="144" y="587" type="line"/>
      <point x="163" y="574"/>
      <point x="185" y="559"/>
      <point x="185" y="533" type="curve" smooth="yes"/>
      <point x="185" y="500"/>
      <point x="149" y="476"/>
      <point x="108" y="476" type="curve" smooth="yes"/>
      <point x="59" y="476"/>
      <point x="27" y="511"/>
      <point x="27" y="556" type="curve" smooth="yes"/>
      <point x="27" y="630"/>
      <point x="114" y="692"/>
      <point x="231" y="692" type="curve" smooth="yes"/>
      <point x="341" y="692"/>
      <point x="425" y="638"/>
      <point x="425" y="543" type="curve" smooth="yes"/>
      <point x="425" y="470"/>
      <point x="376" y="427"/>
      <point x="327" y="384" type="curve" smooth="yes"/>
      <point x="268" y="331"/>
      <point x="244" y="302"/>
      <point x="244" y="216" type="curve"/>
      <point x="178" y="216" type="line"/>
      <point x="177" y="224"/>
      <point x="177" y="230"/>
      <point x="177" y="231" type="curve" smooth="yes"/>
      <point x="177" y="291"/>
      <point x="203" y="334"/>
      <point x="231" y="379" type="curve" smooth="yes"/>
      <point x="259" y="425"/>
      <point x="289" y="474"/>
    </contour>
    <contour>
      <point x="146" y="55" type="curve" smooth="yes"/>
      <point x="146" y="21"/>
      <point x="174" y="-7"/>
      <point x="208" y="-7" type="curve" smooth="yes"/>
      <point x="242" y="-7"/>
      <point x="270" y="21"/>
      <point x="270" y="55" type="curve" smooth="yes"/>
      <point x="270" y="89"/>
      <point x="242" y="117"/>
      <point x="208" y="117" type="curve" smooth="yes"/>
      <point x="174" y="117"/>
      <point x="146" y="89"/>
    </contour>
  </outline>
</glyph>
<glyph name="at" format="2">
  <advance width="840"/>
  <unicode hex="0040"/>
  <outline>
    <contour>
      <point x="413" y="-18" type="curve" smooth="yes"/>
      <point x="203" y="-18"/>
      <point x="45" y="138"/>
      <point x="45" y="350" type="curve" smooth="yes"/>
      <point x="45" y="570"/>
      <point x="212" y="748"/>
      <point x="430" y="748" type="curve" smooth="yes"/>
      <point x="623" y="748"/>
      <point x="795" y="610"/>
      <point x="795" y="418" type="curve" smooth="yes"/>
      <point x="795" y="280"/>
      <point x="706" y="133"/>
      <point x="571" y="133" type="curve" smooth="yes"/>
      <point x="510" y="133"/>
      <point x="471" y="163"/>
      <point x="466" y="211" type="curve"/>
      <point x="462" y="212" type="line"/>
      <point x="430" y="169"/>
      <point x="382" y="133"/>
      <point x="323" y="133" type="curve" smooth="yes"/>
      <point x="248" y="133"/>
      <point x="205" y="190"/>
      <point x="205" y="277" type="curve" smooth="yes"/>
      <point x="205" y="394"/>
      <point x="281" y="592"/>
      <point x="424" y="592" type="curve" smooth="yes"/>
      <point x="477" y="592"/>
      <point x="503" y="565"/>
      <point x="511" y="536" type="curve"/>
      <point x="515" y="536" type="line"/>
      <point x="526" y="580" type="line"/>
      <point x="636" y="580" type="line"/>
      <point x="561" y="263" type="line"/>
      <point x="558" y="245"/>
      <point x="556" y="230"/>
      <point x="556" y="219" type="curve" smooth="yes"/>
      <point x="556" y="184"/>
      <point x="577" y="166"/>
      <point x="604" y="166" type="curve" smooth="yes"/>
      <point x="691" y="166"/>
      <point x="721" y="346"/>
      <point x="721" y="409" type="curve" smooth="yes"/>
      <point x="721" y="597"/>
      <point x="598" y="715"/>
      <point x="432" y="715" type="curve" smooth="yes"/>
      <point x="228" y="715"/>
      <point x="119" y="538"/>
      <point x="119" y="347" type="curve" smooth="yes"/>
      <point x="119" y="147"/>
      <point x="239" y="15"/>
      <point x="436" y="15" type="curve" smooth="yes"/>
      <point x="501" y="15"/>
      <point x="564" y="44"/>
      <point x="608" y="73" type="curve"/>
      <point x="624" y="45" type="line"/>
      <point x="580" y="13"/>
      <point x="507" y="-18"/>
    </contour>
    <contour>
      <point x="361" y="158" type="curve" smooth="yes"/>
      <point x="443" y="158"/>
      <point x="495" y="430"/>
      <point x="495" y="497" type="curve" smooth="yes"/>
      <point x="495" y="535"/>
      <point x="478" y="567"/>
      <point x="444" y="567" type="curve" smooth="yes"/>
      <point x="346" y="567"/>
      <point x="315" y="299"/>
      <point x="315" y="236" type="curve" smooth="yes"/>
      <point x="315" y="187"/>
      <point x="334" y="158"/>
    </contour>
  </outline>
</glyph>
<glyph name="A" format="2">
  <advance width="732"/>
  <unicode hex="0041"/>
  <anchor x="367" y="750" name="t.dieresis"/>
  <anchor x="367" y="720" name="t.asciicircum_1"/>
  <outline>
    <contour>
      <point x="20.9265" y="0.0735" type="line"/>
      <point x="274.677" y="0.0735" type="line"/>
      <point x="274.677" y="40.4708" type="line"/>
      <point x="254.775" y="40.4708" type="line" smooth="yes"/>
      <point x="201.04" y="40.4708"/>
      <point x="177.157" y="53.2797"/>
      <point x="177.157" y="82.8387" type="curve" smooth="yes"/>
      <point x="177.157" y="96.6329"/>
      <point x="181.138" y="120.28"/>
      <point x="191.089" y="144.913" type="curve"/>
      <point x="216.961" y="214.869" type="line"/>
      <point x="446.829" y="214.869" type="line"/>
      <point x="501.56" y="66.0886" type="line" smooth="yes"/>
      <point x="507.53" y="50.3238"/>
      <point x="479.668" y="40.4708"/>
      <point x="432.898" y="40.4708" type="curve" smooth="yes"/>
      <point x="413.991" y="40.4708" type="line"/>
      <point x="413.991" y="0.0735" type="line"/>
      <point x="711.526" y="0.0735" type="line"/>
      <point x="711.526" y="40.4708" type="line"/>
      <point x="700.58" y="40.4708" type="line" smooth="yes"/>
      <point x="654.805" y="40.4708"/>
      <point x="645.106" y="70.1285"/>
      <point x="620.972" y="130.133" type="curve" smooth="yes"/>
      <point x="395.084" y="691.754" type="line"/>
      <point x="337.368" y="691.754" type="line"/>
      <point x="138.348" y="154.766" type="line" smooth="yes"/>
      <point x="108.495" y="74.9563"/>
      <point x="91.5786" y="40.4708"/>
      <point x="20.9265" y="40.4708" type="curve"/>
    </contour>
    <contour>
      <point x="434.888" y="260.193" type="line"/>
      <point x="232.883" y="260.193" type="line"/>
      <point x="328.412" y="524.253" type="line"/>
    </contour>
  </outline>
</glyph>
<glyph name="B" format="2">
  <advance width="650"/>
  <unicode hex="0042"/>
  <outline>
    <contour>
      <point x="53" y="0" type="line"/>
      <point x="340" y="0" type="line" smooth="yes"/>
      <point x="412" y="0"/>
      <point x="459" y="7"/>
      <point x="498" y="24" type="curve" smooth="yes"/>
      <point x="558" y="51"/>
      <point x="626" y="84"/>
      <point x="626" y="192" type="curve" smooth="yes"/>
      <point x="626" y="287"/>
      <point x="540" y="354"/>
      <point x="455" y="374" type="curve"/>
      <point x="519" y="390"/>
      <point x="583" y="439"/>
      <point x="583" y="511" type="curve" smooth="yes"/>
      <point x="583" y="616"/>
      <point x="495" y="680"/>
      <point x="367" y="680" type="curve" smooth="yes"/>
      <point x="53" y="680" type="line"/>
      <point x="53" y="630" type="line"/>
      <point x="75" y="630" type="line" smooth="yes"/>
      <point x="100" y="630"/>
      <point x="116" y="628"/>
      <point x="123" y="620" type="curve"/>
      <point x="129" y="610"/>
      <point x="131" y="588"/>
      <point x="131" y="542" type="curve" smooth="yes"/>
      <point x="131" y="138" type="line" smooth="yes"/>
      <point x="131" y="92"/>
      <point x="129" y="70"/>
      <point x="123" y="60" type="curve"/>
      <point x="116" y="52"/>
      <point x="100" y="50"/>
      <point x="75" y="50" type="curve" smooth="yes"/>
      <point x="53" y="50" type="line"/>
    </contour>
    <contour>
      <point x="276" y="393" type="line"/>
      <point x="276" y="545" type="line" smooth="yes"/>
      <point x="276" y="588"/>
      <point x="278" y="600"/>
      <point x="285" y="610" type="curve" smooth="yes"/>
      <point x="293" y="622"/>
      <point x="308" y="628"/>
      <point x="328" y="628" type="curve" smooth="yes"/>
      <point x="380" y="628"/>
      <point x="425" y="579"/>
      <point x="425" y="507" type="curve" smooth="yes"/>
      <point x="425" y="423"/>
      <point x="375" y="393"/>
      <point x="290" y="393" type="curve" smooth="yes"/>
    </contour>
    <contour>
      <point x="276" y="338" type="line"/>
      <point x="285" y="339"/>
      <point x="293" y="339"/>
      <point x="293" y="339" type="curve"/>
      <point x="301" y="339"/>
      <point x="308" y="339"/>
      <point x="315" y="339" type="curve" smooth="yes"/>
      <point x="362" y="339"/>
      <point x="384" y="330"/>
      <point x="406" y="312" type="curve"/>
      <point x="431" y="290"/>
      <point x="463" y="241"/>
      <point x="463" y="191" type="curve" smooth="yes"/>
      <point x="463" y="103"/>
      <point x="409" y="52"/>
      <point x="337" y="52" type="curve" smooth="yes"/>
      <point x="296" y="52"/>
      <point x="287" y="52"/>
      <point x="279" y="64" type="curve" smooth="yes"/>
      <point x="276" y="68"/>
      <point x="275" y="77"/>
      <point x="275" y="88" type="curve" smooth="yes"/>
      <point x="275" y="92"/>
      <point x="276" y="97"/>
      <point x="276" y="103" type="curve" smooth="yes"/>
      <point x="276" y="108"/>
      <point x="276" y="116"/>
      <point x="276" y="123" type="curve" smooth="yes"/>
    </contour>
  </outline>
</glyph>
<glyph name="C" format="2">
  <advance width="638"/>
  <unicode hex="0043"/>
  <anchor x="350" y="750" name="t.dieresis"/>
  <anchor x="350" y="730" name="t.asciicircum_1"/>
  <outline>
    <contour>
      <point x="536.462" y="253.296" type="line"/>
      <point x="532.481" y="126.192"/>
      <point x="456.854" y="26.6766"/>
      <point x="365.305" y="26.6766" type="curve" smooth="yes"/>
      <point x="228.976" y="26.6766"/>
      <point x="223.005" y="261.178"/>
      <point x="223.005" y="355.767" type="curve" smooth="yes"/>
      <point x="223.005" y="436.561"/>
      <point x="227.981" y="658.254"/>
      <point x="348.388" y="658.254" type="curve" smooth="yes"/>
      <point x="467.8" y="658.254"/>
      <point x="511.584" y="518.341"/>
      <point x="531.486" y="426.708" type="curve"/>
      <point x="586.217" y="429.664" type="line"/>
      <point x="570.295" y="691.754" type="line"/>
      <point x="529.496" y="691.754" type="line"/>
      <point x="507.604" y="625.739" type="line"/>
      <point x="501.633" y="628.695"/>
      <point x="492.677" y="636.577"/>
      <point x="449.888" y="662.195" type="curve" smooth="yes"/>
      <point x="438.942" y="669.092"/>
      <point x="386.202" y="692.739"/>
      <point x="331.471" y="692.739" type="curve" smooth="yes"/>
      <point x="139.417" y="692.739"/>
      <point x="46.8726" y="504.547"/>
      <point x="46.8726" y="337.046" type="curve" smooth="yes"/>
      <point x="46.8726" y="158.707"/>
      <point x="152.353" y="-10.7648"/>
      <point x="349.383" y="-10.7648" type="curve" smooth="yes"/>
      <point x="450.883" y="-10.7648"/>
      <point x="534.472" y="37.5149"/>
      <point x="565.32" y="137.03" type="curve" smooth="yes"/>
      <point x="576.266" y="173.486"/>
      <point x="580.246" y="211.913"/>
      <point x="585.222" y="249.354" type="curve"/>
    </contour>
  </outline>
</glyph>
<glyph name="D" format="2">
  <advance width="690"/>
  <unicode hex="0044"/>
  <outline>
    <contour>
      <point x="48.3679" y="0.0735" type="line"/>
      <point x="294.693" y="0.0735" type="line" smooth="yes"/>
      <point x="410.958" y="0.0735"/>
      <point x="459.238" y="9.9265"/>
      <point x="513.43" y="48.3532" type="curve"/>
      <point x="602.107" y="108.457"/>
      <point x="655.313" y="218.81"/>
      <point x="655.313" y="342.958" type="curve" smooth="yes"/>
      <point x="655.313" y="494.694"/>
      <point x="572.548" y="644.46"/>
      <point x="412.929" y="672.048" type="curve" smooth="yes"/>
      <point x="377.458" y="678.945"/>
      <point x="356.767" y="679.931"/>
      <point x="281.884" y="679.931" type="curve" smooth="yes"/>
      <point x="48.3679" y="679.931" type="line"/>
      <point x="48.3679" y="629.68" type="line"/>
      <point x="71.0298" y="629.68" type="line" smooth="yes"/>
      <point x="95.6623" y="629.68"/>
      <point x="114.383" y="627.71"/>
      <point x="121.28" y="619.827" type="curve"/>
      <point x="127.192" y="609.974"/>
      <point x="129.163" y="588.298"/>
      <point x="129.163" y="541.989" type="curve" smooth="yes"/>
      <point x="129.163" y="138.016" type="line" smooth="yes"/>
      <point x="129.163" y="91.7064"/>
      <point x="127.192" y="70.0298"/>
      <point x="121.28" y="60.1768" type="curve"/>
      <point x="114.383" y="52.2944"/>
      <point x="96.6476" y="50.3238"/>
      <point x="71.0298" y="50.3238" type="curve" smooth="yes"/>
      <point x="48.3679" y="50.3238" type="line"/>
    </contour>
    <contour>
      <point x="279.913" y="550.856" type="line" smooth="yes"/>
      <point x="279.913" y="597.165"/>
      <point x="291.737" y="628.695"/>
      <point x="345.929" y="628.695" type="curve" smooth="yes"/>
      <point x="391.252" y="628.695"/>
      <point x="429.679" y="598.151"/>
      <point x="453.326" y="541.989" type="curve" smooth="yes"/>
      <point x="475.003" y="493.709"/>
      <point x="482.885" y="438.532"/>
      <point x="482.885" y="337.046" type="curve" smooth="yes"/>
      <point x="482.885" y="241.472"/>
      <point x="479.929" y="50.3238"/>
      <point x="341.987" y="50.3238" type="curve" smooth="yes"/>
      <point x="319.325" y="50.3238"/>
      <point x="299.619" y="59.1915"/>
      <point x="289.766" y="72.0004" type="curve"/>
      <point x="280.899" y="85.7946"/>
      <point x="279.913" y="90.7211"/>
      <point x="279.913" y="138.016" type="curve" smooth="yes"/>
    </contour>
  </outline>
</glyph>
<glyph name="F" format="2">
  <advance width="629"/>
  <unicode hex="0046"/>
  <outline>
    <contour>
      <point x="48" y="680" type="line"/>
      <point x="48" y="628" type="line"/>
      <point x="99" y="627" type="line" smooth="yes"/>
      <point x="124" y="626"/>
      <point x="128" y="622"/>
      <point x="128" y="582" type="curve" smooth="yes"/>
      <point x="128" y="97" type="line" smooth="yes"/>
      <point x="128" y="57"/>
      <point x="124" y="54"/>
      <point x="99" y="53" type="curve" smooth="yes"/>
      <point x="48" y="52" type="line"/>
      <point x="48" y="0" type="line"/>
      <point x="373" y="0" type="line"/>
      <point x="373" y="52" type="line"/>
      <point x="300" y="53" type="line" smooth="yes"/>
      <point x="281" y="53"/>
      <point x="273" y="58"/>
      <point x="273" y="97" type="curve" smooth="yes"/>
      <point x="273" y="316" type="line"/>
      <point x="325" y="316" type="line" smooth="yes"/>
      <point x="369" y="316"/>
      <point x="394" y="266"/>
      <point x="402" y="177" type="curve"/>
      <point x="458" y="177" type="line"/>
      <point x="458" y="509" type="line"/>
      <point x="402" y="509" type="line"/>
      <point x="394" y="421"/>
      <point x="372" y="372"/>
      <point x="325" y="372" type="curve" smooth="yes"/>
      <point x="273" y="372" type="line"/>
      <point x="273" y="592" type="line" smooth="yes"/>
      <point x="273" y="628"/>
      <point x="303" y="628"/>
      <point x="323" y="628" type="curve" smooth="yes"/>
      <point x="371" y="628" type="line" smooth="yes"/>
      <point x="484" y="628"/>
      <point x="519" y="568"/>
      <point x="536" y="442" type="curve"/>
      <point x="603" y="442" type="line"/>
      <point x="603" y="680" type="line"/>
    </contour>
  </outline>
</glyph>
<glyph name="G" format="2">
  <advance width="722"/>
  <unicode hex="0047"/>
  <outline>
    <contour>
      <point x="601.96" y="272" type="line" smooth="yes"/>
      <point x="601.96" y="317"/>
      <point x="606" y="322"/>
      <point x="637.31" y="322" type="curve" smooth="yes"/>
      <point x="692.86" y="322" type="line"/>
      <point x="692.86" y="358" type="line"/>
      <point x="384.81" y="358" type="line"/>
      <point x="384.81" y="322" type="line"/>
      <point x="440.36" y="322" type="line" smooth="yes"/>
      <point x="471.67" y="322"/>
      <point x="475.71" y="317"/>
      <point x="475.71" y="272" type="curve" smooth="yes"/>
      <point x="475.71" y="187" type="line" smooth="yes"/>
      <point x="475.71" y="73"/>
      <point x="413.09" y="27"/>
      <point x="359.56" y="27" type="curve" smooth="yes"/>
      <point x="272.7" y="27"/>
      <point x="196.95" y="90"/>
      <point x="196.95" y="343" type="curve" smooth="yes"/>
      <point x="196.95" y="590"/>
      <point x="268.66" y="656"/>
      <point x="350.47" y="656" type="curve" smooth="yes"/>
      <point x="420.16" y="656"/>
      <point x="495.91" y="609"/>
      <point x="523.18" y="436" type="curve"/>
      <point x="593.88" y="436" type="line"/>
      <point x="593.88" y="692" type="line"/>
      <point x="530.25" y="692" type="line"/>
      <point x="522.17" y="677" type="line"/>
      <point x="500.96" y="647" type="line"/>
      <point x="465.61" y="664" type="line" smooth="yes"/>
      <point x="425.21" y="684"/>
      <point x="396.93" y="692"/>
      <point x="352.49" y="692" type="curve" smooth="yes"/>
      <point x="158.57" y="692"/>
      <point x="48.48" y="535"/>
      <point x="48.48" y="342" type="curve" smooth="yes"/>
      <point x="48.48" y="146"/>
      <point x="161.6" y="-12"/>
      <point x="339.36" y="-12" type="curve" smooth="yes"/>
      <point x="395.92" y="-12"/>
      <point x="446.42" y="4"/>
      <point x="485.81" y="37" type="curve"/>
      <point x="509.04" y="56" type="line" smooth="yes"/>
      <point x="510.05" y="57"/>
      <point x="511.06" y="57"/>
      <point x="511.06" y="57" type="curve"/>
      <point x="542.37" y="-12" type="line"/>
      <point x="601.96" y="-12" type="line"/>
    </contour>
  </outline>
</glyph>
<glyph name="H" format="2">
  <advance width="753"/>
  <unicode hex="0048"/>
  <outline>
    <contour>
      <point x="633.636" y="581.401" type="line" smooth="yes"/>
      <point x="633.636" y="620.813"/>
      <point x="637.577" y="625.739"/>
      <point x="664.18" y="625.739" type="curve" smooth="yes"/>
      <point x="713.445" y="625.739" type="line"/>
      <point x="713.445" y="679.931" type="line"/>
      <point x="413.914" y="679.931" type="line"/>
      <point x="413.914" y="625.739" type="line"/>
      <point x="459.238" y="625.739" type="line" smooth="yes"/>
      <point x="485.841" y="625.739"/>
      <point x="488.797" y="620.813"/>
      <point x="488.797" y="581.401" type="curve" smooth="yes"/>
      <point x="488.797" y="372.517" type="line"/>
      <point x="273.016" y="372.517" type="line"/>
      <point x="273.016" y="581.401" type="line" smooth="yes"/>
      <point x="273.016" y="620.813"/>
      <point x="275.972" y="625.739"/>
      <point x="302.575" y="625.739" type="curve" smooth="yes"/>
      <point x="346.914" y="625.739" type="line"/>
      <point x="346.914" y="679.931" type="line"/>
      <point x="48.3679" y="679.931" type="line"/>
      <point x="48.3679" y="625.739" type="line"/>
      <point x="98.6182" y="625.739" type="line" smooth="yes"/>
      <point x="125.221" y="625.739"/>
      <point x="128.177" y="620.813"/>
      <point x="128.177" y="581.401" type="curve" smooth="yes"/>
      <point x="128.177" y="98.6035" type="line" smooth="yes"/>
      <point x="128.177" y="59.1915"/>
      <point x="125.221" y="54.265"/>
      <point x="98.6182" y="54.265" type="curve" smooth="yes"/>
      <point x="48.3679" y="54.265" type="line"/>
      <point x="48.3679" y="0.0735" type="line"/>
      <point x="346.914" y="0.0735" type="line"/>
      <point x="346.914" y="54.265" type="line"/>
      <point x="302.575" y="54.265" type="line" smooth="yes"/>
      <point x="275.972" y="54.265"/>
      <point x="273.016" y="59.1915"/>
      <point x="273.016" y="98.6035" type="curve" smooth="yes"/>
      <point x="273.016" y="314.384" type="line"/>
      <point x="488.797" y="314.384" type="line"/>
      <point x="488.797" y="98.6035" type="line" smooth="yes"/>
      <point x="488.797" y="59.1915"/>
      <point x="485.841" y="54.265"/>
      <point x="459.238" y="54.265" type="curve" smooth="yes"/>
      <point x="413.914" y="54.265" type="line"/>
      <point x="413.914" y="0.0735" type="line"/>
      <point x="713.445" y="0.0735" type="line"/>
      <point x="713.445" y="54.265" type="line"/>
      <point x="664.18" y="54.265" type="line" smooth="yes"/>
      <point x="637.577" y="54.265"/>
      <point x="633.636" y="59.1915"/>
      <point x="633.636" y="98.6035" type="curve" smooth="yes"/>
    </contour>
  </outline>
</glyph>
<glyph name="I" format="2">
  <advance width="425"/>
  <unicode hex="0049"/>
  <outline>
    <contour>
      <point x="276" y="595" type="line" smooth="yes"/>
      <point x="276" y="640"/>
      <point x="280" y="645"/>
      <point x="311" y="645" type="curve" smooth="yes"/>
      <point x="357" y="645" type="line"/>
      <point x="357" y="680" type="line"/>
      <point x="69" y="680" type="line"/>
      <point x="69" y="645" type="line"/>
      <point x="114" y="645" type="line" smooth="yes"/>
      <point x="145" y="645"/>
      <point x="149" y="640"/>
      <point x="149" y="595" type="curve" smooth="yes"/>
      <point x="149" y="85" type="line" smooth="yes"/>
      <point x="149" y="40"/>
      <point x="145" y="35"/>
      <point x="114" y="35" type="curve" smooth="yes"/>
      <point x="59" y="35" type="line"/>
      <point x="59" y="0" type="line"/>
      <point x="367" y="0" type="line"/>
      <point x="367" y="35" type="line"/>
      <point x="311" y="35" type="line" smooth="yes"/>
      <point x="280" y="35"/>
      <point x="276" y="49"/>
      <point x="276" y="85" type="curve" smooth="yes"/>
    </contour>
  </outline>
</glyph>
<glyph name="J" format="2">
  <advance width="515"/>
  <unicode hex="004A"/>
  <anchor x="329" y="716" name="t.asciicircum_1"/>
  <outline>
    <contour>
      <point x="486.826" y="635.592" type="curve"/>
      <point x="486.826" y="679.931" type="line"/>
      <point x="172.516" y="679.931" type="line"/>
      <point x="172.516" y="635.592" type="line"/>
      <point x="190.251" y="635.592"/>
      <point x="208.972" y="635.592"/>
      <point x="226.707" y="635.592" type="curve" smooth="yes"/>
      <point x="248.384" y="635.592"/>
      <point x="258.237" y="620.813"/>
      <point x="258.237" y="581.401" type="curve" smooth="yes"/>
      <point x="258.237" y="54.265" type="line" smooth="yes"/>
      <point x="258.237" y="16.8236"/>
      <point x="256.266" y="-38.3532"/>
      <point x="210.942" y="-38.3532" type="curve" smooth="yes"/>
      <point x="188.281" y="-38.3532"/>
      <point x="141.971" y="-32.4414"/>
      <point x="141.971" y="-6.8236" type="curve" smooth="yes"/>
      <point x="141.971" y="28.6472"/>
      <point x="196.163" y="7.9559"/>
      <point x="196.163" y="75.9416" type="curve" smooth="yes"/>
      <point x="196.163" y="115.354"/>
      <point x="153.795" y="134.074"/>
      <point x="120.295" y="134.074" type="curve" smooth="yes"/>
      <point x="75.9563" y="134.074"/>
      <point x="40.4855" y="103.53"/>
      <point x="40.4855" y="58.2062" type="curve" smooth="yes"/>
      <point x="40.4855" y="-19.6325"/>
      <point x="142.957" y="-76.7799"/>
      <point x="210.942" y="-76.7799" type="curve" smooth="yes"/>
      <point x="320.311" y="-76.7799"/>
      <point x="403.076" y="-3.8677"/>
      <point x="403.076" y="107.471" type="curve" smooth="yes"/>
      <point x="403.076" y="581.401" type="line" smooth="yes"/>
      <point x="403.076" y="620.813"/>
      <point x="412.929" y="635.592"/>
      <point x="433.62" y="635.592" type="curve" smooth="yes"/>
      <point x="451.356" y="635.592"/>
      <point x="469.091" y="635.592"/>
    </contour>
  </outline>
</glyph>
<glyph name="K" format="2">
  <advance width="763"/>
  <unicode hex="004B"/>
  <outline>
    <contour>
      <point x="274.002" y="96.6329" type="curve" smooth="yes"/>
      <point x="274.002" y="261.178" type="line"/>
      <point x="316.37" y="313.399" type="line"/>
      <point x="474.018" y="96.6329" type="line" smooth="yes"/>
      <point x="480.915" y="87.7652"/>
      <point x="494.709" y="67.0739"/>
      <point x="494.709" y="56.2356" type="curve" smooth="yes"/>
      <point x="494.709" y="36.5296"/>
      <point x="436.576" y="44.412"/>
      <point x="424.753" y="44.412" type="curve"/>
      <point x="424.753" y="0.0735" type="line"/>
      <point x="740.049" y="0.0735" type="line"/>
      <point x="740.049" y="44.412" type="line"/>
      <point x="674.033" y="44.412"/>
      <point x="682.901" y="53.2797"/>
      <point x="645.46" y="104.515" type="curve" smooth="yes"/>
      <point x="411.944" y="423.753" type="line"/>
      <point x="567.621" y="609.974" type="line" smooth="yes"/>
      <point x="594.224" y="641.504"/>
      <point x="668.122" y="635.592"/>
      <point x="713.445" y="635.592" type="curve"/>
      <point x="713.445" y="679.931" type="line"/>
      <point x="418.841" y="679.931" type="line"/>
      <point x="418.841" y="635.592" type="line"/>
      <point x="429.679" y="635.592"/>
      <point x="500.621" y="643.474"/>
      <point x="500.621" y="608.004" type="curve" smooth="yes"/>
      <point x="500.621" y="606.033"/>
      <point x="495.694" y="599.136"/>
      <point x="487.812" y="589.283" type="curve" smooth="yes"/>
      <point x="444.459" y="534.106"/>
      <point x="302.575" y="374.488"/>
      <point x="274.002" y="340.002" type="curve"/>
      <point x="274.002" y="581.401" type="line" smooth="yes"/>
      <point x="274.002" y="641.504"/>
      <point x="295.678" y="635.592"/>
      <point x="352.826" y="635.592" type="curve"/>
      <point x="352.826" y="679.931" type="line"/>
      <point x="59.2062" y="679.931" type="line"/>
      <point x="59.2062" y="635.592" type="line"/>
      <point x="112.412" y="635.592"/>
      <point x="128.177" y="638.548"/>
      <point x="128.177" y="581.401" type="curve" smooth="yes"/>
      <point x="128.177" y="96.6329" type="line" smooth="yes"/>
      <point x="128.177" y="37.5149"/>
      <point x="103.545" y="44.412"/>
      <point x="48.3679" y="44.412" type="curve"/>
      <point x="48.3679" y="0.0735" type="line"/>
      <point x="352.826" y="0.0735" type="line"/>
      <point x="352.826" y="44.412" type="line"/>
      <point x="296.664" y="44.412"/>
      <point x="274.002" y="37.5149"/>
    </contour>
  </outline>
</glyph>
<glyph name="L" format="2">
  <advance width="610"/>
  <unicode hex="004C"/>
  <anchor x="208" y="730" name="t.asciicircum_1"/>
  <outline>
    <contour>
      <point x="48.3679" y="0.0735" type="line"/>
      <point x="583.386" y="0.0735" type="line"/>
      <point x="583.386" y="275.958" type="line"/>
      <point x="516.385" y="275.958" type="line"/>
      <point x="483.871" y="98.6035"/>
      <point x="450.37" y="55.2503"/>
      <point x="340.017" y="55.2503" type="curve" smooth="yes"/>
      <point x="311.443" y="55.2503" type="line" smooth="yes"/>
      <point x="292.722" y="55.2503"/>
      <point x="273.016" y="70.0298"/>
      <point x="273.016" y="97.6182" type="curve" smooth="yes"/>
      <point x="273.016" y="581.401" type="line" smooth="yes"/>
      <point x="273.016" y="620.813"/>
      <point x="275.972" y="625.739"/>
      <point x="302.575" y="625.739" type="curve" smooth="yes"/>
      <point x="361.693" y="625.739" type="line"/>
      <point x="361.693" y="679.931" type="line"/>
      <point x="59.2062" y="679.931" type="line"/>
      <point x="59.2062" y="625.739" type="line"/>
      <point x="98.6182" y="625.739" type="line" smooth="yes"/>
      <point x="125.221" y="625.739"/>
      <point x="128.177" y="620.813"/>
      <point x="128.177" y="581.401" type="curve" smooth="yes"/>
      <point x="128.177" y="98.6035" type="line" smooth="yes"/>
      <point x="128.177" y="59.1915"/>
      <point x="124.236" y="56.2356"/>
      <point x="98.6182" y="55.2503" type="curve" smooth="yes"/>
      <point x="48.3679" y="54.265" type="line"/>
    </contour>
  </outline>
</glyph>
<glyph name="M" format="2">
  <advance width="818"/>
  <unicode hex="004D"/>
  <outline>
    <contour>
      <point x="215.02" y="575.489" type="line"/>
      <point x="205.069" y="574.503" type="line"/>
      <point x="362.295" y="0.0735" type="line"/>
      <point x="421.006" y="0.0735" type="line"/>
      <point x="569.276" y="489.768" type="line"/>
      <point x="569.276" y="88.7505" type="line" smooth="yes"/>
      <point x="569.276" y="54.265"/>
      <point x="561.315" y="54.265"/>
      <point x="541.413" y="53.2797" type="curve" smooth="yes"/>
      <point x="511.56" y="51.3091" type="line"/>
      <point x="511.56" y="0.0735" type="line"/>
      <point x="783.222" y="0.0735" type="line"/>
      <point x="783.222" y="52.2944" type="line"/>
      <point x="743.418" y="53.2797" type="line" smooth="yes"/>
      <point x="720.531" y="54.265"/>
      <point x="713.565" y="54.265"/>
      <point x="713.565" y="68.0592" type="curve" smooth="yes"/>
      <point x="713.565" y="610.96" type="line" smooth="yes"/>
      <point x="713.565" y="624.754"/>
      <point x="727.497" y="624.754"/>
      <point x="743.418" y="625.739" type="curve" smooth="yes"/>
      <point x="773.271" y="626.724" type="line"/>
      <point x="773.271" y="679.931" type="line"/>
      <point x="561.315" y="679.931" type="line"/>
      <point x="436.927" y="282.855" type="line"/>
      <point x="324.481" y="679.931" type="line"/>
      <point x="53.8138" y="679.931" type="line"/>
      <point x="53.8138" y="627.71" type="line"/>
      <point x="126.456" y="627.71"/>
      <point x="133.422" y="620.813"/>
      <point x="133.422" y="556.768" type="curve" smooth="yes"/>
      <point x="133.422" y="97.6182" type="line" smooth="yes"/>
      <point x="133.422" y="59.1915"/>
      <point x="124.466" y="53.2797"/>
      <point x="104.564" y="53.2797" type="curve" smooth="yes"/>
      <point x="43.8628" y="52.2944" type="line"/>
      <point x="43.8628" y="0.0735" type="line"/>
      <point x="282.687" y="0.0735" type="line"/>
      <point x="282.687" y="53.2797" type="line"/>
      <point x="244.873" y="54.265" type="line" smooth="yes"/>
      <point x="217.01" y="55.2503"/>
      <point x="215.02" y="64.118"/>
      <point x="215.02" y="84.8093" type="curve" smooth="yes"/>
    </contour>
  </outline>
</glyph>
<glyph name="N" format="2">
  <advance width="763"/>
  <unicode hex="004E"/>
  <outline>
    <contour>
      <point x="647.43" y="583.371" type="line" smooth="yes"/>
      <point x="647.43" y="622.783"/>
      <point x="652.357" y="625.739"/>
      <point x="677.975" y="626.724" type="curve" smooth="yes"/>
      <point x="737.093" y="627.71" type="line"/>
      <point x="737.093" y="679.931" type="line"/>
      <point x="475.988" y="679.931" type="line"/>
      <point x="475.988" y="627.71" type="line"/>
      <point x="535.106" y="626.724" type="line" smooth="yes"/>
      <point x="562.695" y="625.739"/>
      <point x="567.621" y="622.783"/>
      <point x="567.621" y="583.371" type="curve" smooth="yes"/>
      <point x="567.621" y="237.531" type="line"/>
      <point x="267.105" y="679.931" type="line"/>
      <point x="59.2062" y="679.931" type="line"/>
      <point x="59.2062" y="627.71" type="line"/>
      <point x="103.545" y="626.724" type="line" smooth="yes"/>
      <point x="136.06" y="625.739"/>
      <point x="147.883" y="611.945"/>
      <point x="147.883" y="556.768" type="curve" smooth="yes"/>
      <point x="147.883" y="96.6329" type="line" smooth="yes"/>
      <point x="147.883" y="57.2209"/>
      <point x="144.927" y="53.2797"/>
      <point x="118.324" y="53.2797" type="curve" smooth="yes"/>
      <point x="48.3679" y="52.2944" type="line"/>
      <point x="48.3679" y="0.0735" type="line"/>
      <point x="327.208" y="0.0735" type="line"/>
      <point x="327.208" y="52.2944" type="line"/>
      <point x="258.237" y="53.2797" type="line" smooth="yes"/>
      <point x="231.634" y="53.2797"/>
      <point x="227.693" y="57.2209"/>
      <point x="227.693" y="96.6329" type="curve" smooth="yes"/>
      <point x="227.693" y="474.003" type="line"/>
      <point x="557.768" y="-11.7501" type="line"/>
      <point x="647.43" y="-11.7501" type="line"/>
    </contour>
  </outline>
</glyph>
<glyph name="P" format="2">
  <advance width="626"/>
  <unicode hex="0050"/>
  <outline>
    <contour>
      <point x="283" y="97" type="curve" smooth="yes"/>
      <point x="283" y="319" type="line"/>
      <point x="338" y="319" type="line" smooth="yes"/>
      <point x="506" y="319"/>
      <point x="593" y="390"/>
      <point x="593" y="502" type="curve" smooth="yes"/>
      <point x="593" y="613"/>
      <point x="506" y="680"/>
      <point x="338" y="680" type="curve" smooth="yes"/>
      <point x="48" y="680" type="line"/>
      <point x="48" y="628" type="line"/>
      <point x="108" y="628" type="line" smooth="yes"/>
      <point x="135" y="628"/>
      <point x="138" y="623"/>
      <point x="138" y="583" type="curve" smooth="yes"/>
      <point x="138" y="97" type="line" smooth="yes"/>
      <point x="138" y="61"/>
      <point x="134" y="55"/>
      <point x="108" y="54" type="curve" smooth="yes"/>
      <point x="48" y="52" type="line"/>
      <point x="48" y="0" type="line"/>
      <point x="382" y="0" type="line"/>
      <point x="382" y="52" type="line"/>
      <point x="312" y="54" type="line" smooth="yes"/>
      <point x="288" y="55"/>
      <point x="283" y="62"/>
    </contour>
    <contour>
      <point x="283" y="372" type="line"/>
      <point x="283" y="574" type="line" smooth="yes"/>
      <point x="283" y="621"/>
      <point x="306" y="627"/>
      <point x="328" y="627" type="curve" smooth="yes"/>
      <point x="391" y="627"/>
      <point x="435" y="596"/>
      <point x="435" y="502" type="curve" smooth="yes"/>
      <point x="435" y="407"/>
      <point x="407" y="372"/>
      <point x="328" y="372" type="curve" smooth="yes"/>
    </contour>
  </outline>
</glyph>
<glyph name="Q" format="2">
  <advance width="684"/>
  <unicode hex="0051"/>
  <outline>
    <contour>
      <point x="114" y="-133" type="line"/>
      <point x="153" y="-66"/>
      <point x="184" y="-36"/>
      <point x="209" y="-36" type="curve" smooth="yes"/>
      <point x="229" y="-36"/>
      <point x="256" y="-54"/>
      <point x="287" y="-87" type="curve" smooth="yes"/>
      <point x="337" y="-138"/>
      <point x="402" y="-179"/>
      <point x="470" y="-179" type="curve" smooth="yes"/>
      <point x="538" y="-179"/>
      <point x="602" y="-138"/>
      <point x="644" y="-30" type="curve"/>
      <point x="600" y="0" type="line"/>
      <point x="556" y="-64"/>
      <point x="522" y="-91"/>
      <point x="497" y="-91" type="curve" smooth="yes"/>
      <point x="466" y="-91"/>
      <point x="423" y="-56"/>
      <point x="373" y="-12" type="curve"/>
      <point x="551" y="-8"/>
      <point x="650" y="149"/>
      <point x="650" y="340" type="curve" smooth="yes"/>
      <point x="650" y="535"/>
      <point x="542" y="692"/>
      <point x="350" y="692" type="curve" smooth="yes"/>
      <point x="160" y="692"/>
      <point x="48" y="535"/>
      <point x="48" y="342" type="curve" smooth="yes"/>
      <point x="48" y="212"/>
      <point x="102" y="95"/>
      <point x="193" y="33" type="curve"/>
      <point x="126" y="11"/>
      <point x="96" y="-47"/>
      <point x="64" y="-107" type="curve"/>
    </contour>
    <contour>
      <point x="208" y="340" type="curve" smooth="yes"/>
      <point x="208" y="582"/>
      <point x="273" y="641"/>
      <point x="350" y="641" type="curve" smooth="yes"/>
      <point x="428" y="641"/>
      <point x="491" y="582"/>
      <point x="491" y="340" type="curve" smooth="yes"/>
      <point x="491" y="98"/>
      <point x="428" y="39"/>
      <point x="350" y="39" type="curve" smooth="yes"/>
      <point x="273" y="39"/>
      <point x="208" y="98"/>
    </contour>
  </outline>
</glyph>
<glyph name="R" format="2">
  <advance width="737"/>
  <unicode hex="0052"/>
  <outline>
    <contour>
      <point x="274.751" y="96.6329" type="curve" smooth="yes"/>
      <point x="274.751" y="346.899" type="line"/>
      <point x="332.466" y="346.899" type="line" smooth="yes"/>
      <point x="418.045" y="346.899"/>
      <point x="429.986" y="294.678"/>
      <point x="433.967" y="178.413" type="curve" smooth="yes"/>
      <point x="437.947" y="53.2797"/>
      <point x="478.746" y="-11.7501"/>
      <point x="578.256" y="-11.7501" type="curve" smooth="yes"/>
      <point x="691.697" y="-11.7501"/>
      <point x="716.575" y="61.1621"/>
      <point x="716.575" y="151.81" type="curve" smooth="yes"/>
      <point x="716.575" y="158.707"/>
      <point x="715.58" y="171.516"/>
      <point x="715.58" y="179.398" type="curve"/>
      <point x="675.776" y="179.398" type="line"/>
      <point x="675.776" y="122.251"/>
      <point x="662.84" y="53.2797"/>
      <point x="612.089" y="53.2797" type="curve" smooth="yes"/>
      <point x="577.261" y="53.2797"/>
      <point x="574.276" y="98.6035"/>
      <point x="574.276" y="142.942" type="curve" smooth="yes"/>
      <point x="574.276" y="231.619"/>
      <point x="530.491" y="322.267"/>
      <point x="447.898" y="358.723" type="curve"/>
      <point x="536.462" y="378.429"/>
      <point x="593.183" y="442.473"/>
      <point x="593.183" y="517.356" type="curve" smooth="yes"/>
      <point x="593.183" y="617.857"/>
      <point x="505.614" y="679.931"/>
      <point x="338.437" y="679.931" type="curve" smooth="yes"/>
      <point x="48.8628" y="679.931" type="line"/>
      <point x="48.8628" y="637.563" type="line"/>
      <point x="98.6178" y="637.563" type="line" smooth="yes"/>
      <point x="125.486" y="637.563"/>
      <point x="128.471" y="622.783"/>
      <point x="128.471" y="583.371" type="curve" smooth="yes"/>
      <point x="128.471" y="96.6329" type="line" smooth="yes"/>
      <point x="128.471" y="57.2209"/>
      <point x="125.486" y="42.4414"/>
      <point x="98.6178" y="42.4414" type="curve" smooth="yes"/>
      <point x="48.8628" y="42.4414" type="line"/>
      <point x="48.8628" y="0.0735" type="line"/>
      <point x="372.27" y="0.0735" type="line"/>
      <point x="372.27" y="42.4414" type="line"/>
      <point x="304.604" y="42.4414" type="line" smooth="yes"/>
      <point x="277.736" y="42.4414"/>
      <point x="274.751" y="57.2209"/>
    </contour>
    <contour>
      <point x="328.486" y="385.326" type="curve" smooth="yes"/>
      <point x="274.751" y="385.326" type="line"/>
      <point x="274.751" y="586.327" type="line" smooth="yes"/>
      <point x="274.751" y="624.754"/>
      <point x="277.736" y="636.577"/>
      <point x="321.52" y="636.577" type="curve" smooth="yes"/>
      <point x="328.486" y="636.577" type="line" smooth="yes"/>
      <point x="396.153" y="636.577"/>
      <point x="434.962" y="601.107"/>
      <point x="434.962" y="511.444" type="curve" smooth="yes"/>
      <point x="434.962" y="421.782"/>
      <point x="396.153" y="385.326"/>
    </contour>
  </outline>
</glyph>
<glyph name="S" format="2">
  <advance width="656"/>
  <unicode hex="0053"/>
  <outline>
    <contour>
      <point x="349.388" y="24.706" type="curve" smooth="yes"/>
      <point x="254.853" y="24.706"/>
      <point x="132.456" y="102.545"/>
      <point x="112.554" y="292.708" type="curve"/>
      <point x="68.7697" y="292.708" type="line"/>
      <point x="68.7697" y="-11.7501" type="line"/>
      <point x="110.564" y="-11.7501" type="line"/>
      <point x="113.549" y="-4.853"/>
      <point x="128.476" y="54.265"/>
      <point x="132.456" y="54.265" type="curve" smooth="yes"/>
      <point x="137.432" y="54.265"/>
      <point x="164.299" y="37.5149"/>
      <point x="174.25" y="31.6031" type="curve" smooth="yes"/>
      <point x="226.991" y="1.0588"/>
      <point x="290.677" y="-11.7501"/>
      <point x="350.383" y="-11.7501" type="curve" smooth="yes"/>
      <point x="504.624" y="-11.7501"/>
      <point x="611.099" y="76.9269"/>
      <point x="611.099" y="197.134" type="curve" smooth="yes"/>
      <point x="611.099" y="350.84"/>
      <point x="457.854" y="404.047"/>
      <point x="332.471" y="447.4" type="curve" smooth="yes"/>
      <point x="246.893" y="475.973"/>
      <point x="204.103" y="500.606"/>
      <point x="204.103" y="556.768" type="curve" smooth="yes"/>
      <point x="204.103" y="609.974"/>
      <point x="243.907" y="655.298"/>
      <point x="307.594" y="655.298" type="curve" smooth="yes"/>
      <point x="370.285" y="655.298"/>
      <point x="499.648" y="609.974"/>
      <point x="526.516" y="439.517" type="curve"/>
      <point x="572.29" y="439.517" type="line"/>
      <point x="572.29" y="691.754" type="line"/>
      <point x="533.481" y="691.754" type="line"/>
      <point x="524.526" y="674.019" type="line"/>
      <point x="513.579" y="655.298"/>
      <point x="502.633" y="646.43"/>
      <point x="491.687" y="646.43" type="curve" smooth="yes"/>
      <point x="485.717" y="646.43"/>
      <point x="466.81" y="651.357"/>
      <point x="453.873" y="657.269" type="curve" smooth="yes"/>
      <point x="421.035" y="673.033"/>
      <point x="371.28" y="691.754"/>
      <point x="307.594" y="691.754" type="curve" smooth="yes"/>
      <point x="164.299" y="691.754"/>
      <point x="71.755" y="605.048"/>
      <point x="71.755" y="509.474" type="curve" smooth="yes"/>
      <point x="71.755" y="415.87"/>
      <point x="159.324" y="346.899"/>
      <point x="261.819" y="312.414" type="curve" smooth="yes"/>
      <point x="353.368" y="281.869" type="line" smooth="yes"/>
      <point x="436.957" y="253.296"/>
      <point x="486.712" y="218.81"/>
      <point x="486.712" y="148.854" type="curve" smooth="yes"/>
      <point x="486.712" y="98.6035"/>
      <point x="441.932" y="24.706"/>
    </contour>
  </outline>
</glyph>
<glyph name="T" format="2">
  <advance width="673"/>
  <unicode hex="0054"/>
  <outline>
    <contour>
      <point x="449.888" y="637.563" type="curve" smooth="yes"/>
      <point x="462.824" y="637.563" type="line" smooth="yes"/>
      <point x="541.437" y="637.563"/>
      <point x="562.334" y="555.783"/>
      <point x="591.192" y="429.664" type="curve"/>
      <point x="636.967" y="429.664" type="line"/>
      <point x="636.967" y="679.931" type="line"/>
      <point x="51.8481" y="679.931" type="line"/>
      <point x="51.8481" y="429.664" type="line"/>
      <point x="97.6227" y="429.664" type="line"/>
      <point x="126.481" y="555.783"/>
      <point x="147.378" y="637.563"/>
      <point x="225.991" y="637.563" type="curve" smooth="yes"/>
      <point x="238.927" y="637.563" type="line" smooth="yes"/>
      <point x="259.824" y="637.563"/>
      <point x="269.775" y="613.915"/>
      <point x="269.775" y="583.371" type="curve" smooth="yes"/>
      <point x="269.775" y="96.6329" type="line" smooth="yes"/>
      <point x="269.775" y="66.0886"/>
      <point x="259.824" y="44.412"/>
      <point x="239.922" y="43.4267" type="curve"/>
      <point x="188.177" y="42.4414" type="line"/>
      <point x="188.177" y="0.0735" type="line"/>
      <point x="501.633" y="0.0735" type="line"/>
      <point x="501.633" y="42.4414" type="line"/>
      <point x="449.888" y="43.4267" type="line"/>
      <point x="429.986" y="44.412"/>
      <point x="420.035" y="66.0886"/>
      <point x="420.035" y="96.6329" type="curve" smooth="yes"/>
      <point x="420.035" y="583.371" type="line" smooth="yes"/>
      <point x="420.035" y="613.915"/>
      <point x="428.991" y="637.563"/>
    </contour>
  </outline>
</glyph>
<glyph name="U" format="2">
  <advance width="727"/>
  <unicode hex="0055"/>
  <anchor x="396" y="750" name="t.dieresis"/>
  <anchor x="396" y="730" name="t.asciicircum_1"/>
  <outline>
    <contour>
      <point x="603.092" y="592.239" type="line" smooth="yes"/>
      <point x="603.092" y="619.827"/>
      <point x="615.901" y="637.563"/>
      <point x="642.504" y="637.563" type="curve" smooth="yes"/>
      <point x="702.607" y="638.548" type="line"/>
      <point x="702.607" y="679.931" type="line"/>
      <point x="432.635" y="679.931" type="line"/>
      <point x="432.635" y="637.563" type="line"/>
      <point x="482.885" y="637.563" type="line" smooth="yes"/>
      <point x="500.621" y="637.563"/>
      <point x="547.915" y="623.768"/>
      <point x="547.915" y="592.239" type="curve" smooth="yes"/>
      <point x="547.915" y="245.413" type="line" smooth="yes"/>
      <point x="547.915" y="130.133"/>
      <point x="506.532" y="25.6913"/>
      <point x="392.238" y="25.6913" type="curve" smooth="yes"/>
      <point x="290.752" y="25.6913"/>
      <point x="273.016" y="94.6623"/>
      <point x="273.016" y="278.913" type="curve" smooth="yes"/>
      <point x="273.016" y="592.239" type="line" smooth="yes"/>
      <point x="273.016" y="620.813"/>
      <point x="284.84" y="637.563"/>
      <point x="312.428" y="637.563" type="curve" smooth="yes"/>
      <point x="360.708" y="637.563" type="line"/>
      <point x="360.708" y="679.931" type="line"/>
      <point x="48.3679" y="679.931" type="line"/>
      <point x="48.3679" y="637.563" type="line"/>
      <point x="84.824" y="637.563" type="line" smooth="yes"/>
      <point x="112.412" y="637.563"/>
      <point x="124.236" y="620.813"/>
      <point x="124.236" y="592.239" type="curve" smooth="yes"/>
      <point x="124.236" y="270.046" type="line" smooth="yes"/>
      <point x="124.236" y="69.0445"/>
      <point x="214.884" y="-11.7501"/>
      <point x="367.605" y="-11.7501" type="curve" smooth="yes"/>
      <point x="557.768" y="-11.7501"/>
      <point x="603.092" y="118.31"/>
      <point x="603.092" y="258.222" type="curve" smooth="yes"/>
    </contour>
  </outline>
</glyph>
<glyph name="V" format="2">
  <advance width="750"/>
  <unicode hex="0056"/>
  <anchor x="417" y="750" name="t.dieresis"/>
  <anchor x="417" y="720" name="t.asciicircum_1"/>
  <outline>
    <contour>
      <point x="406" y="189" type="line"/>
      <point x="556" y="570" type="line" smooth="yes"/>
      <point x="562" y="584"/>
      <point x="566" y="597"/>
      <point x="566" y="607" type="curve" smooth="yes"/>
      <point x="566" y="626"/>
      <point x="552" y="626"/>
      <point x="527" y="627" type="curve" smooth="yes"/>
      <point x="466" y="628" type="line"/>
      <point x="466" y="680" type="line"/>
      <point x="726" y="680" type="line"/>
      <point x="726" y="628" type="line"/>
      <point x="685" y="627" type="line" smooth="yes"/>
      <point x="651" y="626"/>
      <point x="639" y="616"/>
      <point x="621" y="571" type="curve" smooth="yes"/>
      <point x="388" y="-12" type="line"/>
      <point x="321" y="-12" type="line"/>
      <point x="113" y="561" type="line" smooth="yes"/>
      <point x="91" y="625"/>
      <point x="84" y="625"/>
      <point x="52" y="627" type="curve" smooth="yes"/>
      <point x="28" y="628" type="line"/>
      <point x="28" y="680" type="line"/>
      <point x="344" y="680" type="line"/>
      <point x="344" y="628" type="line"/>
      <point x="291" y="627" type="line"/>
      <point x="271" y="627"/>
      <point x="262" y="625"/>
      <point x="262" y="606" type="curve" smooth="yes"/>
      <point x="262" y="593"/>
      <point x="266" y="578"/>
      <point x="273" y="561" type="curve" smooth="yes"/>
    </contour>
  </outline>
</glyph>
<glyph name="W" format="2">
  <advance width="973"/>
  <unicode hex="0057"/>
  <outline>
    <contour>
      <point x="20.7795" y="637.563" type="line"/>
      <point x="51.3238" y="636.577" type="line" smooth="yes"/>
      <point x="84.824" y="635.592"/>
      <point x="90.7358" y="625.739"/>
      <point x="110.442" y="562.68" type="curve" smooth="yes"/>
      <point x="291.737" y="-11.7501" type="line"/>
      <point x="358.737" y="-11.7501" type="line"/>
      <point x="495.694" y="370.546" type="line"/>
      <point x="617.871" y="-11.7501" type="line"/>
      <point x="650.386" y="-11.7501" type="line"/>
      <point x="831.681" y="556.768" type="line" smooth="yes"/>
      <point x="851.387" y="619.827"/>
      <point x="876.02" y="635.592"/>
      <point x="901.638" y="636.577" type="curve" smooth="yes"/>
      <point x="951.888" y="637.563" type="line"/>
      <point x="951.888" y="679.931" type="line"/>
      <point x="703.592" y="679.931" type="line"/>
      <point x="703.592" y="637.563" type="line"/>
      <point x="748.916" y="637.563" type="line" smooth="yes"/>
      <point x="772.563" y="637.563"/>
      <point x="787.343" y="625.739"/>
      <point x="787.343" y="612.93" type="curve" smooth="yes"/>
      <point x="787.343" y="602.092"/>
      <point x="778.475" y="574.503"/>
      <point x="775.519" y="564.65" type="curve" smooth="yes"/>
      <point x="681.916" y="269.06" type="line"/>
      <point x="584.371" y="577.459" type="line" smooth="yes"/>
      <point x="577.474" y="601.107"/>
      <point x="567.621" y="635.592"/>
      <point x="607.033" y="636.577" type="curve" smooth="yes"/>
      <point x="639.548" y="637.563" type="line"/>
      <point x="639.548" y="679.931" type="line"/>
      <point x="366.62" y="679.931" type="line"/>
      <point x="366.62" y="637.563" type="line"/>
      <point x="397.164" y="637.563" type="line" smooth="yes"/>
      <point x="408.988" y="637.563"/>
      <point x="414.9" y="618.842"/>
      <point x="427.708" y="576.474" type="curve" smooth="yes"/>
      <point x="466.135" y="456.267" type="line"/>
      <point x="376.473" y="206.001" type="line"/>
      <point x="267.105" y="555.783" type="line" smooth="yes"/>
      <point x="259.222" y="581.401"/>
      <point x="253.31" y="602.092"/>
      <point x="253.31" y="610.96" type="curve" smooth="yes"/>
      <point x="253.31" y="622.783"/>
      <point x="265.134" y="635.592"/>
      <point x="285.825" y="636.577" type="curve" smooth="yes"/>
      <point x="316.37" y="637.563" type="line"/>
      <point x="316.37" y="679.931" type="line"/>
      <point x="20.7795" y="679.931" type="line"/>
    </contour>
  </outline>
</glyph>
<glyph name="X" format="2">
  <advance width="724"/>
  <unicode hex="0058"/>
  <outline>
    <contour>
      <point x="290" y="35" type="line"/>
      <point x="289" y="35"/>
      <point x="287" y="34"/>
      <point x="285" y="34" type="curve" smooth="yes"/>
      <point x="282" y="34" type="line" smooth="yes"/>
      <point x="280" y="34"/>
      <point x="278" y="33"/>
      <point x="276" y="33" type="curve" smooth="yes"/>
      <point x="241" y="33" type="line" smooth="yes"/>
      <point x="216" y="33"/>
      <point x="191" y="36"/>
      <point x="191" y="54" type="curve" smooth="yes"/>
      <point x="191" y="85"/>
      <point x="268" y="190"/>
      <point x="312" y="249" type="curve" smooth="yes"/>
      <point x="336" y="282" type="line"/>
      <point x="447" y="108" type="line" smooth="yes"/>
      <point x="457" y="93"/>
      <point x="467" y="76"/>
      <point x="467" y="61" type="curve" smooth="yes"/>
      <point x="467" y="37"/>
      <point x="441" y="34"/>
      <point x="418" y="34" type="curve" smooth="yes"/>
      <point x="401" y="34" type="line" smooth="yes"/>
      <point x="398" y="34"/>
      <point x="396" y="35"/>
      <point x="394" y="35" type="curve" smooth="yes"/>
      <point x="389" y="35" type="line"/>
      <point x="389" y="0" type="line"/>
      <point x="714" y="0" type="line"/>
      <point x="714" y="35" type="line"/>
      <point x="669" y="35" type="line" smooth="yes"/>
      <point x="636" y="35"/>
      <point x="627" y="48"/>
      <point x="610" y="74" type="curve" smooth="yes"/>
      <point x="600" y="88" type="line" smooth="yes"/>
      <point x="413" y="380" type="line"/>
      <point x="412" y="380" type="line"/>
      <point x="560" y="588" type="line" smooth="yes"/>
      <point x="598" y="642"/>
      <point x="605" y="645"/>
      <point x="653" y="645" type="curve" smooth="yes"/>
      <point x="680" y="645" type="line"/>
      <point x="680" y="680" type="line"/>
      <point x="419" y="680" type="line"/>
      <point x="419" y="645" type="line"/>
      <point x="451" y="645" type="line" smooth="yes"/>
      <point x="478" y="645"/>
      <point x="510" y="643"/>
      <point x="510" y="627" type="curve" smooth="yes"/>
      <point x="510" y="604"/>
      <point x="443" y="512"/>
      <point x="406" y="462" type="curve" smooth="yes"/>
      <point x="387" y="436" type="line"/>
      <point x="384" y="441"/>
      <point x="376" y="451"/>
      <point x="371" y="456" type="curve" smooth="yes"/>
      <point x="362" y="469" type="line" smooth="yes"/>
      <point x="361" y="470"/>
      <point x="361" y="472"/>
      <point x="360" y="473" type="curve" smooth="yes"/>
      <point x="360" y="474"/>
      <point x="355" y="478"/>
      <point x="351" y="484" type="curve" smooth="yes"/>
      <point x="314" y="532"/>
      <point x="266" y="595"/>
      <point x="266" y="624" type="curve" smooth="yes"/>
      <point x="266" y="627"/>
      <point x="266" y="629"/>
      <point x="267" y="631" type="curve" smooth="yes"/>
      <point x="273" y="643"/>
      <point x="296" y="645"/>
      <point x="317" y="645" type="curve" smooth="yes"/>
      <point x="350" y="645" type="line"/>
      <point x="350" y="680" type="line"/>
      <point x="45" y="680" type="line"/>
      <point x="45" y="645" type="line"/>
      <point x="87" y="645" type="line" smooth="yes"/>
      <point x="114" y="645"/>
      <point x="128" y="624"/>
      <point x="141" y="603" type="curve" smooth="yes"/>
      <point x="310" y="339" type="line"/>
      <point x="311" y="339" type="line"/>
      <point x="137" y="93" type="line" smooth="yes"/>
      <point x="99" y="39"/>
      <point x="93" y="35"/>
      <point x="46" y="35" type="curve" smooth="yes"/>
      <point x="15" y="35" type="line"/>
      <point x="15" y="0" type="line"/>
      <point x="290" y="0" type="line"/>
    </contour>
  </outline>
</glyph>
<glyph name="Y" format="2">
  <advance width="700"/>
  <unicode hex="0059"/>
  <anchor x="385" y="750" name="t.dieresis"/>
  <anchor x="385" y="730" name="t.asciicircum_1"/>
  <outline>
    <contour>
      <point x="282.711" y="97.6182" type="line" smooth="yes"/>
      <point x="282.711" y="58.2062"/>
      <point x="267.785" y="43.4267"/>
      <point x="242.907" y="43.4267" type="curve" smooth="yes"/>
      <point x="229.971" y="43.4267"/>
      <point x="218.03" y="43.4267"/>
      <point x="205.094" y="43.4267" type="curve"/>
      <point x="205.094" y="0.0735" type="line"/>
      <point x="505.614" y="0.0735" type="line"/>
      <point x="505.614" y="43.4267" type="line"/>
      <point x="492.677" y="43.4267"/>
      <point x="480.736" y="43.4267"/>
      <point x="467.8" y="43.4267" type="curve" smooth="yes"/>
      <point x="442.922" y="43.4267"/>
      <point x="427.996" y="58.2062"/>
      <point x="427.996" y="97.6182" type="curve" smooth="yes"/>
      <point x="427.996" y="354.782" type="line"/>
      <point x="561.339" y="590.268" type="line" smooth="yes"/>
      <point x="584.227" y="630.666"/>
      <point x="592.187" y="637.563"/>
      <point x="637.962" y="637.563" type="curve" smooth="yes"/>
      <point x="643.933" y="637.563"/>
      <point x="648.908" y="637.563"/>
      <point x="655.874" y="637.563" type="curve" smooth="yes"/>
      <point x="672.791" y="637.563" type="line"/>
      <point x="672.791" y="679.931" type="line"/>
      <point x="441.927" y="679.931" type="line"/>
      <point x="441.927" y="638.548" type="line"/>
      <point x="452.873" y="638.548" type="line" smooth="yes"/>
      <point x="456.854" y="638.548"/>
      <point x="463.82" y="638.548"/>
      <point x="469.79" y="638.548" type="curve" smooth="yes"/>
      <point x="489.692" y="638.548"/>
      <point x="513.575" y="637.563"/>
      <point x="513.575" y="630.666" type="curve" smooth="yes"/>
      <point x="513.575" y="629.68"/>
      <point x="514.57" y="619.827"/>
      <point x="513.575" y="617.857" type="curve" smooth="yes"/>
      <point x="401.128" y="417.841" type="line"/>
      <point x="296.643" y="604.062" type="line" smooth="yes"/>
      <point x="293.657" y="608.989"/>
      <point x="292.662" y="613.915"/>
      <point x="292.662" y="616.871" type="curve" smooth="yes"/>
      <point x="292.662" y="626.724"/>
      <point x="310.574" y="637.563"/>
      <point x="323.51" y="637.563" type="curve" smooth="yes"/>
      <point x="325.501" y="637.563"/>
      <point x="332.466" y="637.563"/>
      <point x="334.457" y="637.563" type="curve"/>
      <point x="334.457" y="679.931" type="line"/>
      <point x="29.9559" y="679.931" type="line"/>
      <point x="29.9559" y="637.563" type="line"/>
      <point x="43.8873" y="636.577"/>
      <point x="60.804" y="636.577"/>
      <point x="70.755" y="636.577" type="curve" smooth="yes"/>
      <point x="104.588" y="636.577"/>
      <point x="122.5" y="625.739"/>
      <point x="138.422" y="597.165" type="curve" smooth="yes"/>
      <point x="282.711" y="335.076" type="line"/>
    </contour>
  </outline>
</glyph>
<glyph name="Z" format="2">
  <advance width="639"/>
  <unicode hex="005A"/>
  <outline>
    <contour>
      <point x="581.168" y="0.0735" type="line"/>
      <point x="581.168" y="283.84" type="line"/>
      <point x="516.486" y="283.84" type="line"/>
      <point x="487.628" y="164.619"/>
      <point x="453.795" y="52.2944"/>
      <point x="344.334" y="52.2944" type="curve" smooth="yes"/>
      <point x="257.76" y="52.2944" type="line" smooth="yes"/>
      <point x="243.829" y="52.2944"/>
      <point x="230.893" y="54.265"/>
      <point x="229.898" y="58.2062" type="curve"/>
      <point x="229.898" y="59.1915" type="line"/>
      <point x="231.888" y="65.1033"/>
      <point x="234.873" y="70.0298"/>
      <point x="238.853" y="75.9416" type="curve"/>
      <point x="239.849" y="79.8828" type="line"/>
      <point x="558.281" y="631.651" type="line"/>
      <point x="558.281" y="679.931" type="line"/>
      <point x="86.6031" y="679.931" type="line"/>
      <point x="77.6472" y="435.576" type="line"/>
      <point x="146.309" y="435.576" type="line"/>
      <point x="181.138" y="570.562"/>
      <point x="213.976" y="626.724"/>
      <point x="324.432" y="626.724" type="curve" smooth="yes"/>
      <point x="373.192" y="626.724" type="line" smooth="yes"/>
      <point x="378.167" y="626.724"/>
      <point x="383.143" y="623.768"/>
      <point x="383.143" y="613.915" type="curve" smooth="yes"/>
      <point x="383.143" y="610.96"/>
      <point x="379.163" y="604.062"/>
      <point x="376.177" y="600.121" type="curve"/>
      <point x="58.7403" y="47.3679" type="line"/>
      <point x="58.7403" y="0.0735" type="line"/>
    </contour>
  </outline>
</glyph>
<glyph name="bracketleft" format="2">
  <advance width="288"/>
  <unicode hex="005B"/>
  <outline>
    <contour>
      <point x="125" y="656" type="line" smooth="yes"/>
      <point x="125" y="691"/>
      <point x="136" y="705"/>
      <point x="160" y="705" type="curve" smooth="yes"/>
      <point x="268" y="705" type="line"/>
      <point x="268" y="740" type="line"/>
      <point x="25" y="740" type="line"/>
      <point x="25" y="-179" type="line"/>
      <point x="268" y="-179" type="line"/>
      <point x="268" y="-144" type="line"/>
      <point x="160" y="-144" type="line" smooth="yes"/>
      <point x="136" y="-144"/>
      <point x="125" y="-130"/>
      <point x="125" y="-95" type="curve" smooth="yes"/>
    </contour>
  </outline>
</glyph>
<glyph name="backslash" format="2">
  <advance width="354"/>
  <unicode hex="005C"/>
  <outline>
    <contour>
      <point x="42" y="754" type="line"/>
      <point x="-35" y="754" type="line"/>
      <point x="312" y="-123" type="line"/>
      <point x="389" y="-123" type="line"/>
    </contour>
  </outline>
</glyph>
<glyph name="grave" format="2">
  <advance width="212"/>
  <unicode hex="0060"/>
  <anchor x="106" y="530" name="_t.asciicircum_1"/>
  <outline>
    <contour>
      <point x="133" y="706" type="curve"/>
      <point x="-8" y="706" type="line"/>
      <point x="-14" y="689" type="line"/>
      <point x="27" y="649"/>
      <point x="145" y="561"/>
      <point x="214" y="522" type="curve"/>
      <point x="225" y="551" type="line"/>
      <point x="193" y="590"/>
      <point x="151" y="659"/>
    </contour>
  </outline>
</glyph>
<glyph name="a" format="2">
  <advance width="594"/>
  <unicode hex="0061"/>
  <anchor x="305" y="541" name="t.dieresis"/>
  <anchor x="305" y="519" name="t.asciicircum_1"/>
  <outline>
    <contour>
      <point x="221.872" y="30.4775" type="line"/>
      <point x="173.55" y="30.4775" type="line" smooth="yes"/>
      <point x="152.705" y="30.4775"/>
      <point x="141.335" y="33.32"/>
      <point x="141.335" y="47.5325" type="curve" smooth="yes"/>
      <point x="141.335" y="55.1125"/>
      <point x="144.177" y="63.64"/>
      <point x="149.862" y="74.0625" type="curve"/>
      <point x="184.92" y="153.652" type="line"/>
      <point x="358.312" y="153.652" type="line"/>
      <point x="388.632" y="80.695" type="line" smooth="yes"/>
      <point x="393.37" y="70.2725"/>
      <point x="395.265" y="58.9025"/>
      <point x="395.265" y="50.375" type="curve" smooth="yes"/>
      <point x="395.265" y="34.2675"/>
      <point x="383.895" y="30.4775"/>
      <point x="365.892" y="30.4775" type="curve" smooth="yes"/>
      <point x="325.15" y="30.4775" type="line"/>
      <point x="325.15" y="0.1575" type="line"/>
      <point x="580.975" y="0.1575" type="line"/>
      <point x="580.975" y="30.4775" type="line"/>
      <point x="554.445" y="30.4775" type="line" smooth="yes"/>
      <point x="526.967" y="30.4775"/>
      <point x="522.23" y="32.3725"/>
      <point x="503.28" y="79.7475" type="curve" smooth="yes"/>
      <point x="330.835" y="497.595" type="line"/>
      <point x="291.04" y="497.595" type="line"/>
      <point x="100.592" y="72.1675" type="line" smooth="yes"/>
      <point x="83.5375" y="32.3725"/>
      <point x="74.0625" y="30.4775"/>
      <point x="46.585" y="30.4775" type="curve" smooth="yes"/>
      <point x="13.4225" y="30.4775" type="line"/>
      <point x="13.4225" y="0.1575" type="line"/>
      <point x="221.872" y="0.1575" type="line"/>
    </contour>
    <contour>
      <point x="199.132" y="184.92" type="line"/>
      <point x="275.88" y="362.102" type="line"/>
      <point x="348.837" y="179.235" type="line"/>
      <point x="362.102" y="179.235" type="line"/>
      <point x="362.102" y="184.92" type="line"/>
    </contour>
  </outline>
</glyph>
<glyph name="b" format="2">
  <advance width="529"/>
  <unicode hex="0062"/>
  <outline>
    <contour>
      <point x="376" y="265" type="line"/>
      <point x="438" y="285"/>
      <point x="475" y="327"/>
      <point x="475" y="368" type="curve" smooth="yes"/>
      <point x="475" y="445"/>
      <point x="405" y="489"/>
      <point x="270" y="489" type="curve" smooth="yes"/>
      <point x="44" y="489" type="line"/>
      <point x="44" y="458" type="line"/>
      <point x="83" y="458" type="line" smooth="yes"/>
      <point x="106" y="458"/>
      <point x="109" y="455"/>
      <point x="109" y="426" type="curve" smooth="yes"/>
      <point x="109" y="63" type="line" smooth="yes"/>
      <point x="109" y="35"/>
      <point x="106" y="31"/>
      <point x="83" y="31" type="curve" smooth="yes"/>
      <point x="44" y="31" type="line"/>
      <point x="44" y="0" type="line"/>
      <point x="278" y="0" type="line" smooth="yes"/>
      <point x="420" y="0"/>
      <point x="510" y="48" name=".hr01"/>
      <point x="510" y="134" type="curve" smooth="yes"/>
      <point x="510" y="200"/>
      <point x="449" y="252"/>
      <point x="364" y="267" type="curve"/>
    </contour>
    <contour>
      <point x="263" y="278" type="curve" smooth="yes"/>
      <point x="216" y="278" type="line"/>
      <point x="216" y="432" type="line" smooth="yes"/>
      <point x="216" y="453"/>
      <point x="245" y="458"/>
      <point x="257" y="458" type="curve" smooth="yes"/>
      <point x="263" y="458" type="line" smooth="yes"/>
      <point x="319" y="458"/>
      <point x="358" y="434"/>
      <point x="358" y="368" type="curve" smooth="yes"/>
      <point x="358" y="303"/>
      <point x="319" y="278"/>
    </contour>
    <contour>
      <point x="261" y="32" type="line" smooth="yes"/>
      <point x="249" y="32"/>
      <point x="216" y="37"/>
      <point x="216" y="56" type="curve" smooth="yes"/>
      <point x="216" y="253" type="line"/>
      <point x="200" y="253" type="line"/>
      <point x="200" y="247" type="line"/>
      <point x="270" y="247" type="line" smooth="yes"/>
      <point x="343" y="247"/>
      <point x="391" y="214"/>
      <point x="391" y="139" type="curve" smooth="yes"/>
      <point x="391" y="61"/>
      <point x="343" y="32"/>
      <point x="270" y="32" type="curve" smooth="yes"/>
    </contour>
  </outline>
</glyph>
<glyph name="c" format="2">
  <advance width="519"/>
  <unicode hex="0063"/>
  <anchor x="285" y="527" name="t.asciicircum_1"/>
  <anchor x="285" y="541" name="t.dieresis"/>
  <outline>
    <contour>
      <point x="482.071" y="149.807" type="line"/>
      <point x="435.016" y="156.529" type="line"/>
      <point x="421.572" y="73.9431"/>
      <point x="364.914" y="22.0869"/>
      <point x="290.971" y="22.0869" type="curve" smooth="yes"/>
      <point x="224.71" y="22.0869"/>
      <point x="161.33" y="65.3004"/>
      <point x="161.33" y="248.718" type="curve" smooth="yes"/>
      <point x="161.33" y="425.413"/>
      <point x="218.948" y="472.468"/>
      <point x="286.169" y="472.468" type="curve" smooth="yes"/>
      <point x="342.827" y="472.468"/>
      <point x="405.247" y="438.857"/>
      <point x="427.334" y="314.018" type="curve"/>
      <point x="484.952" y="314.018" type="line"/>
      <point x="484.952" y="498.396" type="line"/>
      <point x="433.095" y="498.396" type="line"/>
      <point x="426.373" y="488.793" type="line" smooth="yes"/>
      <point x="416.77" y="475.349"/>
      <point x="411.969" y="467.666"/>
      <point x="408.128" y="467.666" type="curve" smooth="yes"/>
      <point x="405.247" y="467.666"/>
      <point x="394.683" y="471.507"/>
      <point x="374.517" y="480.15" type="curve" smooth="yes"/>
      <point x="358.192" y="488.793"/>
      <point x="335.145" y="498.396"/>
      <point x="288.09" y="498.396" type="curve" smooth="yes"/>
      <point x="131.561" y="498.396"/>
      <point x="39.3723" y="385.08"/>
      <point x="39.3723" y="241.035" type="curve" smooth="yes"/>
      <point x="39.3723" y="87.3873"/>
      <point x="145.966" y="-8.6427"/>
      <point x="283.289" y="-8.6427" type="curve" smooth="yes"/>
      <point x="387.961" y="-8.6427"/>
      <point x="474.388" y="45.1341"/>
      <point x="490.713" y="149.807" type="curve"/>
    </contour>
  </outline>
</glyph>
<glyph name="d" format="2">
  <advance width="571"/>
  <unicode hex="0064"/>
  <anchor x="276" y="551" name="t.dieresis"/>
  <anchor x="276" y="537" name="t.asciicircum_1"/>
  <outline>
    <contour>
      <point x="41" y="0" type="line"/>
      <point x="266" y="0" type="line" smooth="yes"/>
      <point x="456" y="0"/>
      <point x="543" y="117"/>
      <point x="543" y="249" type="curve" smooth="yes"/>
      <point x="543" y="382"/>
      <point x="456" y="498"/>
      <point x="266" y="498" type="curve" smooth="yes"/>
      <point x="41" y="498" type="line"/>
      <point x="41" y="467" type="line"/>
      <point x="71" y="467" type="line" smooth="yes"/>
      <point x="91" y="467"/>
      <point x="94" y="464"/>
      <point x="94" y="434" type="curve" smooth="yes"/>
      <point x="94" y="64" type="line" smooth="yes"/>
      <point x="94" y="35"/>
      <point x="91" y="31"/>
      <point x="71" y="31" type="curve" smooth="yes"/>
      <point x="41" y="31" type="line"/>
    </contour>
    <contour>
      <point x="252" y="32" type="line" smooth="yes"/>
      <point x="221" y="32"/>
      <point x="211" y="37"/>
      <point x="211" y="59" type="curve" smooth="yes"/>
      <point x="211" y="441" type="line" smooth="yes"/>
      <point x="211" y="461"/>
      <point x="221" y="466"/>
      <point x="252" y="466" type="curve" smooth="yes"/>
      <point x="258" y="466" type="line" smooth="yes"/>
      <point x="359" y="466"/>
      <point x="411" y="406"/>
      <point x="411" y="249" type="curve" smooth="yes"/>
      <point x="411" y="92"/>
      <point x="359" y="32"/>
      <point x="258" y="32" type="curve" smooth="yes"/>
    </contour>
  </outline>
</glyph>
<glyph name="e" format="2">
  <advance width="544"/>
  <unicode hex="0065"/>
  <anchor x="289" y="551" name="t.dieresis"/>
  <anchor x="289" y="537" name="t.asciicircum_1"/>
  <outline>
    <contour>
      <point x="41" y="0" type="line"/>
      <point x="473" y="0" type="line"/>
      <point x="477" y="208" type="line"/>
      <point x="447" y="208" type="line"/>
      <point x="429" y="121"/>
      <point x="414" y="32"/>
      <point x="298" y="32" type="curve" smooth="yes"/>
      <point x="238" y="32" type="line" smooth="yes"/>
      <point x="227" y="32"/>
      <point x="215" y="45"/>
      <point x="215" y="60" type="curve" smooth="yes"/>
      <point x="215" y="240" type="line"/>
      <point x="248" y="240" type="line" smooth="yes"/>
      <point x="281" y="240"/>
      <point x="303" y="192"/>
      <point x="310" y="127" type="curve"/>
      <point x="342" y="127" type="line"/>
      <point x="342" y="377" type="line"/>
      <point x="310" y="377" type="line"/>
      <point x="303" y="312"/>
      <point x="284" y="265"/>
      <point x="248" y="265" type="curve" smooth="yes"/>
      <point x="215" y="265" type="line"/>
      <point x="215" y="441" type="line"/>
      <point x="216" y="457"/>
      <point x="233" y="466"/>
      <point x="249" y="466" type="curve" smooth="yes"/>
      <point x="300" y="466" type="line" smooth="yes"/>
      <point x="393" y="466"/>
      <point x="416" y="414"/>
      <point x="439" y="322" type="curve"/>
      <point x="473" y="322" type="line"/>
      <point x="469" y="498" type="line"/>
      <point x="41" y="498" type="line"/>
      <point x="41" y="467" type="line"/>
      <point x="71" y="467" type="line" smooth="yes"/>
      <point x="91" y="467"/>
      <point x="94" y="464"/>
      <point x="94" y="434" type="curve" smooth="yes"/>
      <point x="94" y="64" type="line" smooth="yes"/>
      <point x="94" y="35"/>
      <point x="91" y="31"/>
      <point x="71" y="31" type="curve" smooth="yes"/>
      <point x="41" y="31" type="line"/>
    </contour>
  </outline>
</glyph>
<glyph name="f" format="2">
  <advance width="511"/>
  <unicode hex="0066"/>
  <outline>
    <contour>
      <point x="302" y="458" type="line" smooth="yes"/>
      <point x="396" y="458"/>
      <point x="423" y="410"/>
      <point x="437" y="320" type="curve"/>
      <point x="490" y="320" type="line"/>
      <point x="490" y="489" type="line"/>
      <point x="40" y="489" type="line"/>
      <point x="40" y="458" type="line"/>
      <point x="79" y="458" type="line" smooth="yes"/>
      <point x="101" y="458"/>
      <point x="105" y="455"/>
      <point x="105" y="426" type="curve" smooth="yes"/>
      <point x="105" y="63" type="line" smooth="yes"/>
      <point x="105" y="35"/>
      <point x="101" y="31"/>
      <point x="79" y="31" type="curve" smooth="yes"/>
      <point x="40" y="31" type="line"/>
      <point x="40" y="0" type="line"/>
      <point x="302" y="0" type="line"/>
      <point x="302" y="31" type="line"/>
      <point x="238" y="31" type="line" smooth="yes"/>
      <point x="215" y="31"/>
      <point x="212" y="35"/>
      <point x="212" y="63" type="curve" smooth="yes"/>
      <point x="212" y="239" type="line"/>
      <point x="196" y="239" type="line"/>
      <point x="196" y="233" type="line"/>
      <point x="256" y="233" type="line" smooth="yes"/>
      <point x="292" y="233"/>
      <point x="315" y="192"/>
      <point x="322" y="128" type="curve"/>
      <point x="372" y="128" type="line"/>
      <point x="372" y="366" type="line"/>
      <point x="322" y="366" type="line"/>
      <point x="315" y="303"/>
      <point x="294" y="263"/>
      <point x="256" y="263" type="curve" smooth="yes"/>
      <point x="212" y="263" type="line"/>
      <point x="212" y="432" type="line" smooth="yes"/>
      <point x="212" y="447"/>
      <point x="233" y="458"/>
      <point x="249" y="458" type="curve" smooth="yes"/>
    </contour>
  </outline>
</glyph>
<glyph name="g" format="2">
  <advance width="588"/>
  <unicode hex="0067"/>
  <anchor x="291" y="560" name="t.dieresis"/>
  <anchor x="291" y="545" name="t.asciicircum_1"/>
  <outline>
    <contour>
      <point x="490.962" y="196.29" type="line" smooth="yes"/>
      <point x="490.962" y="225.662"/>
      <point x="493.805" y="229.452"/>
      <point x="516.545" y="229.452" type="curve" smooth="yes"/>
      <point x="563.92" y="229.452" type="line"/>
      <point x="563.92" y="260.72" type="line"/>
      <point x="309.99" y="260.72" type="line"/>
      <point x="309.99" y="229.452" type="line"/>
      <point x="357.365" y="229.452" type="line" smooth="yes"/>
      <point x="380.105" y="229.452"/>
      <point x="382.947" y="225.662"/>
      <point x="382.947" y="196.29" type="curve" smooth="yes"/>
      <point x="382.947" y="135.65" type="line" smooth="yes"/>
      <point x="382.947" y="57.0075"/>
      <point x="334.625" y="24.7925"/>
      <point x="292.935" y="24.7925" type="curve" smooth="yes"/>
      <point x="224.715" y="24.7925"/>
      <point x="164.075" y="69.325"/>
      <point x="164.075" y="246.507" type="curve" smooth="yes"/>
      <point x="164.075" y="420.847"/>
      <point x="220.925" y="466.327"/>
      <point x="285.355" y="466.327" type="curve" smooth="yes"/>
      <point x="340.31" y="466.327"/>
      <point x="400.002" y="433.165"/>
      <point x="421.795" y="309.99" type="curve"/>
      <point x="484.33" y="309.99" type="line"/>
      <point x="484.33" y="497.595" type="line"/>
      <point x="428.427" y="497.595" type="line"/>
      <point x="421.795" y="486.225" type="line"/>
      <point x="405.687" y="466.327" type="line"/>
      <point x="379.157" y="477.697" type="line" smooth="yes"/>
      <point x="345.995" y="491.91"/>
      <point x="322.307" y="497.595"/>
      <point x="287.25" y="497.595" type="curve" smooth="yes"/>
      <point x="129.017" y="497.595"/>
      <point x="39.005" y="384.842"/>
      <point x="39.005" y="246.507" type="curve" smooth="yes"/>
      <point x="39.005" y="105.33"/>
      <point x="130.912" y="-8.37"/>
      <point x="275.88" y="-8.37" type="curve" smooth="yes"/>
      <point x="322.307" y="-8.37"/>
      <point x="363.05" y="3.9475"/>
      <point x="396.212" y="27.635" type="curve" smooth="yes"/>
      <point x="416.11" y="41.8475" type="line"/>
      <point x="411.372" y="42.795" type="line"/>
      <point x="437.902" y="-8.37" type="line"/>
      <point x="490.962" y="-8.37" type="line"/>
    </contour>
  </outline>
</glyph>
<glyph name="h" format="2">
  <advance width="612"/>
  <unicode hex="0068"/>
  <outline>
    <contour>
      <point x="515" y="426" type="line" smooth="yes"/>
      <point x="515" y="455"/>
      <point x="519" y="458"/>
      <point x="541" y="458" type="curve" smooth="yes"/>
      <point x="580" y="458" type="line"/>
      <point x="580" y="489" type="line"/>
      <point x="334" y="489" type="line"/>
      <point x="334" y="458" type="line"/>
      <point x="382" y="458" type="line" smooth="yes"/>
      <point x="404" y="458"/>
      <point x="407" y="455"/>
      <point x="407" y="426" type="curve" smooth="yes"/>
      <point x="407" y="262" type="line"/>
      <point x="212" y="262" type="line"/>
      <point x="212" y="426" type="line" smooth="yes"/>
      <point x="212" y="455"/>
      <point x="215" y="458"/>
      <point x="238" y="458" type="curve" smooth="yes"/>
      <point x="284" y="458" type="line"/>
      <point x="284" y="489" type="line"/>
      <point x="40" y="489" type="line"/>
      <point x="40" y="458" type="line"/>
      <point x="79" y="458" type="line" smooth="yes"/>
      <point x="101" y="458"/>
      <point x="105" y="455"/>
      <point x="105" y="426" type="curve" smooth="yes"/>
      <point x="105" y="63" type="line" smooth="yes"/>
      <point x="105" y="35"/>
      <point x="101" y="31"/>
      <point x="79" y="31" type="curve" smooth="yes"/>
      <point x="40" y="31" type="line"/>
      <point x="40" y="0" type="line"/>
      <point x="284" y="0" type="line"/>
      <point x="284" y="31" type="line"/>
      <point x="238" y="31" type="line" smooth="yes"/>
      <point x="215" y="31"/>
      <point x="212" y="35"/>
      <point x="212" y="63" type="curve" smooth="yes"/>
      <point x="212" y="232" type="line"/>
      <point x="407" y="232" type="line"/>
      <point x="407" y="63" type="line" smooth="yes"/>
      <point x="407" y="35"/>
      <point x="404" y="31"/>
      <point x="382" y="31" type="curve" smooth="yes"/>
      <point x="334" y="31" type="line"/>
      <point x="334" y="0" type="line"/>
      <point x="580" y="0" type="line"/>
      <point x="580" y="31" type="line"/>
      <point x="541" y="31" type="line" smooth="yes"/>
      <point x="519" y="31"/>
      <point x="515" y="35"/>
      <point x="515" y="63" type="curve" smooth="yes"/>
    </contour>
  </outline>
</glyph>
<glyph name="i" format="2">
  <advance width="350"/>
  <unicode hex="0069"/>
  <anchor x="177" y="555" name="t.asciicircum_1"/>
  <anchor x="177" y="569" name="t.dieresis"/>
  <outline>
    <contour>
      <point x="241" y="416" type="line" smooth="yes"/>
      <point x="241" y="429"/>
      <point x="244" y="435"/>
      <point x="252" y="435" type="curve" smooth="yes"/>
      <point x="302" y="435" type="line"/>
      <point x="302" y="486" type="line"/>
      <point x="55" y="486" type="line"/>
      <point x="55" y="435" type="line"/>
      <point x="102" y="435" type="line" smooth="yes"/>
      <point x="114" y="435"/>
      <point x="116" y="433"/>
      <point x="116" y="416" type="curve" smooth="yes"/>
      <point x="116" y="72" type="line" smooth="yes"/>
      <point x="116" y="55"/>
      <point x="114" y="53"/>
      <point x="102" y="53" type="curve" smooth="yes"/>
      <point x="47" y="53" type="line"/>
      <point x="47" y="0" type="line"/>
      <point x="310" y="0" type="line"/>
      <point x="310" y="53" type="line"/>
      <point x="252" y="53" type="line" smooth="yes"/>
      <point x="242" y="53"/>
      <point x="241" y="58"/>
      <point x="241" y="72" type="curve" smooth="yes"/>
    </contour>
  </outline>
</glyph>
<glyph name="j" format="2">
  <advance width="403"/>
  <unicode hex="006A"/>
  <outline>
    <contour>
      <point x="192" y="40" type="line" smooth="yes"/>
      <point x="192" y="-9"/>
      <point x="174" y="-31"/>
      <point x="150" y="-31" type="curve" smooth="yes"/>
      <point x="122" y="-31"/>
      <point x="103" y="-13"/>
      <point x="103" y="-2" type="curve" smooth="yes"/>
      <point x="103" y="23"/>
      <point x="131" y="18"/>
      <point x="131" y="50" type="curve" smooth="yes"/>
      <point x="131" y="79"/>
      <point x="114" y="97"/>
      <point x="79" y="97" type="curve" smooth="yes"/>
      <point x="39" y="97"/>
      <point x="12" y="73"/>
      <point x="12" y="41" type="curve" smooth="yes"/>
      <point x="12" y="-11"/>
      <point x="88" y="-56"/>
      <point x="152" y="-56" type="curve" smooth="yes"/>
      <point x="251" y="-56"/>
      <point x="318" y="6"/>
      <point x="318" y="78" type="curve" smooth="yes"/>
      <point x="318" y="434" type="line" smooth="yes"/>
      <point x="318" y="464"/>
      <point x="320" y="467"/>
      <point x="341" y="467" type="curve" smooth="yes"/>
      <point x="371" y="467" type="line"/>
      <point x="371" y="498" type="line"/>
      <point x="139" y="498" type="line"/>
      <point x="139" y="467" type="line"/>
      <point x="169" y="467" type="line" smooth="yes"/>
      <point x="190" y="467"/>
      <point x="192" y="464"/>
      <point x="192" y="434" type="curve" smooth="yes"/>
    </contour>
  </outline>
</glyph>
<glyph name="k" format="2">
  <advance width="621"/>
  <unicode hex="006B"/>
  <outline>
    <contour>
      <point x="233" y="170" type="line"/>
      <point x="261" y="199" type="line"/>
      <point x="369" y="64" type="line" smooth="yes"/>
      <point x="370" y="62"/>
      <point x="372" y="58"/>
      <point x="374" y="53" type="curve"/>
      <point x="327" y="53" type="line"/>
      <point x="327" y="0" type="line"/>
      <point x="594" y="0" type="line"/>
      <point x="594" y="53" type="line"/>
      <point x="548" y="53" type="line" smooth="yes"/>
      <point x="531" y="53"/>
      <point x="525" y="58"/>
      <point x="510" y="74" type="curve"/>
      <point x="344" y="280" type="line"/>
      <point x="458" y="395" type="line"/>
      <point x="483" y="420"/>
      <point x="521" y="434"/>
      <point x="538" y="434" type="curve" smooth="yes"/>
      <point x="574" y="434" type="line"/>
      <point x="574" y="486" type="line"/>
      <point x="329" y="486" type="line"/>
      <point x="329" y="434" type="line"/>
      <point x="371" y="434" type="line" smooth="yes"/>
      <point x="377" y="434"/>
      <point x="381" y="434"/>
      <point x="381" y="434" type="curve"/>
      <point x="387" y="434" type="line"/>
      <point x="387" y="429"/>
      <point x="378" y="419"/>
      <point x="366" y="406" type="curve" smooth="yes"/>
      <point x="233" y="272" type="line"/>
      <point x="233" y="416" type="line" smooth="yes"/>
      <point x="233" y="432"/>
      <point x="234" y="434"/>
      <point x="245" y="434" type="curve" smooth="yes"/>
      <point x="287" y="434" type="line"/>
      <point x="287" y="486" type="line"/>
      <point x="46" y="486" type="line"/>
      <point x="46" y="434" type="line"/>
      <point x="93" y="434" type="line" smooth="yes"/>
      <point x="105" y="434"/>
      <point x="106" y="432"/>
      <point x="106" y="416" type="curve" smooth="yes"/>
      <point x="106" y="70" type="line" smooth="yes"/>
      <point x="106" y="55"/>
      <point x="105" y="53"/>
      <point x="93" y="53" type="curve" smooth="yes"/>
      <point x="38" y="53" type="line"/>
      <point x="38" y="0" type="line"/>
      <point x="277" y="0" type="line"/>
      <point x="277" y="53" type="line"/>
      <point x="243" y="53" type="line" smooth="yes"/>
      <point x="234" y="53"/>
      <point x="233" y="56"/>
      <point x="233" y="70" type="curve" smooth="yes"/>
    </contour>
  </outline>
</glyph>
<glyph name="l" format="2">
  <advance width="496"/>
  <unicode hex="006C"/>
  <outline>
    <contour>
      <point x="38" y="0" type="line"/>
      <point x="472" y="0" type="line"/>
      <point x="472" y="211" type="line"/>
      <point x="402" y="211" type="line"/>
      <point x="377" y="91"/>
      <point x="343" y="54"/>
      <point x="266" y="54" type="curve" smooth="yes"/>
      <point x="244" y="54" type="line" smooth="yes"/>
      <point x="234" y="54"/>
      <point x="225" y="60"/>
      <point x="225" y="71" type="curve" smooth="yes"/>
      <point x="225" y="416" type="line" smooth="yes"/>
      <point x="225" y="432"/>
      <point x="226" y="434"/>
      <point x="237" y="434" type="curve" smooth="yes"/>
      <point x="293" y="434" type="line"/>
      <point x="293" y="486" type="line"/>
      <point x="46" y="486" type="line"/>
      <point x="46" y="434" type="line"/>
      <point x="87" y="434" type="line" smooth="yes"/>
      <point x="97" y="434"/>
      <point x="99" y="432"/>
      <point x="99" y="416" type="curve" smooth="yes"/>
      <point x="99" y="72" type="line" smooth="yes"/>
      <point x="99" y="56"/>
      <point x="97" y="53"/>
      <point x="87" y="53" type="curve" smooth="yes"/>
      <point x="38" y="53" type="line"/>
    </contour>
  </outline>
</glyph>
<glyph name="m" format="2">
  <advance width="664"/>
  <unicode hex="006D"/>
  <outline>
    <contour>
      <point x="173" y="396" type="line"/>
      <point x="296" y="11" type="line"/>
      <point x="341" y="11" type="line"/>
      <point x="465" y="359" type="line"/>
      <point x="465" y="63" type="line" smooth="yes"/>
      <point x="465" y="36"/>
      <point x="456" y="31"/>
      <point x="435" y="31" type="curve" smooth="yes"/>
      <point x="392" y="31" type="line"/>
      <point x="392" y="0" type="line"/>
      <point x="638" y="0" type="line"/>
      <point x="638" y="31" type="line"/>
      <point x="607" y="31" type="line" smooth="yes"/>
      <point x="586" y="31"/>
      <point x="572" y="33"/>
      <point x="572" y="43" type="curve" smooth="yes"/>
      <point x="572" y="446" type="line" smooth="yes"/>
      <point x="572" y="457"/>
      <point x="585" y="459"/>
      <point x="598" y="459" type="curve"/>
      <point x="622" y="458" type="line"/>
      <point x="630" y="458" type="line"/>
      <point x="630" y="489" type="line"/>
      <point x="459" y="489" type="line"/>
      <point x="355" y="199" type="line"/>
      <point x="251" y="489" type="line"/>
      <point x="44" y="489" type="line"/>
      <point x="44" y="458" type="line"/>
      <point x="104" y="458"/>
      <point x="110" y="454"/>
      <point x="110" y="407" type="curve" smooth="yes"/>
      <point x="110" y="63" type="line" smooth="yes"/>
      <point x="110" y="36"/>
      <point x="101" y="30"/>
      <point x="83" y="30" type="curve"/>
      <point x="81" y="30" type="line"/>
      <point x="65" y="31" type="line"/>
      <point x="36" y="31" type="line"/>
      <point x="36" y="0" type="line"/>
      <point x="254" y="0" type="line"/>
      <point x="254" y="31" type="line"/>
      <point x="198" y="31" type="line" smooth="yes"/>
      <point x="175" y="31"/>
      <point x="173" y="39"/>
      <point x="173" y="53" type="curve" smooth="yes"/>
    </contour>
  </outline>
</glyph>
<glyph name="n" format="2">
  <advance width="620"/>
  <unicode hex="006E"/>
  <anchor x="321" y="545" name="t.asciicircum_1"/>
  <outline>
    <contour>
      <point x="526.02" y="425.585" type="line" smooth="yes"/>
      <point x="526.02" y="454.957"/>
      <point x="529.81" y="458.747"/>
      <point x="552.55" y="458.747" type="curve" smooth="yes"/>
      <point x="598.977" y="458.747" type="line"/>
      <point x="598.977" y="489.067" type="line"/>
      <point x="388.632" y="489.067" type="line"/>
      <point x="388.632" y="458.747" type="line"/>
      <point x="435.06" y="458.747" type="line" smooth="yes"/>
      <point x="459.695" y="458.747"/>
      <point x="463.485" y="454.957"/>
      <point x="463.485" y="425.585" type="curve" smooth="yes"/>
      <point x="463.485" y="167.865" type="line"/>
      <point x="215.24" y="489.067" type="line"/>
      <point x="47.5325" y="489.067" type="line"/>
      <point x="47.5325" y="458.747" type="line"/>
      <point x="82.59" y="458.747" type="line" smooth="yes"/>
      <point x="111.015" y="458.747"/>
      <point x="120.49" y="448.325"/>
      <point x="120.49" y="406.635" type="curve" smooth="yes"/>
      <point x="120.49" y="63.64" type="line" smooth="yes"/>
      <point x="120.49" y="34.2675"/>
      <point x="116.7" y="30.4775"/>
      <point x="94.9075" y="30.4775" type="curve" smooth="yes"/>
      <point x="39.005" y="30.4775" type="line"/>
      <point x="39.005" y="0.1575" type="line"/>
      <point x="264.51" y="0.1575" type="line"/>
      <point x="264.51" y="30.4775" type="line"/>
      <point x="209.555" y="30.4775" type="line" smooth="yes"/>
      <point x="185.867" y="30.4775"/>
      <point x="183.025" y="34.2675"/>
      <point x="183.025" y="63.64" type="curve" smooth="yes"/>
      <point x="183.025" y="393.37" type="line"/>
      <point x="177.34" y="384.842" type="line"/>
      <point x="177.34" y="382.947"/>
      <point x="180.182" y="375.367"/>
      <point x="189.657" y="363.997" type="curve" smooth="yes"/>
      <point x="477.697" y="-8.37" type="line"/>
      <point x="526.02" y="-8.37" type="line"/>
    </contour>
  </outline>
</glyph>
<glyph name="o" format="2">
  <advance width="551"/>
  <unicode hex="006F"/>
  <anchor x="276" y="551" name="t.dieresis"/>
  <anchor x="276" y="537" name="t.asciicircum_1"/>
  <outline>
    <contour>
      <point x="275" y="-8" type="curve" smooth="yes"/>
      <point x="433" y="-8"/>
      <point x="522" y="108"/>
      <point x="522" y="250" type="curve" smooth="yes"/>
      <point x="522" y="394"/>
      <point x="433" y="507"/>
      <point x="275" y="507" type="curve" smooth="yes"/>
      <point x="117" y="507"/>
      <point x="28" y="394"/>
      <point x="28" y="250" type="curve" smooth="yes"/>
      <point x="28" y="108"/>
      <point x="117" y="-8"/>
    </contour>
    <contour>
      <point x="275" y="20" type="curve" smooth="yes"/>
      <point x="213" y="20"/>
      <point x="166" y="71"/>
      <point x="166" y="250" type="curve" smooth="yes"/>
      <point x="166" y="430"/>
      <point x="213" y="479"/>
      <point x="275" y="479" type="curve" smooth="yes"/>
      <point x="337" y="479"/>
      <point x="384" y="430"/>
      <point x="384" y="250" type="curve" smooth="yes"/>
      <point x="384" y="71"/>
      <point x="337" y="20"/>
    </contour>
  </outline>
</glyph>
<glyph name="p" format="2">
  <advance width="509"/>
  <unicode hex="0070"/>
  <outline>
    <contour>
      <point x="217" y="61" type="curve" smooth="yes"/>
      <point x="217" y="237" type="line"/>
      <point x="274" y="237" type="line" smooth="yes"/>
      <point x="411" y="237"/>
      <point x="482" y="284"/>
      <point x="482" y="363" type="curve" smooth="yes"/>
      <point x="482" y="443"/>
      <point x="411" y="490"/>
      <point x="274" y="490" type="curve" smooth="yes"/>
      <point x="40" y="490" type="line"/>
      <point x="40" y="464" type="line"/>
      <point x="84" y="464" type="line" smooth="yes"/>
      <point x="111" y="464"/>
      <point x="113" y="461"/>
      <point x="113" y="429" type="curve" smooth="yes"/>
      <point x="113" y="61" type="line" smooth="yes"/>
      <point x="113" y="29"/>
      <point x="111" y="25"/>
      <point x="84" y="25" type="curve" smooth="yes"/>
      <point x="40" y="25" type="line"/>
      <point x="40" y="0" type="line"/>
      <point x="307" y="0" type="line"/>
      <point x="307" y="25" type="line"/>
      <point x="246" y="25" type="line" smooth="yes"/>
      <point x="221" y="25"/>
      <point x="217" y="29"/>
    </contour>
    <contour>
      <point x="217" y="262" type="line"/>
      <point x="217" y="435" type="line" smooth="yes"/>
      <point x="217" y="458"/>
      <point x="248" y="464"/>
      <point x="261" y="464" type="curve" smooth="yes"/>
      <point x="267" y="464" type="line" smooth="yes"/>
      <point x="322" y="464"/>
      <point x="362" y="435"/>
      <point x="362" y="363" type="curve" smooth="yes"/>
      <point x="362" y="291"/>
      <point x="322" y="262"/>
      <point x="267" y="262" type="curve" smooth="yes"/>
    </contour>
  </outline>
</glyph>
<glyph name="q" format="2">
  <advance width="557"/>
  <unicode hex="0071"/>
  <outline>
    <contour>
      <point x="91" y="-96" type="line"/>
      <point x="121" y="-48"/>
      <point x="148" y="-27"/>
      <point x="169" y="-27" type="curve" smooth="yes"/>
      <point x="186" y="-27"/>
      <point x="208" y="-39"/>
      <point x="235" y="-62" type="curve"/>
      <point x="273" y="-101"/>
      <point x="329" y="-130"/>
      <point x="382" y="-130" type="curve" smooth="yes"/>
      <point x="437" y="-130"/>
      <point x="489" y="-101"/>
      <point x="525" y="-24" type="curve"/>
      <point x="488" y="-2" type="line"/>
      <point x="453" y="-47"/>
      <point x="426" y="-67"/>
      <point x="404" y="-67" type="curve" smooth="yes"/>
      <point x="378" y="-67"/>
      <point x="344" y="-42"/>
      <point x="301" y="-9" type="curve"/>
      <point x="444" y="-4"/>
      <point x="529" y="109"/>
      <point x="529" y="245" type="curve" smooth="yes"/>
      <point x="529" y="385"/>
      <point x="441" y="497"/>
      <point x="284" y="497" type="curve" smooth="yes"/>
      <point x="129" y="497"/>
      <point x="40" y="385"/>
      <point x="40" y="247" type="curve" smooth="yes"/>
      <point x="40" y="153"/>
      <point x="83" y="67"/>
      <point x="158" y="23" type="curve"/>
      <point x="104" y="7"/>
      <point x="77" y="-35"/>
      <point x="51" y="-77" type="curve"/>
    </contour>
    <contour>
      <point x="164" y="245" type="curve" smooth="yes"/>
      <point x="164" y="421"/>
      <point x="221" y="469"/>
      <point x="284" y="469" type="curve" smooth="yes"/>
      <point x="347" y="469"/>
      <point x="403" y="421"/>
      <point x="403" y="245" type="curve" smooth="yes"/>
      <point x="403" y="69"/>
      <point x="347" y="21"/>
      <point x="284" y="21" type="curve" smooth="yes"/>
      <point x="221" y="21"/>
      <point x="164" y="69"/>
    </contour>
  </outline>
</glyph>
<glyph name="s" format="2">
  <advance width="536"/>
  <unicode hex="0073"/>
  <anchor x="242" y="556" name="t.asciicircum_1"/>
  <anchor x="242" y="570" name="t.dieresis"/>
  <outline>
    <contour>
      <point x="64" y="-8" type="line"/>
      <point x="94" y="-8" type="line"/>
      <point x="103" y="4" type="line"/>
      <point x="112" y="21"/>
      <point x="120" y="35"/>
      <point x="120" y="35" type="curve"/>
      <point x="122" y="35"/>
      <point x="137" y="28"/>
      <point x="149" y="22" type="curve" smooth="yes"/>
      <point x="188" y="1"/>
      <point x="226" y="-8"/>
      <point x="275" y="-8" type="curve" smooth="yes"/>
      <point x="402" y="-8"/>
      <point x="479" y="61"/>
      <point x="479" y="145" type="curve" smooth="yes"/>
      <point x="479" y="232"/>
      <point x="409" y="279"/>
      <point x="305" y="311" type="curve" smooth="yes"/>
      <point x="247" y="329" type="line"/>
      <point x="202" y="344"/>
      <point x="165" y="374"/>
      <point x="165" y="417" type="curve" smooth="yes"/>
      <point x="165" y="452"/>
      <point x="197" y="476"/>
      <point x="244" y="476" type="curve" smooth="yes"/>
      <point x="294" y="476"/>
      <point x="377" y="459"/>
      <point x="400" y="334" type="curve"/>
      <point x="438" y="334" type="line"/>
      <point x="438" y="507" type="line"/>
      <point x="406" y="507" type="line"/>
      <point x="400" y="496" type="line" smooth="yes"/>
      <point x="393" y="483"/>
      <point x="384" y="466"/>
      <point x="384" y="466" type="curve"/>
      <point x="382" y="466"/>
      <point x="364" y="478"/>
      <point x="351" y="485" type="curve"/>
      <point x="329" y="496"/>
      <point x="291" y="507"/>
      <point x="244" y="507" type="curve" smooth="yes"/>
      <point x="123" y="507"/>
      <point x="57" y="447"/>
      <point x="57" y="372" type="curve" smooth="yes"/>
      <point x="57" y="300"/>
      <point x="120" y="263"/>
      <point x="203" y="237" type="curve" smooth="yes"/>
      <point x="228" y="230"/>
      <point x="253" y="223"/>
      <point x="277" y="216" type="curve"/>
      <point x="345" y="195"/>
      <point x="379" y="160"/>
      <point x="379" y="108" type="curve" smooth="yes"/>
      <point x="379" y="70"/>
      <point x="350" y="26"/>
      <point x="271" y="26" type="curve" smooth="yes"/>
      <point x="202" y="26"/>
      <point x="119" y="64"/>
      <point x="103" y="205" type="curve"/>
      <point x="64" y="205" type="line"/>
    </contour>
  </outline>
</glyph>
<glyph name="t" format="2">
  <advance width="548"/>
  <unicode hex="0074"/>
  <outline>
    <contour>
      <point x="361" y="464" type="curve" smooth="yes"/>
      <point x="371" y="464" type="line" smooth="yes"/>
      <point x="424" y="464"/>
      <point x="447" y="402"/>
      <point x="471" y="310" type="curve" name="hr01"/>
      <point x="519" y="310" type="line"/>
      <point x="519" y="490" type="line"/>
      <point x="43" y="490" type="line"/>
      <point x="43" y="310" type="line"/>
      <point x="89" y="310" type="line"/>
      <point x="113" y="402"/>
      <point x="138" y="464" name="hr02"/>
      <point x="189" y="464" type="curve" smooth="yes"/>
      <point x="200" y="464" type="line" smooth="yes"/>
      <point x="219" y="464"/>
      <point x="230" y="453"/>
      <point x="230" y="429" type="curve" smooth="yes"/>
      <point x="230" y="61" type="line" smooth="yes"/>
      <point x="230" y="37"/>
      <point x="220" y="25"/>
      <point x="201" y="25" type="curve" smooth="yes"/>
      <point x="155" y="25" type="line"/>
      <point x="155" y="0" type="line"/>
      <point x="406" y="0" type="line"/>
      <point x="406" y="25" type="line"/>
      <point x="361" y="25" type="line" smooth="yes"/>
      <point x="342" y="25"/>
      <point x="333" y="37"/>
      <point x="333" y="61" type="curve" smooth="yes"/>
      <point x="333" y="429" type="line" smooth="yes"/>
      <point x="333" y="453"/>
      <point x="342" y="464"/>
    </contour>
  </outline>
</glyph>
<glyph name="u" format="2">
  <advance width="592"/>
  <unicode hex="0075"/>
  <anchor x="323" y="527" name="t.asciicircum_1"/>
  <anchor x="323" y="541" name="t.dieresis"/>
  <outline>
    <contour>
      <point x="490.713" y="428.294" type="line" smooth="yes"/>
      <point x="490.713" y="460.944"/>
      <point x="493.594" y="464.785"/>
      <point x="519.522" y="464.785" type="curve" smooth="yes"/>
      <point x="573.299" y="464.785" type="line"/>
      <point x="573.299" y="489.753" type="line"/>
      <point x="357.232" y="489.753" type="line"/>
      <point x="357.232" y="464.785" type="line"/>
      <point x="411.008" y="464.785" type="line" smooth="yes"/>
      <point x="428.294" y="464.785"/>
      <point x="428.294" y="460.944"/>
      <point x="428.294" y="428.294" type="curve" smooth="yes"/>
      <point x="428.294" y="197.822" type="line" smooth="yes"/>
      <point x="428.294" y="111.395"/>
      <point x="418.691" y="22.0869"/>
      <point x="319.78" y="22.0869" type="curve" smooth="yes"/>
      <point x="232.393" y="22.0869"/>
      <point x="217.028" y="92.1888"/>
      <point x="217.028" y="207.425" type="curve" smooth="yes"/>
      <point x="217.028" y="428.294" type="line" smooth="yes"/>
      <point x="217.028" y="460.944"/>
      <point x="220.869" y="464.785"/>
      <point x="245.837" y="464.785" type="curve" smooth="yes"/>
      <point x="290.971" y="464.785" type="line"/>
      <point x="290.971" y="489.753" type="line"/>
      <point x="39.3723" y="489.753" type="line"/>
      <point x="39.3723" y="464.785" type="line"/>
      <point x="76.824" y="464.785" type="line" smooth="yes"/>
      <point x="101.792" y="464.785"/>
      <point x="105.633" y="460.944"/>
      <point x="105.633" y="428.294" type="curve" smooth="yes"/>
      <point x="105.633" y="193.981" type="line" smooth="yes"/>
      <point x="105.633" y="49.9356"/>
      <point x="175.735" y="-8.6427"/>
      <point x="287.13" y="-8.6427" type="curve" smooth="yes"/>
      <point x="428.294" y="-8.6427"/>
      <point x="490.713" y="85.4667"/>
      <point x="490.713" y="185.338" type="curve" smooth="yes"/>
    </contour>
  </outline>
</glyph>
<glyph name="v" format="2">
  <advance width="611"/>
  <unicode hex="0076"/>
  <anchor x="317" y="560" name="t.dieresis"/>
  <anchor x="317" y="538" name="t.asciicircum_1"/>
  <outline>
    <contour>
      <point x="326" y="169" type="line"/>
      <point x="431" y="409" type="line" smooth="yes"/>
      <point x="435" y="419"/>
      <point x="439" y="427"/>
      <point x="438" y="432" type="curve" smooth="yes"/>
      <point x="437" y="435"/>
      <point x="430" y="434"/>
      <point x="420" y="434" type="curve" smooth="yes"/>
      <point x="361" y="434" type="line"/>
      <point x="361" y="486" type="line"/>
      <point x="584" y="486" type="line"/>
      <point x="584" y="434" type="line"/>
      <point x="540" y="434" type="line" smooth="yes"/>
      <point x="521" y="434"/>
      <point x="514" y="433"/>
      <point x="501" y="402" type="curve" smooth="yes"/>
      <point x="319" y="-8" type="line"/>
      <point x="259" y="-8" type="line"/>
      <point x="96" y="395" type="line" smooth="yes"/>
      <point x="83" y="428"/>
      <point x="77" y="434"/>
      <point x="59" y="434" type="curve" smooth="yes"/>
      <point x="21" y="434" type="line"/>
      <point x="21" y="486" type="line"/>
      <point x="287" y="486" type="line"/>
      <point x="287" y="434" type="line"/>
      <point x="237" y="434" type="line" smooth="yes"/>
      <point x="231" y="434"/>
      <point x="223" y="432"/>
      <point x="223" y="430" type="curve" smooth="yes"/>
      <point x="223" y="422"/>
      <point x="227" y="416"/>
      <point x="232" y="405" type="curve"/>
    </contour>
  </outline>
</glyph>
<glyph name="w" format="2">
  <advance width="793"/>
  <unicode hex="0077"/>
  <anchor x="384" y="538" name="t.asciicircum_1"/>
  <anchor x="384" y="560" name="t.dieresis"/>
  <outline>
    <contour>
      <point x="16.265" y="458.747" type="line"/>
      <point x="48.48" y="458.747" type="line" smooth="yes"/>
      <point x="75.9575" y="458.747"/>
      <point x="81.6425" y="456.852"/>
      <point x="97.75" y="411.372" type="curve" smooth="yes"/>
      <point x="249.35" y="-8.37" type="line"/>
      <point x="297.672" y="-8.37" type="line"/>
      <point x="406.635" y="262.615" type="line"/>
      <point x="504.227" y="-8.37" type="line"/>
      <point x="523.177" y="-8.37" type="line"/>
      <point x="520.335" y="-5.5275" type="line"/>
      <point x="520.335" y="-9.3175" type="line"/>
      <point x="536.442" y="-9.3175" type="line"/>
      <point x="685.2" y="407.582" type="line"/>
      <point x="702.255" y="452.115"/>
      <point x="713.625" y="458.747"/>
      <point x="735.417" y="458.747" type="curve" smooth="yes"/>
      <point x="775.212" y="458.747" type="line"/>
      <point x="775.212" y="489.067" type="line"/>
      <point x="556.34" y="489.067" type="line"/>
      <point x="556.34" y="458.747" type="line"/>
      <point x="610.347" y="458.747" type="line" smooth="yes"/>
      <point x="632.14" y="458.747"/>
      <point x="641.615" y="455.905"/>
      <point x="641.615" y="442.64" type="curve" smooth="yes"/>
      <point x="641.615" y="436.007"/>
      <point x="640.667" y="427.48"/>
      <point x="634.982" y="412.32" type="curve" smooth="yes"/>
      <point x="549.707" y="175.445" type="line"/>
      <point x="460.642" y="421.795" type="line" smooth="yes"/>
      <point x="457.8" y="429.375"/>
      <point x="455.905" y="435.06"/>
      <point x="455.905" y="441.692" type="curve" smooth="yes"/>
      <point x="455.905" y="454.957"/>
      <point x="464.432" y="458.747"/>
      <point x="482.435" y="458.747" type="curve" smooth="yes"/>
      <point x="524.125" y="458.747" type="line"/>
      <point x="524.125" y="489.067" type="line"/>
      <point x="296.725" y="489.067" type="line"/>
      <point x="296.725" y="458.747" type="line"/>
      <point x="322.307" y="458.747" type="line" smooth="yes"/>
      <point x="330.835" y="458.747"/>
      <point x="340.31" y="438.85"/>
      <point x="345.995" y="421.795" type="curve"/>
      <point x="380.105" y="328.94" type="line"/>
      <point x="306.2" y="145.125" type="line"/>
      <point x="213.345" y="405.687" type="line" smooth="yes"/>
      <point x="206.712" y="423.69"/>
      <point x="201.975" y="439.797"/>
      <point x="201.975" y="445.482" type="curve" smooth="yes"/>
      <point x="201.975" y="455.905"/>
      <point x="211.45" y="458.747"/>
      <point x="230.4" y="458.747" type="curve" smooth="yes"/>
      <point x="267.352" y="458.747" type="line"/>
      <point x="267.352" y="489.067" type="line"/>
      <point x="16.265" y="489.067" type="line"/>
    </contour>
  </outline>
</glyph>
<glyph name="x" format="2">
  <advance width="589"/>
  <unicode hex="0078"/>
  <outline>
    <contour>
      <point x="232" y="50" type="line"/>
      <point x="174" y="49" type="line"/>
      <point x="175" y="66"/>
      <point x="218" y="118"/>
      <point x="246" y="152" type="curve" smooth="yes"/>
      <point x="255" y="163"/>
      <point x="266" y="176"/>
      <point x="270" y="181" type="curve"/>
      <point x="278" y="169"/>
      <point x="290" y="155"/>
      <point x="299" y="143" type="curve" smooth="yes"/>
      <point x="319" y="116"/>
      <point x="342" y="87"/>
      <point x="357" y="55" type="curve"/>
      <point x="343" y="51"/>
      <point x="330" y="51"/>
      <point x="319" y="51" type="curve"/>
      <point x="314" y="50"/>
      <point x="313" y="50"/>
      <point x="308" y="50" type="curve"/>
      <point x="308" y="0" type="line"/>
      <point x="574" y="0" type="line"/>
      <point x="574" y="53" type="line"/>
      <point x="562" y="53"/>
      <point x="553" y="52"/>
      <point x="540" y="52" type="curve" smooth="yes"/>
      <point x="522" y="52"/>
      <point x="505" y="55"/>
      <point x="492" y="73" type="curve" smooth="yes"/>
      <point x="348" y="270" type="line"/>
      <point x="453" y="401" type="line" smooth="yes"/>
      <point x="479" y="433"/>
      <point x="487" y="435"/>
      <point x="527" y="435" type="curve"/>
      <point x="533" y="434"/>
      <point x="539" y="434"/>
      <point x="548" y="434" type="curve"/>
      <point x="548" y="486" type="line"/>
      <point x="340" y="486" type="line"/>
      <point x="340" y="434" type="line"/>
      <point x="389" y="434" type="line"/>
      <point x="374" y="405"/>
      <point x="354" y="383"/>
      <point x="335" y="361" type="curve" smooth="yes"/>
      <point x="327" y="352"/>
      <point x="317" y="340"/>
      <point x="310" y="331" type="curve"/>
      <point x="287" y="355"/>
      <point x="245" y="400"/>
      <point x="232" y="432" type="curve"/>
      <point x="250" y="435"/>
      <point x="269" y="434"/>
      <point x="287" y="434" type="curve"/>
      <point x="287" y="486" type="line"/>
      <point x="36" y="486" type="line"/>
      <point x="36" y="434" type="line"/>
      <point x="81" y="434" type="line" smooth="yes"/>
      <point x="94" y="434"/>
      <point x="100" y="426"/>
      <point x="106" y="417" type="curve"/>
      <point x="107" y="416"/>
      <point x="108" y="413"/>
      <point x="109" y="412" type="curve"/>
      <point x="149" y="355"/>
      <point x="191" y="298"/>
      <point x="233" y="243" type="curve"/>
      <point x="108" y="86" type="line" smooth="yes"/>
      <point x="85" y="57"/>
      <point x="70" y="52"/>
      <point x="45" y="52" type="curve" smooth="yes"/>
      <point x="34" y="52"/>
      <point x="23" y="53"/>
      <point x="12" y="53" type="curve"/>
      <point x="12" y="0" type="line"/>
      <point x="232" y="0" type="line"/>
    </contour>
  </outline>
</glyph>
<glyph name="y" format="2">
  <advance width="569"/>
  <unicode hex="0079"/>
  <anchor x="304" y="536" name="t.asciicircum_1"/>
  <anchor x="304" y="550" name="t.dieresis"/>
  <outline>
    <contour>
      <point x="239.875" y="63.64" type="line" smooth="yes"/>
      <point x="239.875" y="30.4775"/>
      <point x="221.872" y="30.4775"/>
      <point x="190.605" y="30.4775" type="curve" smooth="yes"/>
      <point x="166.917" y="30.4775" type="line"/>
      <point x="166.917" y="0.1575" type="line"/>
      <point x="410.425" y="0.1575" type="line"/>
      <point x="410.425" y="30.4775" type="line"/>
      <point x="379.157" y="30.4775" type="line" smooth="yes"/>
      <point x="356.417" y="30.4775"/>
      <point x="337.467" y="32.3725"/>
      <point x="337.467" y="63.64" type="curve" smooth="yes"/>
      <point x="337.467" y="228.505" type="line"/>
      <point x="460.642" y="420.847" type="line" smooth="yes"/>
      <point x="480.54" y="452.115"/>
      <point x="489.067" y="459.695"/>
      <point x="509.912" y="459.695" type="curve"/>
      <point x="529.81" y="458.747" type="line"/>
      <point x="555.392" y="458.747" type="line"/>
      <point x="555.392" y="489.067" type="line"/>
      <point x="360.207" y="489.067" type="line"/>
      <point x="360.207" y="459.695" type="line"/>
      <point x="394.317" y="459.695" type="line" smooth="yes"/>
      <point x="412.32" y="459.695"/>
      <point x="421.795" y="456.852"/>
      <point x="422.742" y="451.167" type="curve"/>
      <point x="316.622" y="276.827" type="line"/>
      <point x="218.082" y="430.322" type="line"/>
      <point x="215.24" y="436.007"/>
      <point x="213.345" y="441.692"/>
      <point x="213.345" y="445.482" type="curve" smooth="yes"/>
      <point x="213.345" y="455.905"/>
      <point x="224.715" y="458.747"/>
      <point x="254.087" y="458.747" type="curve" smooth="yes"/>
      <point x="270.195" y="458.747" type="line"/>
      <point x="270.195" y="489.067" type="line"/>
      <point x="15.3175" y="489.067" type="line"/>
      <point x="15.3175" y="458.747" type="line"/>
      <point x="46.585" y="458.747" type="line" smooth="yes"/>
      <point x="81.6425" y="458.747"/>
      <point x="87.3275" y="454.01"/>
      <point x="103.435" y="427.48" type="curve" smooth="yes"/>
      <point x="239.875" y="211.45" type="line"/>
    </contour>
  </outline>
</glyph>
<glyph name="z" format="2">
  <advance width="544"/>
  <unicode hex="007A"/>
  <anchor x="280" y="570" name="t.dieresis"/>
  <anchor x="280" y="556" name="t.asciicircum_1"/>
  <outline>
    <contour>
      <point x="44" y="0" type="line"/>
      <point x="471" y="0" type="line"/>
      <point x="477" y="197" type="line"/>
      <point x="442" y="197" type="line"/>
      <point x="418" y="109"/>
      <point x="385" y="32"/>
      <point x="283" y="32" type="curve" smooth="yes"/>
      <point x="185" y="32" type="line"/>
      <point x="474" y="483" type="line"/>
      <point x="474" y="498" type="line"/>
      <point x="91" y="498" type="line"/>
      <point x="85" y="313" type="line"/>
      <point x="119" y="313" type="line"/>
      <point x="149" y="413"/>
      <point x="154" y="466"/>
      <point x="267" y="466" type="curve" smooth="yes"/>
      <point x="314" y="466" type="line" smooth="yes"/>
      <point x="317" y="466"/>
      <point x="321" y="464"/>
      <point x="321" y="457" type="curve" smooth="yes"/>
      <point x="321" y="454"/>
      <point x="320" y="445"/>
      <point x="316" y="441" type="curve"/>
      <point x="44" y="14" type="line"/>
    </contour>
  </outline>
</glyph>
<glyph name="braceleft" format="2">
  <advance width="430"/>
  <unicode hex="007B"/>
  <outline>
    <contour>
      <point x="332" y="-201" type="line"/>
      <point x="229" y="-168"/>
      <point x="178" y="-110"/>
      <point x="178" y="-25" type="curve" smooth="yes"/>
      <point x="178" y="4"/>
      <point x="184" y="32"/>
      <point x="198" y="81" type="curve" smooth="yes"/>
      <point x="210" y="122"/>
      <point x="215" y="154"/>
      <point x="215" y="180" type="curve" smooth="yes"/>
      <point x="215" y="246"/>
      <point x="180" y="268"/>
      <point x="106" y="268" type="curve"/>
      <point x="106" y="279" type="line"/>
      <point x="178" y="279"/>
      <point x="215" y="292"/>
      <point x="215" y="358" type="curve" smooth="yes"/>
      <point x="215" y="385"/>
      <point x="209" y="419"/>
      <point x="198" y="463" type="curve" smooth="yes"/>
      <point x="183" y="518"/>
      <point x="178" y="543"/>
      <point x="178" y="570" type="curve" smooth="yes"/>
      <point x="178" y="656"/>
      <point x="229" y="714"/>
      <point x="332" y="748" type="curve"/>
      <point x="337" y="731" type="line"/>
      <point x="268" y="707"/>
      <point x="236" y="677"/>
      <point x="236" y="617" type="curve" smooth="yes"/>
      <point x="236" y="592"/>
      <point x="246" y="569"/>
      <point x="258" y="521" type="curve" smooth="yes"/>
      <point x="270" y="477"/>
      <point x="276" y="448"/>
      <point x="276" y="416" type="curve" smooth="yes"/>
      <point x="276" y="342"/>
      <point x="232" y="294"/>
      <point x="168" y="273" type="curve"/>
      <point x="223" y="256"/>
      <point x="276" y="210"/>
      <point x="276" y="125" type="curve" smooth="yes"/>
      <point x="276" y="92"/>
      <point x="270" y="66"/>
      <point x="258" y="23" type="curve" smooth="yes"/>
      <point x="246" y="-21"/>
      <point x="233.856" y="-27.0042"/>
      <point x="235" y="-64" type="curve" smooth="yes"/>
      <point x="236.856" y="-124.005"/>
      <point x="271" y="-161"/>
      <point x="340" y="-185" type="curve"/>
    </contour>
  </outline>
</glyph>
<glyph name="braceright" format="2">
  <advance width="430"/>
  <unicode hex="007D"/>
  <outline>
    <contour>
      <point x="89" y="-187" type="line"/>
      <point x="158" y="-163"/>
      <point x="190" y="-132"/>
      <point x="190" y="-72" type="curve" smooth="yes"/>
      <point x="190" y="-47"/>
      <point x="184" y="-22"/>
      <point x="172" y="26" type="curve" smooth="yes"/>
      <point x="160" y="73"/>
      <point x="154" y="98"/>
      <point x="154" y="131" type="curve" smooth="yes"/>
      <point x="154" y="205"/>
      <point x="201" y="253"/>
      <point x="265" y="273" type="curve"/>
      <point x="201" y="294"/>
      <point x="154" y="342"/>
      <point x="154" y="416" type="curve" smooth="yes"/>
      <point x="154" y="448"/>
      <point x="160" y="477"/>
      <point x="172" y="521" type="curve" smooth="yes"/>
      <point x="184" y="569"/>
      <point x="191" y="584"/>
      <point x="191" y="616" type="curve" smooth="yes"/>
      <point x="191" y="676"/>
      <point x="159" y="713"/>
      <point x="90" y="737" type="curve"/>
      <point x="98" y="748" type="line"/>
      <point x="201" y="714"/>
      <point x="252" y="656"/>
      <point x="252" y="570" type="curve" smooth="yes"/>
      <point x="252" y="543"/>
      <point x="247" y="518"/>
      <point x="232" y="463" type="curve" smooth="yes"/>
      <point x="221" y="419"/>
      <point x="215" y="385"/>
      <point x="215" y="358" type="curve" smooth="yes"/>
      <point x="215" y="292"/>
      <point x="252" y="279"/>
      <point x="324" y="279" type="curve"/>
      <point x="324" y="268" type="line"/>
      <point x="252" y="268"/>
      <point x="215" y="255"/>
      <point x="215" y="188" type="curve" smooth="yes"/>
      <point x="215" y="161"/>
      <point x="221" y="128"/>
      <point x="232" y="84" type="curve" smooth="yes"/>
      <point x="247" y="29"/>
      <point x="252" y="4"/>
      <point x="252" y="-23" type="curve" smooth="yes"/>
      <point x="252" y="-110"/>
      <point x="201" y="-168"/>
      <point x="98" y="-201" type="curve"/>
    </contour>
  </outline>
</glyph>
<glyph name="asciitilde" format="2">
  <advance width="321"/>
  <unicode hex="007E"/>
  <anchor x="160" y="530" name="_t.asciicircum_1"/>
  <outline>
    <contour>
      <point x="76" y="608" type="curve" smooth="yes"/>
      <point x="86" y="608"/>
      <point x="108" y="597"/>
      <point x="125" y="583" type="curve" smooth="yes"/>
      <point x="148" y="565"/>
      <point x="186" y="546"/>
      <point x="221" y="546" type="curve" smooth="yes"/>
      <point x="276" y="546"/>
      <point x="316" y="592"/>
      <point x="334" y="641" type="curve"/>
      <point x="288" y="658" type="line"/>
      <point x="270" y="622"/>
      <point x="256" y="604"/>
      <point x="245" y="604" type="curve" smooth="yes"/>
      <point x="237" y="604"/>
      <point x="220" y="613"/>
      <point x="213" y="618" type="curve" smooth="yes"/>
      <point x="202" y="625" type="line"/>
      <point x="202" y="625"/>
      <point x="201" y="626"/>
      <point x="197" y="629" type="curve" smooth="yes"/>
      <point x="173" y="647"/>
      <point x="135" y="666"/>
      <point x="100" y="666" type="curve" smooth="yes"/>
      <point x="45" y="666"/>
      <point x="5" y="620"/>
      <point x="-13" y="571" type="curve"/>
      <point x="33" y="554" type="line"/>
      <point x="51" y="590"/>
      <point x="65" y="608"/>
    </contour>
  </outline>
</glyph>
<glyph name="exclamdown" format="2">
  <advance width="241"/>
  <unicode hex="00A1"/>
  <outline>
    <contour>
      <point x="90" y="464" type="line"/>
      <point x="90" y="336"/>
      <point x="70" y="225"/>
      <point x="44" y="100" type="curve" smooth="yes"/>
      <point x="41" y="85"/>
      <point x="39" y="72" name="hr01"/>
      <point x="39" y="60" type="curve" smooth="yes"/>
      <point x="39" y="15"/>
      <point x="68" y="-12"/>
      <point x="120" y="-12" type="curve" smooth="yes"/>
      <point x="172" y="-12"/>
      <point x="201" y="15"/>
      <point x="201" y="60" type="curve" smooth="yes"/>
      <point x="201" y="72"/>
      <point x="199" y="85"/>
      <point x="196" y="100" type="curve" smooth="yes"/>
      <point x="170" y="225"/>
      <point x="150" y="336" name="hr02"/>
      <point x="150" y="464" type="curve"/>
    </contour>
    <contour>
      <point x="58" y="625" type="curve" smooth="yes"/>
      <point x="58" y="591"/>
      <point x="86" y="563"/>
      <point x="120" y="563" type="curve" smooth="yes"/>
      <point x="154" y="563"/>
      <point x="182" y="591"/>
      <point x="182" y="625" type="curve" smooth="yes"/>
      <point x="182" y="659"/>
      <point x="154" y="687"/>
      <point x="120" y="687" type="curve" smooth="yes"/>
      <point x="86" y="687"/>
      <point x="58" y="659"/>
    </contour>
  </outline>
</glyph>
<glyph name="currency" format="2">
  <advance width="594"/>
  <unicode hex="00A4"/>
  <outline>
    <contour>
      <point x="39" y="136" type="line"/>
      <point x="109" y="207" type="line"/>
      <point x="76" y="249"/>
      <point x="59" y="297"/>
      <point x="59" y="351" type="curve" smooth="yes"/>
      <point x="59" y="405"/>
      <point x="76" y="453"/>
      <point x="109" y="497" type="curve"/>
      <point x="39" y="566" type="line"/>
      <point x="82" y="609" type="line"/>
      <point x="152" y="540" type="line"/>
      <point x="192" y="571"/>
      <point x="244" y="590"/>
      <point x="297" y="590" type="curve" smooth="yes"/>
      <point x="350" y="590"/>
      <point x="402" y="571"/>
      <point x="442" y="540" type="curve"/>
      <point x="512" y="609" type="line"/>
      <point x="555" y="566" type="line"/>
      <point x="485" y="497" type="line"/>
      <point x="518" y="453"/>
      <point x="535" y="405"/>
      <point x="535" y="351" type="curve" smooth="yes"/>
      <point x="535" y="297"/>
      <point x="518" y="249"/>
      <point x="485" y="207" type="curve"/>
      <point x="555" y="136" type="line"/>
      <point x="512" y="93" type="line"/>
      <point x="442" y="164" type="line"/>
      <point x="400" y="130"/>
      <point x="352" y="113"/>
      <point x="297" y="113" type="curve" smooth="yes"/>
      <point x="242" y="113"/>
      <point x="194" y="130"/>
      <point x="152" y="164" type="curve"/>
      <point x="82" y="93" type="line"/>
    </contour>
    <contour>
      <point x="298" y="179" type="curve" smooth="yes"/>
      <point x="400" y="179"/>
      <point x="469" y="249"/>
      <point x="469" y="351" type="curve" smooth="yes"/>
      <point x="469" y="453"/>
      <point x="401" y="524"/>
      <point x="298" y="524" type="curve" smooth="yes"/>
      <point x="196" y="524"/>
      <point x="125" y="454"/>
      <point x="125" y="352" type="curve" smooth="yes"/>
      <point x="125" y="249"/>
      <point x="194" y="179"/>
    </contour>
  </outline>
</glyph>
<glyph name="yen" format="2">
  <advance width="594"/>
  <unicode hex="00A5"/>
  <outline>
    <contour>
      <point x="119" y="33" type="line"/>
      <point x="193" y="33" type="line" smooth="yes"/>
      <point x="209" y="33"/>
      <point x="217" y="41"/>
      <point x="217" y="57" type="curve" smooth="yes"/>
      <point x="217" y="233" type="line"/>
      <point x="74" y="233" type="line"/>
      <point x="74" y="266" type="line"/>
      <point x="217" y="266" type="line"/>
      <point x="217" y="334" type="line"/>
      <point x="74" y="334" type="line"/>
      <point x="74" y="367" type="line"/>
      <point x="208" y="367" type="line"/>
      <point x="82" y="656" type="line" smooth="yes"/>
      <point x="70.1916" y="683.084"/>
      <point x="57" y="696"/>
      <point x="37" y="696" type="curve" smooth="yes"/>
      <point x="18" y="696" type="line"/>
      <point x="18" y="729" type="line"/>
      <point x="289" y="729" type="line"/>
      <point x="289" y="696" type="line"/>
      <point x="264" y="696" type="line" smooth="yes"/>
      <point x="252" y="696"/>
      <point x="245" y="685"/>
      <point x="245" y="672" type="curve" smooth="yes"/>
      <point x="245" y="665"/>
      <point x="248" y="657"/>
      <point x="252" y="647" type="curve" smooth="yes"/>
      <point x="354" y="412" type="line"/>
      <point x="440" y="596" type="line" smooth="yes"/>
      <point x="446" y="609"/>
      <point x="453" y="636"/>
      <point x="453" y="651" type="curve" smooth="yes"/>
      <point x="453" y="672"/>
      <point x="441" y="696"/>
      <point x="420" y="696" type="curve" smooth="yes"/>
      <point x="394" y="696" type="line"/>
      <point x="394" y="729" type="line"/>
      <point x="575" y="729" type="line"/>
      <point x="575" y="696" type="line"/>
      <point x="559" y="696" type="line" smooth="yes"/>
      <point x="531" y="696"/>
      <point x="509" y="665"/>
      <point x="488" y="620" type="curve" smooth="yes"/>
      <point x="369" y="367" type="line"/>
      <point x="512" y="367" type="line"/>
      <point x="512" y="334" type="line"/>
      <point x="369" y="334" type="line"/>
      <point x="369" y="266" type="line"/>
      <point x="512" y="266" type="line"/>
      <point x="512" y="233" type="line"/>
      <point x="369" y="233" type="line"/>
      <point x="369" y="57" type="line" smooth="yes"/>
      <point x="369" y="41"/>
      <point x="377" y="33"/>
      <point x="393" y="33" type="curve" smooth="yes"/>
      <point x="467" y="33" type="line"/>
      <point x="467" y="0" type="line"/>
      <point x="119" y="0" type="line"/>
    </contour>
  </outline>
</glyph>
<glyph name="brokenbar" format="2">
  <advance width="291"/>
  <unicode hex="00A6"/>
  <outline>
    <contour>
      <point x="111" y="379" type="line"/>
      <point x="111" y="748" type="line"/>
      <point x="180" y="748" type="line"/>
      <point x="180" y="379" type="line"/>
    </contour>
    <contour>
      <point x="111" y="-172" type="line"/>
      <point x="111" y="197" type="line"/>
      <point x="180" y="197" type="line"/>
      <point x="180" y="-172" type="line"/>
    </contour>
  </outline>
</glyph>
<glyph name="dieresis" format="2">
  <advance width="298"/>
  <unicode hex="00A8"/>
  <outline>
    <contour>
      <point x="52" y="536" type="curve" smooth="yes"/>
      <point x="81" y="536"/>
      <point x="104" y="559"/>
      <point x="104" y="588" type="curve" smooth="yes"/>
      <point x="104" y="617"/>
      <point x="81" y="640"/>
      <point x="52" y="640" type="curve" smooth="yes"/>
      <point x="23" y="640"/>
      <point x="0" y="617"/>
      <point x="0" y="588" type="curve" smooth="yes"/>
      <point x="0" y="559"/>
      <point x="23" y="536"/>
    </contour>
    <contour>
      <point x="246" y="536" type="curve" smooth="yes"/>
      <point x="275" y="536"/>
      <point x="298" y="559"/>
      <point x="298" y="588" type="curve" smooth="yes"/>
      <point x="298" y="617"/>
      <point x="275" y="640"/>
      <point x="246" y="640" type="curve" smooth="yes"/>
      <point x="217" y="640"/>
      <point x="194" y="617"/>
      <point x="194" y="588" type="curve" smooth="yes"/>
      <point x="194" y="559"/>
      <point x="217" y="536"/>
    </contour>
  </outline>
</glyph>
<glyph name="ordfeminine" format="2">
  <advance width="389"/>
  <unicode hex="00AA"/>
  <outline>
    <contour>
      <point x="129" y="371" type="curve" smooth="yes"/>
      <point x="85" y="371"/>
      <point x="45" y="393"/>
      <point x="45" y="446" type="curve" smooth="yes"/>
      <point x="45" y="502"/>
      <point x="92" y="524"/>
      <point x="164" y="550" type="curve" smooth="yes"/>
      <point x="203" y="564" type="line"/>
      <point x="203" y="605" type="line" smooth="yes"/>
      <point x="203" y="643"/>
      <point x="189" y="662"/>
      <point x="159" y="662" type="curve" smooth="yes"/>
      <point x="136" y="662"/>
      <point x="117" y="651"/>
      <point x="117" y="634" type="curve" smooth="yes"/>
      <point x="117" y="627"/>
      <point x="121" y="621"/>
      <point x="132" y="614" type="curve" smooth="yes"/>
      <point x="142" y="608"/>
      <point x="147" y="602" name=".hr01"/>
      <point x="147" y="591" type="curve" smooth="yes"/>
      <point x="147" y="570"/>
      <point x="127" y="559"/>
      <point x="106" y="559" type="curve" smooth="yes"/>
      <point x="83" y="559"/>
      <point x="61" y="574"/>
      <point x="61" y="604" type="curve" smooth="yes"/>
      <point x="61" y="658"/>
      <point x="127" y="680"/>
      <point x="177" y="680" type="curve" smooth="yes"/>
      <point x="234" y="680"/>
      <point x="289" y="652"/>
      <point x="289" y="591" type="curve" smooth="yes"/>
      <point x="289" y="429" type="line" smooth="yes"/>
      <point x="289" y="415"/>
      <point x="293" y="408"/>
      <point x="300" y="408" type="curve" smooth="yes"/>
      <point x="315" y="408"/>
      <point x="324" y="436"/>
      <point x="324" y="467" type="curve"/>
      <point x="344" y="467" type="line"/>
      <point x="344" y="412"/>
      <point x="334" y="371"/>
      <point x="271" y="371" type="curve" smooth="yes"/>
      <point x="238" y="371"/>
      <point x="219" y="382"/>
      <point x="206" y="409" type="curve"/>
      <point x="205" y="409" type="line"/>
      <point x="192" y="386"/>
      <point x="166" y="371"/>
    </contour>
    <contour>
      <point x="169" y="402" type="curve" smooth="yes"/>
      <point x="182" y="402" name=".hr02"/>
      <point x="193" y="410"/>
      <point x="203" y="425" type="curve"/>
      <point x="203" y="546" type="line"/>
      <point x="175" y="536" type="line" smooth="yes"/>
      <point x="149" y="527"/>
      <point x="135" y="498"/>
      <point x="135" y="458" type="curve" smooth="yes"/>
      <point x="135" y="414"/>
      <point x="152" y="402"/>
    </contour>
    <contour>
      <point x="53" y="295" type="line"/>
      <point x="53" y="328" type="line"/>
      <point x="336" y="328" type="line"/>
      <point x="336" y="295" type="line"/>
    </contour>
  </outline>
</glyph>
<glyph name="logicalnot" format="2">
  <advance width="594"/>
  <unicode hex="00AC"/>
  <outline>
    <contour>
      <point x="483" y="140" type="line"/>
      <point x="483" y="353" type="line"/>
      <point x="41" y="353" type="line"/>
      <point x="41" y="419" type="line"/>
      <point x="553" y="419" type="line"/>
      <point x="553" y="140" type="line"/>
    </contour>
  </outline>
</glyph>
<glyph name="degree" format="2">
  <advance width="216"/>
  <unicode hex="00B0"/>
  <outline>
    <contour>
      <point x="52" y="638" type="curve" smooth="yes"/>
      <point x="52" y="680"/>
      <point x="78" y="709"/>
      <point x="108" y="709" type="curve" smooth="yes"/>
      <point x="141" y="709"/>
      <point x="164" y="677"/>
      <point x="164" y="638" type="curve" smooth="yes"/>
      <point x="164" y="596"/>
      <point x="138" y="567"/>
      <point x="108" y="567" type="curve" smooth="yes"/>
      <point x="75" y="567"/>
      <point x="52" y="599"/>
    </contour>
    <contour>
      <point x="-15" y="638" type="curve" smooth="yes"/>
      <point x="-15" y="580"/>
      <point x="37" y="530"/>
      <point x="108" y="530" type="curve" smooth="yes"/>
      <point x="175" y="530"/>
      <point x="231" y="576"/>
      <point x="231" y="638" type="curve" smooth="yes"/>
      <point x="231" y="696"/>
      <point x="179" y="746"/>
      <point x="108" y="746" type="curve" smooth="yes"/>
      <point x="41" y="746"/>
      <point x="-15" y="700"/>
    </contour>
  </outline>
</glyph>
<glyph name="plusminus" format="2">
  <advance width="576"/>
  <unicode hex="00B1"/>
  <outline>
    <contour>
      <point x="511" y="65" type="line"/>
      <point x="65" y="65" type="line"/>
      <point x="65" y="15" type="line"/>
      <point x="511" y="15" type="line"/>
    </contour>
    <contour>
      <point x="328" y="331" type="line"/>
      <point x="328" y="504" type="line"/>
      <point x="248" y="504" type="line"/>
      <point x="248" y="331" type="line"/>
      <point x="263" y="331" type="line"/>
      <point x="75" y="331" type="line"/>
      <point x="75" y="281" type="line"/>
      <point x="248" y="281" type="line"/>
      <point x="248" y="108" type="line"/>
      <point x="328" y="108" type="line"/>
      <point x="328" y="281" type="line"/>
      <point x="313" y="281" type="line"/>
      <point x="501" y="281" type="line"/>
      <point x="501" y="331" type="line"/>
    </contour>
  </outline>
</glyph>
<glyph name="twosuperior" format="2">
  <advance width="397"/>
  <unicode hex="00B2"/>
  <outline>
    <contour>
      <point x="242" y="281" type="curve" smooth="yes"/>
      <point x="208" y="281"/>
      <point x="179" y="297"/>
      <point x="145" y="331" type="curve" smooth="yes"/>
      <point x="132" y="345"/>
      <point x="123" y="352"/>
      <point x="109" y="352" type="curve" smooth="yes"/>
      <point x="94" y="352"/>
      <point x="84" y="343" name=".hr01"/>
      <point x="84" y="331" type="curve" smooth="yes"/>
      <point x="84" y="293" type="line"/>
      <point x="55" y="293" type="line"/>
      <point x="55" y="322" type="line" smooth="yes"/>
      <point x="55" y="391"/>
      <point x="89" y="436"/>
      <point x="139" y="481" type="curve" smooth="yes"/>
      <point x="206" y="541"/>
      <point x="240" y="579"/>
      <point x="240" y="637" type="curve" smooth="yes"/>
      <point x="240" y="679"/>
      <point x="222" y="714"/>
      <point x="180" y="714" type="curve" smooth="yes"/>
      <point x="146" y="714"/>
      <point x="123" y="691" name=".hr02"/>
      <point x="123" y="664" type="curve" smooth="yes"/>
      <point x="123" y="650"/>
      <point x="129" y="638"/>
      <point x="146" y="627" type="curve" smooth="yes"/>
      <point x="160" y="618"/>
      <point x="168" y="607" name=".hr03"/>
      <point x="168" y="592" type="curve" smooth="yes"/>
      <point x="168" y="569"/>
      <point x="147" y="554"/>
      <point x="119" y="554" type="curve" smooth="yes"/>
      <point x="82" y="554"/>
      <point x="49" y="581"/>
      <point x="49" y="626" type="curve" smooth="yes"/>
      <point x="49" y="688"/>
      <point x="114" y="741"/>
      <point x="197" y="741" type="curve" smooth="yes"/>
      <point x="297" y="741"/>
      <point x="350" y="699"/>
      <point x="350" y="642" type="curve" smooth="yes"/>
      <point x="350" y="583"/>
      <point x="294" y="530"/>
      <point x="183" y="477" type="curve" smooth="yes"/>
      <point x="147" y="460"/>
      <point x="104" y="423"/>
      <point x="94" y="383" type="curve"/>
      <point x="98" y="381" type="line"/>
      <point x="115" y="398"/>
      <point x="132" y="406"/>
      <point x="153" y="406" type="curve" smooth="yes"/>
      <point x="164" y="406"/>
      <point x="183" y="404"/>
      <point x="205" y="401" type="curve" smooth="yes"/>
      <point x="228" y="397"/>
      <point x="248" y="395"/>
      <point x="261" y="395" type="curve" smooth="yes"/>
      <point x="300" y="395"/>
      <point x="324" y="413" name=".hr04"/>
      <point x="324" y="439" type="curve" smooth="yes"/>
      <point x="324" y="446"/>
      <point x="322" y="457"/>
      <point x="319" y="468" type="curve"/>
      <point x="343" y="468" type="line"/>
      <point x="346" y="451"/>
      <point x="347" y="434"/>
      <point x="347" y="422" type="curve" smooth="yes"/>
      <point x="347" y="357"/>
      <point x="317" y="281"/>
    </contour>
  </outline>
</glyph>
<glyph name="threesuperior" format="2">
  <advance width="397"/>
  <unicode hex="00B3"/>
  <outline>
    <contour>
      <point x="227" y="503" type="curve"/>
      <point x="277" y="511"/>
      <point x="324" y="550"/>
      <point x="324" y="592" type="curve"/>
      <point x="324" y="646"/>
      <point x="266" y="687"/>
      <point x="202" y="687" type="curve" smooth="yes"/>
      <point x="134" y="687"/>
      <point x="76" y="640"/>
      <point x="76" y="593" type="curve" smooth="yes"/>
      <point x="76" y="563"/>
      <point x="99" y="547"/>
      <point x="126" y="547" type="curve" smooth="yes"/>
      <point x="154" y="547"/>
      <point x="175" y="563"/>
      <point x="175" y="585" type="curve" smooth="yes"/>
      <point x="175" y="605"/>
      <point x="159" y="621"/>
      <point x="136" y="626" type="curve"/>
      <point x="135" y="627"/>
      <point x="134" y="628"/>
      <point x="134" y="631" type="curve" smooth="yes"/>
      <point x="134" y="654"/>
      <point x="175" y="667"/>
      <point x="189" y="667" type="curve" smooth="yes"/>
      <point x="237" y="667"/>
      <point x="249" y="632"/>
      <point x="249" y="594" type="curve" smooth="yes"/>
      <point x="249" y="547"/>
      <point x="231" y="510"/>
      <point x="149" y="510" type="curve"/>
      <point x="149" y="494" type="line"/>
      <point x="236" y="494"/>
      <point x="258" y="452"/>
      <point x="258" y="400" type="curve" smooth="yes"/>
      <point x="258" y="345"/>
      <point x="234" y="307"/>
      <point x="184" y="307" type="curve" smooth="yes"/>
      <point x="157" y="307"/>
      <point x="136" y="319"/>
      <point x="120" y="332" type="curve"/>
      <point x="118" y="334"/>
      <point x="118" y="336"/>
      <point x="118" y="339" type="curve" smooth="yes"/>
      <point x="118" y="342" type="line" smooth="yes"/>
      <point x="118" y="347"/>
      <point x="120" y="353"/>
      <point x="125" y="355" type="curve"/>
      <point x="149" y="359"/>
      <point x="166" y="376"/>
      <point x="166" y="397" type="curve" smooth="yes"/>
      <point x="166" y="421"/>
      <point x="143" y="442"/>
      <point x="113" y="442" type="curve" smooth="yes"/>
      <point x="86" y="442"/>
      <point x="55" y="424"/>
      <point x="55" y="387" type="curve" smooth="yes"/>
      <point x="55" y="334"/>
      <point x="116" y="287"/>
      <point x="191" y="287" type="curve" smooth="yes"/>
      <point x="297" y="287"/>
      <point x="341" y="343"/>
      <point x="341" y="393" type="curve" smooth="yes"/>
      <point x="341" y="447"/>
      <point x="290" y="493"/>
    </contour>
  </outline>
</glyph>
<glyph name="acute" format="2">
  <advance width="212"/>
  <unicode hex="00B4"/>
  <outline>
    <contour>
      <point x="79" y="706" type="line"/>
      <point x="61" y="659"/>
      <point x="19" y="590"/>
      <point x="-13" y="551" type="curve"/>
      <point x="-2" y="522" type="line"/>
      <point x="67" y="561"/>
      <point x="185" y="649"/>
      <point x="226" y="689" type="curve"/>
      <point x="220" y="706" type="line"/>
    </contour>
  </outline>
</glyph>
<glyph name="paragraph" format="2">
  <advance width="520"/>
  <unicode hex="00B6"/>
  <outline>
    <contour>
      <point x="248" y="328" type="line"/>
      <point x="243" y="328" type="line"/>
      <point x="243" y="0" type="line"/>
      <point x="314" y="0" type="line"/>
      <point x="314" y="610" type="line" smooth="yes"/>
      <point x="314" y="640"/>
      <point x="341" y="645"/>
      <point x="348" y="645" type="curve" smooth="yes"/>
      <point x="355" y="645"/>
      <point x="372" y="640"/>
      <point x="372" y="610" type="curve" smooth="yes"/>
      <point x="372" y="0" type="line"/>
      <point x="443" y="0" type="line"/>
      <point x="443" y="595" type="line" smooth="yes"/>
      <point x="443" y="640"/>
      <point x="447" y="645"/>
      <point x="478" y="645" type="curve" smooth="yes"/>
      <point x="503" y="645" type="line"/>
      <point x="503" y="680" type="line"/>
      <point x="246" y="680" type="line" smooth="yes"/>
      <point x="117" y="680"/>
      <point x="25" y="614"/>
      <point x="25" y="504" type="curve" smooth="yes"/>
      <point x="25" y="394"/>
      <point x="117" y="328"/>
      <point x="246" y="328" type="curve"/>
    </contour>
  </outline>
</glyph>
<glyph name="periodcentered" format="2">
  <advance width="300"/>
  <unicode hex="00B7"/>
  <outline>
    <contour>
      <point x="65" y="280" type="curve" smooth="yes"/>
      <point x="65" y="236"/>
      <point x="103" y="199"/>
      <point x="150" y="199" type="curve" smooth="yes"/>
      <point x="197" y="199"/>
      <point x="235" y="236"/>
      <point x="235" y="280" type="curve" smooth="yes"/>
      <point x="235" y="324"/>
      <point x="197" y="361"/>
      <point x="150" y="361" type="curve" smooth="yes"/>
      <point x="103" y="361"/>
      <point x="65" y="324"/>
    </contour>
  </outline>
</glyph>
<glyph name="cedilla" format="2">
  <advance width="233"/>
  <unicode hex="00B8"/>
  <outline>
    <contour>
      <point x="72" y="-90" type="line"/>
      <point x="89" y="-107" type="line"/>
      <point x="92" y="-106"/>
      <point x="94" y="-104"/>
      <point x="98" y="-103" type="curve" smooth="yes"/>
      <point x="100" y="-102"/>
      <point x="102" y="-102"/>
      <point x="104" y="-101" type="curve" smooth="yes"/>
      <point x="111" y="-98"/>
      <point x="118" y="-96"/>
      <point x="123" y="-96" type="curve" smooth="yes"/>
      <point x="137" y="-96"/>
      <point x="146" y="-115"/>
      <point x="146" y="-146" type="curve" smooth="yes"/>
      <point x="146" y="-190"/>
      <point x="128" y="-212"/>
      <point x="105" y="-212" type="curve" smooth="yes"/>
      <point x="85" y="-212"/>
      <point x="55" y="-194"/>
      <point x="19" y="-153" type="curve"/>
      <point x="-12" y="-187" type="line"/>
      <point x="12" y="-218"/>
      <point x="63" y="-239"/>
      <point x="115" y="-239" type="curve" smooth="yes"/>
      <point x="175" y="-239"/>
      <point x="248" y="-212"/>
      <point x="248" y="-148" type="curve" smooth="yes"/>
      <point x="248" y="-85"/>
      <point x="181" y="-70"/>
      <point x="129" y="-70" type="curve"/>
      <point x="134" y="-70" type="line"/>
      <point x="134" y="12" type="line"/>
      <point x="72" y="12" type="line"/>
    </contour>
  </outline>
</glyph>
<glyph name="ordmasculine" format="2">
  <advance width="389"/>
  <unicode hex="00BA"/>
  <outline>
    <contour>
      <point x="195" y="371" type="curve" smooth="yes"/>
      <point x="118" y="371"/>
      <point x="57" y="441"/>
      <point x="57" y="525" type="curve" smooth="yes"/>
      <point x="57" y="609"/>
      <point x="118" y="680"/>
      <point x="195" y="680" type="curve" smooth="yes"/>
      <point x="271" y="680"/>
      <point x="332" y="609"/>
      <point x="332" y="525" type="curve" smooth="yes"/>
      <point x="332" y="441"/>
      <point x="271" y="371"/>
    </contour>
    <contour>
      <point x="193" y="389" type="curve" smooth="yes"/>
      <point x="227" y="389"/>
      <point x="237" y="434"/>
      <point x="237" y="525" type="curve" smooth="yes"/>
      <point x="237" y="617"/>
      <point x="227" y="662"/>
      <point x="193" y="662" type="curve" smooth="yes"/>
      <point x="159" y="662"/>
      <point x="152" y="618"/>
      <point x="152" y="525" type="curve" smooth="yes"/>
      <point x="152" y="433"/>
      <point x="159" y="389"/>
    </contour>
    <contour>
      <point x="57" y="295" type="line"/>
      <point x="57" y="328" type="line"/>
      <point x="332" y="328" type="line"/>
      <point x="332" y="295" type="line"/>
    </contour>
  </outline>
</glyph>
<glyph name="onequarter" format="2">
  <advance width="881"/>
  <unicode hex="00BC"/>
  <outline>
    <contour>
      <point x="740" y="139" type="line"/>
      <point x="835" y="139" type="line"/>
      <point x="835" y="165" type="line"/>
      <point x="740" y="165" type="line"/>
      <point x="740" y="369" type="line" smooth="yes"/>
      <point x="740" y="372"/>
      <point x="735" y="374"/>
      <point x="727" y="374" type="curve" smooth="yes"/>
      <point x="721" y="374"/>
      <point x="716" y="373"/>
      <point x="714" y="371" type="curve" smooth="yes"/>
      <point x="653" y="280" type="line"/>
      <point x="653" y="165" type="line"/>
      <point x="663" y="165" type="line"/>
      <point x="523" y="165" type="line"/>
      <point x="607" y="290" type="line" smooth="yes"/>
      <point x="656" y="359"/>
      <point x="702" y="424"/>
      <point x="734" y="494" type="curve"/>
      <point x="604" y="494" type="line"/>
      <point x="585" y="380"/>
      <point x="543" y="280"/>
      <point x="475" y="162" type="curve"/>
      <point x="475" y="139" type="line"/>
      <point x="653" y="139" type="line"/>
      <point x="653" y="79" type="line" smooth="yes"/>
      <point x="653" y="54"/>
      <point x="645" y="44"/>
      <point x="628" y="44" type="curve" smooth="yes"/>
      <point x="583" y="44" type="line"/>
      <point x="583" y="19" type="line"/>
      <point x="810" y="19" type="line"/>
      <point x="810" y="44" type="line"/>
      <point x="764" y="44" type="line" smooth="yes"/>
      <point x="748" y="44"/>
      <point x="740" y="54"/>
      <point x="740" y="79" type="curve" smooth="yes"/>
    </contour>
    <contour>
      <point x="168" y="0" type="line"/>
      <point x="219" y="0" type="line"/>
      <point x="663" y="766" type="line"/>
      <point x="614" y="766" type="line"/>
    </contour>
    <contour>
      <point x="185" y="759" type="line"/>
      <point x="159" y="719"/>
      <point x="133" y="704"/>
      <point x="71" y="690" type="curve"/>
      <point x="71" y="678" type="line"/>
      <point x="79" y="679"/>
      <point x="85" y="679"/>
      <point x="88" y="679" type="curve" smooth="yes"/>
      <point x="107" y="679"/>
      <point x="144" y="675"/>
      <point x="144" y="652" type="curve" smooth="yes"/>
      <point x="144" y="418" type="line" smooth="yes"/>
      <point x="144" y="398"/>
      <point x="139" y="389"/>
      <point x="125" y="389" type="curve" smooth="yes"/>
      <point x="87" y="389" type="line"/>
      <point x="87" y="369" type="line"/>
      <point x="275" y="369" type="line"/>
      <point x="275" y="389" type="line"/>
      <point x="237" y="389" type="line" smooth="yes"/>
      <point x="223" y="389"/>
      <point x="217" y="398"/>
      <point x="217" y="418" type="curve" smooth="yes"/>
      <point x="217" y="759" type="line"/>
    </contour>
  </outline>
</glyph>
<glyph name="onehalf" format="2">
  <advance width="881"/>
  <unicode hex="00BD"/>
  <outline>
    <contour>
      <point x="601" y="378" type="curve" smooth="yes"/>
      <point x="590" y="378"/>
      <point x="588" y="382"/>
      <point x="588" y="388" type="curve" smooth="yes"/>
      <point x="588" y="417"/>
      <point x="646" y="441"/>
      <point x="676" y="441" type="curve" smooth="yes"/>
      <point x="704" y="441"/>
      <point x="734" y="419"/>
      <point x="734" y="354" type="curve" smooth="yes"/>
      <point x="734" y="289"/>
      <point x="718" y="250"/>
      <point x="638" y="190" type="curve" smooth="yes"/>
      <point x="588" y="152"/>
      <point x="528" y="85"/>
      <point x="523" y="21" type="curve"/>
      <point x="563" y="21" type="line"/>
      <point x="575" y="57"/>
      <point x="593" y="70"/>
      <point x="610" y="70" type="curve" smooth="yes"/>
      <point x="625" y="70"/>
      <point x="640" y="58"/>
      <point x="653" y="47" type="curve" smooth="yes"/>
      <point x="680" y="24"/>
      <point x="697" y="13"/>
      <point x="729" y="13" type="curve" smooth="yes"/>
      <point x="816" y="13"/>
      <point x="832" y="101"/>
      <point x="832" y="147" type="curve"/>
      <point x="791" y="147" type="line"/>
      <point x="788" y="99"/>
      <point x="772" y="76"/>
      <point x="750" y="76" type="curve" smooth="yes"/>
      <point x="735" y="76"/>
      <point x="717" y="87"/>
      <point x="698" y="99" type="curve" smooth="yes"/>
      <point x="683" y="109"/>
      <point x="667" y="119"/>
      <point x="648" y="122" type="curve" smooth="yes"/>
      <point x="634" y="124"/>
      <point x="628" y="129"/>
      <point x="628" y="138" type="curve" smooth="yes"/>
      <point x="628" y="141"/>
      <point x="629" y="145"/>
      <point x="632" y="148" type="curve" smooth="yes"/>
      <point x="659" y="172"/>
      <point x="684" y="187"/>
      <point x="710" y="202" type="curve"/>
      <point x="762" y="223"/>
      <point x="826" y="284"/>
      <point x="826" y="345" type="curve" smooth="yes"/>
      <point x="826" y="416"/>
      <point x="756" y="463"/>
      <point x="680" y="463" type="curve" smooth="yes"/>
      <point x="592" y="463"/>
      <point x="530" y="401"/>
      <point x="530" y="344" type="curve" smooth="yes"/>
      <point x="530" y="304"/>
      <point x="561" y="282"/>
      <point x="595" y="282" type="curve" smooth="yes"/>
      <point x="627" y="282"/>
      <point x="651" y="302"/>
      <point x="651" y="330" type="curve" smooth="yes"/>
      <point x="651" y="357"/>
      <point x="627" y="378"/>
    </contour>
    <contour>
      <point x="172" y="0" type="line"/>
      <point x="223" y="0" type="line"/>
      <point x="667" y="766" type="line"/>
      <point x="618" y="766" type="line"/>
    </contour>
    <contour>
      <point x="193" y="759" type="line"/>
      <point x="167" y="719"/>
      <point x="141" y="704"/>
      <point x="79" y="690" type="curve"/>
      <point x="79" y="678" type="line"/>
      <point x="87" y="679"/>
      <point x="93" y="679"/>
      <point x="96" y="679" type="curve" smooth="yes"/>
      <point x="115" y="679"/>
      <point x="152" y="675"/>
      <point x="152" y="652" type="curve" smooth="yes"/>
      <point x="152" y="418" type="line" smooth="yes"/>
      <point x="152" y="398"/>
      <point x="147" y="389"/>
      <point x="133" y="389" type="curve" smooth="yes"/>
      <point x="95" y="389" type="line"/>
      <point x="95" y="369" type="line"/>
      <point x="283" y="369" type="line"/>
      <point x="283" y="389" type="line"/>
      <point x="245" y="389" type="line" smooth="yes"/>
      <point x="231" y="389"/>
      <point x="225" y="398"/>
      <point x="225" y="418" type="curve" smooth="yes"/>
      <point x="225" y="759" type="line"/>
    </contour>
  </outline>
</glyph>
<glyph name="threequarters" format="2">
  <advance width="881"/>
  <unicode hex="00BE"/>
  <outline>
    <contour>
      <point x="211" y="545" type="curve"/>
      <point x="265" y="554"/>
      <point x="316" y="596"/>
      <point x="316" y="641" type="curve"/>
      <point x="316" y="700"/>
      <point x="253" y="744"/>
      <point x="184" y="744" type="curve" smooth="yes"/>
      <point x="110" y="744"/>
      <point x="48" y="693"/>
      <point x="48" y="642" type="curve" smooth="yes"/>
      <point x="48" y="610"/>
      <point x="72" y="593"/>
      <point x="102" y="593" type="curve" smooth="yes"/>
      <point x="132" y="593"/>
      <point x="155" y="610"/>
      <point x="155" y="634" type="curve" smooth="yes"/>
      <point x="155" y="655"/>
      <point x="137" y="673"/>
      <point x="113" y="678" type="curve"/>
      <point x="111" y="679"/>
      <point x="110" y="680"/>
      <point x="110" y="684" type="curve" smooth="yes"/>
      <point x="110" y="708"/>
      <point x="155" y="722"/>
      <point x="170" y="722" type="curve" smooth="yes"/>
      <point x="222" y="722"/>
      <point x="234" y="685"/>
      <point x="234" y="644" type="curve" smooth="yes"/>
      <point x="234" y="593"/>
      <point x="215" y="553"/>
      <point x="126" y="553" type="curve"/>
      <point x="126" y="536" type="line"/>
      <point x="220" y="536"/>
      <point x="244" y="490"/>
      <point x="244" y="434" type="curve" smooth="yes"/>
      <point x="244" y="375"/>
      <point x="218" y="334"/>
      <point x="164" y="334" type="curve" smooth="yes"/>
      <point x="135" y="334"/>
      <point x="113" y="347"/>
      <point x="95" y="361" type="curve"/>
      <point x="93" y="363"/>
      <point x="93" y="365"/>
      <point x="93" y="368" type="curve" smooth="yes"/>
      <point x="93" y="371" type="line" smooth="yes"/>
      <point x="93" y="377"/>
      <point x="95" y="383"/>
      <point x="101" y="385" type="curve"/>
      <point x="126" y="390"/>
      <point x="145" y="408"/>
      <point x="145" y="431" type="curve" smooth="yes"/>
      <point x="145" y="457"/>
      <point x="120" y="479"/>
      <point x="88" y="479" type="curve" smooth="yes"/>
      <point x="58" y="479"/>
      <point x="25" y="460"/>
      <point x="25" y="420" type="curve" smooth="yes"/>
      <point x="25" y="363"/>
      <point x="91" y="312"/>
      <point x="172" y="312" type="curve" smooth="yes"/>
      <point x="286" y="312"/>
      <point x="334" y="372"/>
      <point x="334" y="427" type="curve" smooth="yes"/>
      <point x="334" y="485"/>
      <point x="279" y="534"/>
    </contour>
    <contour>
      <point x="761" y="139" type="line"/>
      <point x="856" y="139" type="line"/>
      <point x="856" y="165" type="line"/>
      <point x="761" y="165" type="line"/>
      <point x="761" y="369" type="line" smooth="yes"/>
      <point x="761" y="372"/>
      <point x="756" y="374"/>
      <point x="747" y="374" type="curve" smooth="yes"/>
      <point x="742" y="374"/>
      <point x="735.273" y="372.838"/>
      <point x="734" y="371" type="curve" smooth="yes"/>
      <point x="671" y="280" type="line"/>
      <point x="671" y="165" type="line"/>
      <point x="682" y="165" type="line"/>
      <point x="543" y="165" type="line"/>
      <point x="570" y="210"/>
      <point x="598" y="250"/>
      <point x="626" y="290" type="curve" smooth="yes"/>
      <point x="675" y="359"/>
      <point x="721" y="424"/>
      <point x="754" y="494" type="curve"/>
      <point x="623" y="494" type="line"/>
      <point x="604" y="380"/>
      <point x="563" y="280"/>
      <point x="494" y="162" type="curve"/>
      <point x="494" y="139" type="line"/>
      <point x="671" y="139" type="line"/>
      <point x="671" y="79" type="line" smooth="yes"/>
      <point x="671" y="54"/>
      <point x="664" y="44"/>
      <point x="647" y="44" type="curve" smooth="yes"/>
      <point x="602" y="44" type="line"/>
      <point x="602" y="19" type="line"/>
      <point x="831" y="19" type="line"/>
      <point x="831" y="44" type="line"/>
      <point x="785" y="44" type="line" smooth="yes"/>
      <point x="768" y="44"/>
      <point x="761" y="54"/>
      <point x="761" y="79" type="curve" smooth="yes"/>
    </contour>
    <contour>
      <point x="189" y="0" type="line"/>
      <point x="240" y="0" type="line"/>
      <point x="682" y="766" type="line"/>
      <point x="632" y="766" type="line"/>
    </contour>
  </outline>
</glyph>
<glyph name="Ntilde" format="2">
  <advance width="758"/>
  <unicode hex="00D1"/>
  <outline>
    <contour>
      <point x="302" y="808" type="curve" smooth="yes"/>
      <point x="309" y="808"/>
      <point x="322" y="800"/>
      <point x="337" y="791" type="curve" smooth="yes"/>
      <point x="339" y="790"/>
      <point x="340" y="789"/>
      <point x="342" y="788" type="curve" smooth="yes"/>
      <point x="343" y="787" type="line" smooth="yes"/>
      <point x="343" y="787"/>
      <point x="344" y="786"/>
      <point x="344" y="786" type="curve" smooth="yes"/>
      <point x="345" y="786" type="line" smooth="yes"/>
      <point x="346" y="785"/>
      <point x="348" y="784"/>
      <point x="349" y="783" type="curve" smooth="yes"/>
      <point x="350" y="782"/>
      <point x="351" y="782"/>
      <point x="352" y="781" type="curve" smooth="yes"/>
      <point x="379" y="763"/>
      <point x="409" y="746"/>
      <point x="444" y="746" type="curve" smooth="yes"/>
      <point x="506" y="746"/>
      <point x="543" y="800"/>
      <point x="558" y="841" type="curve"/>
      <point x="512" y="858" type="line"/>
      <point x="499" y="830"/>
      <point x="482" y="804"/>
      <point x="467" y="804" type="curve" smooth="yes"/>
      <point x="460" y="804"/>
      <point x="447" y="812"/>
      <point x="432" y="821" type="curve" smooth="yes"/>
      <point x="430" y="822"/>
      <point x="429" y="823"/>
      <point x="427" y="824" type="curve" smooth="yes"/>
      <point x="426" y="825" type="line" smooth="yes"/>
      <point x="426" y="825"/>
      <point x="425" y="826"/>
      <point x="425" y="826" type="curve" smooth="yes"/>
      <point x="424" y="826" type="line" smooth="yes"/>
      <point x="423" y="827"/>
      <point x="421" y="828"/>
      <point x="420" y="829" type="curve" smooth="yes"/>
      <point x="419" y="830"/>
      <point x="418" y="830"/>
      <point x="417" y="831" type="curve" smooth="yes"/>
      <point x="390" y="849"/>
      <point x="360" y="866"/>
      <point x="325" y="866" type="curve" smooth="yes"/>
      <point x="263" y="866"/>
      <point x="226" y="812"/>
      <point x="211" y="771" type="curve"/>
      <point x="257" y="754" type="line"/>
      <point x="270" y="782"/>
      <point x="287" y="808"/>
    </contour>
    <contour>
      <point x="633" y="595" type="line" smooth="yes"/>
      <point x="633" y="640"/>
      <point x="637" y="645"/>
      <point x="668" y="645" type="curve" smooth="yes"/>
      <point x="733" y="645" type="line"/>
      <point x="733" y="680" type="line"/>
      <point x="461" y="680" type="line"/>
      <point x="461" y="645" type="line"/>
      <point x="526" y="645" type="line" smooth="yes"/>
      <point x="558" y="645"/>
      <point x="563" y="640"/>
      <point x="563" y="595" type="curve" smooth="yes"/>
      <point x="563" y="220" type="line"/>
      <point x="252" y="680" type="line"/>
      <point x="41" y="680" type="line"/>
      <point x="41" y="645" type="line"/>
      <point x="81" y="645" type="line" smooth="yes"/>
      <point x="119" y="645"/>
      <point x="141" y="629"/>
      <point x="141" y="568" type="curve" smooth="yes"/>
      <point x="141" y="85" type="line" smooth="yes"/>
      <point x="141" y="40"/>
      <point x="137" y="35"/>
      <point x="106" y="35" type="curve" smooth="yes"/>
      <point x="41" y="35" type="line"/>
      <point x="41" y="0" type="line"/>
      <point x="311" y="0" type="line"/>
      <point x="311" y="35" type="line"/>
      <point x="246" y="35" type="line" smooth="yes"/>
      <point x="215" y="35"/>
      <point x="211" y="40"/>
      <point x="211" y="85" type="curve" smooth="yes"/>
      <point x="211" y="536" type="line"/>
      <point x="210" y="536"/>
      <point x="213" y="528"/>
      <point x="225" y="511" type="curve" smooth="yes"/>
      <point x="578" y="-12" type="line"/>
      <point x="633" y="-12" type="line"/>
    </contour>
  </outline>
</glyph>
<glyph name="Oslash" format="2">
  <advance width="687"/>
  <unicode hex="00D8"/>
  <anchor x="343" y="750" name="t.dieresis"/>
  <anchor x="343" y="730" name="t.asciicircum_1"/>
  <outline>
    <contour>
      <point x="45" y="342" type="curve" smooth="yes"/>
      <point x="45" y="230"/>
      <point x="81" y="129"/>
      <point x="149" y="62" type="curve"/>
      <point x="153" y="62" type="line"/>
      <point x="147" y="62" type="line"/>
      <point x="88" y="-38" type="line"/>
      <point x="142" y="-70" type="line"/>
      <point x="197" y="26" type="line"/>
      <point x="237" y="1"/>
      <point x="284" y="-12"/>
      <point x="340" y="-12" type="curve" smooth="yes"/>
      <point x="533" y="-12"/>
      <point x="640" y="146"/>
      <point x="640" y="340" type="curve" smooth="yes"/>
      <point x="640" y="450"/>
      <point x="605" y="551"/>
      <point x="537" y="618" type="curve"/>
      <point x="533" y="618" type="line"/>
      <point x="539" y="618" type="line"/>
      <point x="598" y="718" type="line"/>
      <point x="544" y="750" type="line"/>
      <point x="489" y="654" type="line"/>
      <point x="449" y="679"/>
      <point x="402" y="692"/>
      <point x="346" y="692" type="curve" smooth="yes"/>
      <point x="153" y="692"/>
      <point x="45" y="535"/>
    </contour>
    <contour>
      <point x="241" y="100" type="curve"/>
      <point x="240" y="100" type="line"/>
      <point x="467" y="493" type="line"/>
      <point x="474" y="452"/>
      <point x="478" y="402"/>
      <point x="478" y="335" type="curve" smooth="yes"/>
      <point x="478" y="90"/>
      <point x="424" y="20"/>
      <point x="346" y="20" type="curve" smooth="yes"/>
      <point x="303" y="20"/>
      <point x="268" y="41"/>
    </contour>
    <contour>
      <point x="218" y="186" type="line"/>
      <point x="210" y="227"/>
      <point x="207" y="277"/>
      <point x="207" y="336" type="curve" smooth="yes"/>
      <point x="207" y="590"/>
      <point x="262" y="660"/>
      <point x="340" y="660" type="curve" smooth="yes"/>
      <point x="383" y="660"/>
      <point x="418" y="639"/>
      <point x="445" y="580" type="curve"/>
      <point x="446" y="580" type="line"/>
    </contour>
  </outline>
</glyph>
